SplineFontDB: 3.0
FontName: WebAtlas
FullName: WebAtlas
FamilyName: WebAtlas
Weight: Regular
Copyright: MIT License 2018, Louis MORAES.
Version: 0.6.0
ItalicAngle: 0
UnderlinePosition: -170
UnderlineWidth: 50
Ascent: 800
Descent: 200
InvalidEm: 0
sfntRevision: 0x00010000
LayerCount: 2
Layer: 0 1 "Arri+AOgA-re" 1
Layer: 1 1 "Avant" 0
XUID: [1021 206 1625637039 14079]
StyleMap: 0x0040
FSType: 8
OS2Version: 3
OS2_WeightWidthSlopeOnly: 0
OS2_UseTypoMetrics: 0
CreationTime: 1375896762
ModificationTime: 1554815871
PfmFamily: 81
TTFWeight: 400
TTFWidth: 5
LineGap: 0
VLineGap: 0
Panose: 0 0 5 0 0 0 0 0 0 0
OS2TypoAscent: 700
OS2TypoAOffset: 0
OS2TypoDescent: -201
OS2TypoDOffset: 0
OS2TypoLinegap: 299
OS2WinAscent: 999
OS2WinAOffset: 0
OS2WinDescent: 201
OS2WinDOffset: 0
HheadAscent: 999
HheadAOffset: 0
HheadDescent: -201
HheadDOffset: 0
OS2SubXSize: 650
OS2SubYSize: 600
OS2SubXOff: 0
OS2SubYOff: 75
OS2SupXSize: 650
OS2SupYSize: 600
OS2SupXOff: 0
OS2SupYOff: 350
OS2StrikeYSize: 50
OS2StrikeYPos: 292
OS2CapHeight: 690
OS2XHeight: 487
OS2Vendor: 'UKWN'
OS2CodePages: 20000097.00000000
OS2UnicodeRanges: 00002eff.00000000.00000000.00000000
Lookup: 258 0 0 "'kern' Cr+AOkA-nage horizontal lookups0" { "'kern' Cr+AOkA-nage horizontal lookups0 per glyph data 0"  "'kern' Cr+AOkA-nage horizontal lookups0 classe de cr+AOkA-nage 1"  "'kern' Cr+AOkA-nage horizontal lookups0 classe de cr+AOkA-nage 2"  "'kern' Cr+AOkA-nage horizontal lookups0 classe de cr+AOkA-nage 3"  } ['kern' ('DFLT' <'dflt' > 'cyrl' <'dflt' > 'grek' <'dflt' > 'latn' <'dflt' > ) ]
MarkAttachClasses: 1
DEI: 91125
KernClass2: 45 58 "'kern' Cr+AOkA-nage horizontal lookups0 classe de cr+AOkA-nage 1"
 0 
 0 
 0 
 0 
 0 
 0 
 0 
 0 
 0 
 0 
 0 
 0 
 0 
 0 
 0 
 0 
 0 
 0 
 0 
 0 
 0 
 0 
 0 
 0 
 0 
 0 
 0 
 0 
 0 
 0 
 0 
 0 
 0 
 0 
 0 
 0 
 0 
 0 
 0 
 0 
 0 
 0 
 0 
 0 
 0 
 0 
 0 
 6 hyphen
 0 
 20 quotedbl quotesingle
 0 
 0 
 0 
 0 
 0 
 8 asterisk
 0 
 0 
 0 
 0 
 0 
 0 
 0 
 0 
 0 
 0 
 0 
 0 
 0 
 0 
 0 
 0 
 0 
 0 

StartChar: asterisk
Encoding: 42 42 3
Width: 604
VWidth: 0
GlyphClass: 2
Flags: W
LayerCount: 2
Fore
SplineSet
318.320618913 796.003690651 m 0,0,1
 352.477886538 797.598062046 352.477886538 797.598062046 352.988446674 760.196662901 c 0,2,3
 352.988446674 760.113151437 352.988446674 760.113151437 353.277373433 680.429427936 c 2,4,-1
 353.297174595 674.968423631 l 1,5,-1
 358.045144573 676.636473733 l 2,6,7
 423.003723645 697.591074149 423.003723645 697.591074149 433.608810806 701.028341398 c 0,8,9
 471.316854359 713.298502868 471.316854359 713.298502868 480.449262603 674.30607924 c 0,10,11
 487.989347828 642.131533758 487.989347828 642.131533758 456.135517701 631.770589675 c 0,12,13
 441.829516537 627.091823721 441.829516537 627.091823721 415.660383944 618.454708908 c 128,-1,14
 389.494398545 609.818644762 389.494398545 609.818644762 380.383065172 606.832286702 c 2,15,-1
 375.187139951 605.129252086 l 1,16,-1
 378.383556532 600.69293753 l 2,17,18
 417.326040832 546.644566302 417.326040832 546.644566302 425.030990207 536.042891643 c 0,19,20
 430.250672978 528.842688588 430.250672978 528.842688588 432.848811759 522.387162609 c 0,21,22
 444.074338585 494.495396169 444.074338585 494.495396169 403.45584615 478.723415523 c 0,23,24
 382.258577004 470.966892303 382.258577004 470.966892303 366.074467972 493.253018347 c 0,25,26
 357.69283251 505.282169571 357.69283251 505.282169571 342.937089035 527.314227279 c 128,-1,27
 328.182359052 549.356500036 328.182359052 549.356500036 322.694670469 557.569290668 c 2,28,-1
 319.747812265 561.979512843 l 1,29,-1
 316.800349346 557.569775419 l 2,30,31
 282.016604463 505.529364467 282.016604463 505.529364467 273.428096577 493.29908562 c 0,32,33
 251.841478894 465.26917365 251.841478894 465.26917365 223.195798801 486.090876984 c 128,-1,34
 194.539684978 506.92304816 194.539684978 506.92304816 214.55382966 536.090131505 c 0,35,36
 222.54146112 547.184064089 222.54146112 547.184064089 239.403388274 570.53765743 c 128,-1,37
 256.255239124 593.881806868 256.255239124 593.881806868 261.166210854 600.691531028 c 2,38,-1
 264.361320565 605.121981486 l 1,39,-1
 259.17302277 606.830543257 l 2,40,41
 195.081469163 627.936575082 195.081469163 627.936575082 183.430998199 631.761579103 c 0,42,43
 149.538879739 643.34736555 149.538879739 643.34736555 160.593692026 677.440955687 c 128,-1,44
 171.659407637 711.535608082 171.659407637 711.535608082 205.890445668 701.018398554 c 0,45,46
 217.447331576 697.251883107 217.447331576 697.251883107 243.169317339 689.033509351 c 128,-1,47
 268.875992616 680.820027414 268.875992616 680.820027414 281.439533462 676.640010625 c 2,48,-1
 286.199678885 674.951097079 l 1,49,-1
 286.217328504 680.43120324 l 2,50,51
 286.260122798 693.718587918 286.260122798 693.718587918 286.356421512 720.320071605 c 128,-1,52
 286.452717654 746.909037813 286.452717654 746.909037813 286.506130492 760.188242979 c 0,53,54
 286.968605284 794.514896713 286.968605284 794.514896713 318.320618913 796.003690651 c 0,0,1
EndSplineSet
EndChar

StartChar: plus
Encoding: 43 43 4
Width: 684
VWidth: 37
GlyphClass: 2
Flags: W
LayerCount: 2
Fore
SplineSet
345.370117188 567.790039062 m 4,0,1
 386.506835938 567.790039062 386.506835938 567.790039062 386.506835938 525.858398438 c 6,2,-1
 386.506835938 370.946289062 l 5,3,-1
 386.506835938 366.946289062 l 5,4,-1
 390.375976562 366.946289062 l 5,5,-1
 542.178710938 366.946289062 l 6,6,7
 584.122070312 366.946289062 584.122070312 366.946289062 584.122070312 325.014648438 c 132,-1,8
 584.122070312 283.0703125 584.122070312 283.0703125 542.178710938 283.0703125 c 6,9,-1
 390.375976562 283.0703125 l 5,10,-1
 386.506835938 283.0703125 l 5,11,-1
 386.506835938 279.0703125 l 5,12,-1
 386.506835938 124.796875 l 6,13,14
 386.506835938 81.9599609375 386.506835938 81.9599609375 345.948242188 81.9599609375 c 132,-1,15
 305.389648438 81.9599609375 305.389648438 81.9599609375 305.389648438 123.891601562 c 6,16,-1
 305.404296875 279.0703125 l 5,17,-1
 305.404296875 283.0703125 l 5,18,-1
 301.53515625 283.0703125 l 5,19,-1
 149.821289062 283.0703125 l 6,20,21
 107.877929688 283.0703125 107.877929688 283.0703125 107.877929688 325.014648438 c 132,-1,22
 107.877929688 366.946289062 107.877929688 366.946289062 149.821289062 366.946289062 c 6,23,-1
 301.53515625 366.946289062 l 5,24,-1
 305.404296875 366.946289062 l 5,25,-1
 305.404296875 370.946289062 l 5,26,-1
 305.404296875 525.154296875 l 6,27,28
 305.390625 567.217773438 305.390625 567.217773438 345.370117188 567.790039062 c 4,0,1
EndSplineSet
EndChar

StartChar: hyphen
Encoding: 45 45 5
Width: 684
VWidth: 37
GlyphClass: 2
Flags: W
LayerCount: 2
Fore
SplineSet
148.563476562 288.049804688 m 6,0,-1
 540.747070312 288.049804688 l 6,1,2
 583.310546875 288.049804688 583.310546875 288.049804688 583.310546875 246.138671875 c 132,-1,3
 583.310546875 204.227539062 583.310546875 204.227539062 541.3984375 204.227539062 c 6,4,-1
 148.563476562 204.227539062 l 6,5,6
 106 204.227539062 106 204.227539062 106 246.138671875 c 132,-1,7
 106 288.049804688 106 288.049804688 148.563476562 288.049804688 c 6,0,-1
EndSplineSet
EndChar

StartChar: less
Encoding: 60 60 6
Width: 660
GlyphClass: 2
Flags: W
LayerCount: 2
Fore
SplineSet
547 882.5 m 2,0,1
 566.579689783 882.5 566.579689783 882.5 581.039844892 868.039844892 c 128,-1,2
 595.5 853.579689783 595.5 853.579689783 595.5 833 c 128,-1,3
 595.5 812.419676868 595.5 812.419676868 580.954469615 797.874146483 c 2,4,-1
 223.284418765 410.822631649 l 1,5,-1
 220.74323688 407.986601984 l 1,6,-1
 214.477928349 401.007354731 l 1,7,-1
 213.564888332 400 l 1,8,-1
 214.477928349 398.992645269 l 1,9,-1
 220.743251591 392.013381599 l 1,10,-1
 223.306532787 389.152773409 l 1,11,-1
 581.021076764 2.05861301924 l 2,12,13
 595.5 -12.4203102168 595.5 -12.4203102168 595.5 -33 c 128,-1,14
 595.5 -53.5796897832 595.5 -53.5796897832 581.039844892 -68.0398448916 c 128,-1,15
 566.579689783 -82.5 566.579689783 -82.5 546 -82.5 c 0,16,17
 525.654263558 -82.5 525.654263558 -82.5 511.154134492 -67.236706247 c 2,18,-1
 109.977906667 364.94240355 l 2,19,20
 95.5 379.420310217 95.5 379.420310217 95.5 400 c 128,-1,21
 95.5 420.580307253 95.5 420.580307253 110.043676608 435.123983861 c 2,22,-1
 511.146074321 867.228155024 l 2,23,24
 525.654327047 882.5 525.654327047 882.5 546 882.5 c 2,25,-1
 547 882.5 l 2,0,1
EndSplineSet
EndChar

StartChar: greater
Encoding: 62 62 7
Width: 660
GlyphClass: 2
Flags: W
LayerCount: 2
Fore
SplineSet
144 882.5 m 2,0,-1
 145 882.5 l 2,1,2
 165.345736442 882.5 165.345736442 882.5 179.845865508 867.236706247 c 2,3,-1
 581.022093333 435.05759645 l 2,4,5
 595.5 420.579689783 595.5 420.579689783 595.5 400 c 128,-1,6
 595.5 379.419692747 595.5 379.419692747 580.956323392 364.876016139 c 2,7,-1
 179.853925679 -67.2281550244 l 2,8,9
 165.345672953 -82.5 165.345672953 -82.5 145 -82.5 c 0,10,11
 124.420310217 -82.5 124.420310217 -82.5 109.960155108 -68.0398448916 c 128,-1,12
 95.5 -53.5796897832 95.5 -53.5796897832 95.5 -33 c 128,-1,13
 95.5 -12.4196768675 95.5 -12.4196768675 110.045530385 2.12585351725 c 2,14,-1
 467.715581235 389.177368351 l 1,15,-1
 470.25676312 392.013398016 l 1,16,-1
 476.522071651 398.992645269 l 1,17,-1
 477.435111668 400 l 1,18,-1
 476.522071651 401.007354731 l 1,19,-1
 470.25676312 407.986601984 l 1,20,-1
 467.704545995 410.834947285 l 1,21,-1
 110.040545342 797.875241807 l 2,22,23
 95.5 812.671222312 95.5 812.671222312 95.5 833 c 0,24,25
 95.5 853.579689783 95.5 853.579689783 109.960155108 868.039844892 c 128,-1,26
 124.420310217 882.5 124.420310217 882.5 144 882.5 c 2,0,-1
EndSplineSet
EndChar

StartChar: K
Encoding: 75 75 8
Width: 537
VWidth: 0
GlyphClass: 2
Flags: W
LayerCount: 2
Fore
SplineSet
416.96875 686.237304688 m 2,0,1
 428.512695312 698.0390625 428.512695312 698.0390625 445.243164062 698.48046875 c 0,2,3
 463.142578125 698.48046875 463.142578125 698.48046875 475.126953125 686.877929688 c 128,-1,4
 487.122070312 675.264648438 487.122070312 675.264648438 487.122070312 658.8515625 c 0,5,6
 487.122070312 642.025390625 487.122070312 642.025390625 474.678710938 630.393554688 c 2,7,-1
 163.07905738 350.983398438 l 1,8,-1
 474.844726562 67.3916015625 l 2,9,10
 487.032226562 55.791015625 487.032226562 55.791015625 487.032226562 39.1748046875 c 0,11,12
 487.032226562 22.7626953125 487.032226562 22.7626953125 475.037109375 11.1494140625 c 128,-1,13
 463.04296875 -0.4638671875 463.04296875 -0.4638671875 446.08984375 -0.4638671875 c 0,14,15
 428.737304688 -0.4638671875 428.737304688 -0.4638671875 416.71875 11.9541015625 c 2,16,-1
 106.883789062 301.044921875 l 1,17,-1
 106.883789062 39.93359375 l 2,18,19
 106.887695312 22.56640625 106.887695312 22.56640625 94.8916015625 10.5703125 c 128,-1,20
 82.896484375 -1.4248046875 82.896484375 -1.4248046875 65.943359375 -1.4248046875 c 128,-1,21
 48.990234375 -1.4248046875 48.990234375 -1.4248046875 36.99609375 10.5703125 c 0,22,23
 25 22.17578125 25 22.17578125 25 38.5810546875 c 2,24,-1
 25.0009765625 658.291015625 l 2,25,26
 25.0009765625 674.673828125 25.0009765625 674.673828125 36.8046875 686.268554688 c 128,-1,27
 48.609375 697.864257812 48.609375 697.864257812 65.412109375 698.107421875 c 0,28,29
 82.89453125 698.11328125 82.89453125 698.11328125 94.8916015625 686.116210938 c 128,-1,30
 106.883789062 674.124023438 106.883789062 674.124023438 106.883789062 656.750976562 c 2,31,-1
 106.883789062 401 l 1,32,-1
 416.96875 686.237304688 l 2,0,1
EndSplineSet
EndChar

StartChar: L
Encoding: 76 76 9
Width: 437
VWidth: 0
GlyphClass: 2
Flags: W
LayerCount: 2
Fore
SplineSet
36.8583984375 689.930664062 m 128,-1,1
 48.7197265625 701.58984375 48.7197265625 701.58984375 65.6025390625 701.8359375 c 0,2,3
 83.1748046875 701.8359375 83.1748046875 701.8359375 95.2236328125 690.216796875 c 128,-1,4
 107.275390625 678.59375 107.275390625 678.59375 107.275390625 662.16796875 c 2,5,-1
 107.272460938 212.432617188 l 2,6,7
 107.272460938 112.338867188 107.272460938 112.338867188 108.005859375 104.119140625 c 0,8,9
 109.352539062 89.0048828125 109.352539062 89.0048828125 112.327148438 84.34765625 c 0,10,11
 123.217773438 79.150390625 123.217773438 79.150390625 170.496363539 78.6787109375 c 0,12,13
 191.590174542 78.4833984375 191.590174542 78.4833984375 255.459014932 79.3125 c 0,14,15
 309.970703125 80.146484375 309.970703125 80.146484375 346.380859375 80.146484375 c 0,16,17
 363.86328125 80.150390625 363.86328125 80.150390625 375.915039062 68.0966796875 c 128,-1,18
 387.96875 56.044921875 387.96875 56.044921875 387.96875 39.0107421875 c 128,-1,19
 387.96875 21.9765625 387.96875 21.9765625 375.916015625 9.92578125 c 128,-1,20
 363.864257812 -2.1279296875 363.864257812 -2.1279296875 346.829101562 -2.1279296875 c 0,21,22
 311.350585938 -2.125 311.350585938 -2.125 257.276494206 -2.9638671875 c 0,23,24
 192.912742077 -3.806640625 192.912742077 -3.806640625 169.34437238 -3.5888671875 c 0,25,26
 96.5146484375 -2.8349609375 96.5146484375 -2.8349609375 68.0009765625 14.568359375 c 0,27,28
 31.1591796875 37.0546875 31.1591796875 37.0546875 26.0361328125 94.751953125 c 0,29,30
 25 106.424804688 25 106.424804688 25 210.3515625 c 2,31,-1
 25 661.590820312 l 2,32,0
 24.99609375 678.268554688 24.99609375 678.268554688 36.8583984375 689.930664062 c 128,-1,1
EndSplineSet
EndChar

StartChar: M
Encoding: 77 77 10
Width: 557
VWidth: 0
GlyphClass: 2
Flags: W
LayerCount: 2
Fore
SplineSet
37.0048828125 690.73828125 m 0,0,1
 48.9970703125 702.732421875 48.9970703125 702.732421875 66.994140625 702.732421875 c 0,2,3
 82.115234375 702.291992188 82.115234375 702.291992188 93.275390625 692.33203125 c 2,4,-1
 266.404910012 548.005859375 l 1,5,-1
 439.536132812 692.333984375 l 2,6,7
 451.1953125 702.739257812 451.1953125 702.739257812 466.821289062 702.739257812 c 0,8,9
 483.788085938 702.739257812 483.788085938 702.739257812 495.791015625 690.735351562 c 0,10,11
 507.796875 679.124023438 507.796875 679.124023438 507.796875 662.697265625 c 2,12,-1
 506.928710938 38.8515625 l 2,13,14
 506.931640625 22.087890625 506.931640625 22.087890625 494.926757812 10.4765625 c 0,15,16
 482.922851562 -1.529296875 482.922851562 -1.529296875 465.956054688 -1.529296875 c 128,-1,17
 448.989257812 -1.529296875 448.989257812 -1.529296875 436.986328125 10.4755859375 c 128,-1,18
 424.98046875 22.4794921875 424.98046875 22.4794921875 424.98046875 39.4619140625 c 2,19,-1
 425.727539062 593.1484375 l 1,20,-1
 296.543083991 485.51953125 l 2,21,22
 283.662784853 475.111328125 283.662784853 475.111328125 266.399516252 475.111328125 c 128,-1,23
 249.133011395 475.111328125 249.133011395 475.111328125 236.254869761 485.520507812 c 2,24,-1
 107.024414062 593.18359375 l 1,25,-1
 107.50390625 39.7451171875 l 2,26,27
 107.506835938 22.4404296875 107.506835938 22.4404296875 95.5009765625 10.4365234375 c 128,-1,28
 83.4970703125 -1.5693359375 83.4970703125 -1.5693359375 66.5302734375 -1.5693359375 c 128,-1,29
 49.5634765625 -1.5693359375 49.5634765625 -1.5693359375 37.560546875 10.435546875 c 0,30,31
 25.5546875 22.046875 25.5546875 22.046875 25.5546875 38.44921875 c 2,32,-1
 25 662.697265625 l 2,33,34
 25 679.127929688 25 679.127929688 37.0048828125 690.73828125 c 0,0,1
EndSplineSet
EndChar

StartChar: N
Encoding: 78 78 11
Width: 557
VWidth: 0
GlyphClass: 2
Flags: W
LayerCount: 2
Fore
SplineSet
437.6640625 690.595703125 m 128,-1,1
 449.494140625 702.590820312 449.494140625 702.590820312 466.46875 702.823242188 c 0,2,3
 483.782226562 702.823242188 483.782226562 702.823242188 495.78515625 690.818359375 c 0,4,5
 507.791015625 679.20703125 507.791015625 679.20703125 507.791015625 662.780273438 c 2,6,-1
 506.918945312 38.9453125 l 2,7,8
 506.890625 22.55859375 506.890625 22.55859375 494.88671875 10.9697265625 c 0,9,10
 482.883789062 -1.0146484375 482.883789062 -1.0146484375 465.943359375 -1.0146484375 c 0,11,12
 442.450195312 -1.0146484375 442.450195312 -1.0146484375 430.579101562 19.263671875 c 2,13,-1
 107.076171875 533.013671875 l 1,14,-1
 107.500976562 39.8515625 l 2,15,16
 107.506835938 22.453125 107.506835938 22.453125 95.5 10.44921875 c 128,-1,17
 83.49609375 -1.556640625 83.49609375 -1.556640625 66.529296875 -1.556640625 c 128,-1,18
 49.5625 -1.556640625 49.5625 -1.556640625 37.5595703125 10.4482421875 c 0,19,20
 25.5537109375 22.0654296875 25.5537109375 22.0654296875 25.5537109375 38.4775390625 c 2,21,-1
 25 662.73828125 l 2,22,23
 25 679.17578125 25 679.17578125 37.0048828125 690.79296875 c 128,-1,24
 49.0087890625 702.412109375 49.0087890625 702.412109375 65.9755859375 702.412109375 c 0,25,26
 89.4697265625 702.412109375 89.4697265625 702.412109375 101.340820312 682.133789062 c 2,27,-1
 425.169921875 167.8125 l 1,28,-1
 425.8359375 661.469726562 l 2,29,0
 425.833007812 678.602539062 425.833007812 678.602539062 437.6640625 690.595703125 c 128,-1,1
EndSplineSet
EndChar

StartChar: O
Encoding: 79 79 12
Width: 592
VWidth: 0
GlyphClass: 2
Flags: W
LayerCount: 2
Fore
SplineSet
170.803680152 688.868164062 m 0,0,1
 214.72837798 702.05078125 214.72837798 702.05078125 283.751838323 702.05078125 c 128,-1,2
 352.748678283 702.05078125 352.748678283 702.05078125 396.699996494 688.859375 c 0,3,4
 416.587552707 682.890625 416.587552707 682.890625 446.219726562 665.575195312 c 0,5,6
 482.5625 643.979492188 482.5625 643.979492188 500.997070312 603.66015625 c 0,7,8
 518.537109375 565.293945312 518.537109375 565.293945312 528.865234375 509.94140625 c 0,9,10
 542.354492188 437.654296875 542.354492188 437.654296875 542.50390625 339.00390625 c 0,11,12
 542.73046875 256.059570312 542.73046875 256.059570312 523.586914062 177.56640625 c 0,13,14
 511.537109375 128.1640625 511.537109375 128.1640625 495.092773438 95.1796875 c 0,15,16
 477.735351562 60.365234375 477.735351562 60.365234375 445.954101562 41.3671875 c 0,17,18
 445.161132812 40.8935546875 445.161132812 40.8935546875 438.40234375 36.791015625 c 128,-1,19
 431.47265625 32.5849609375 431.47265625 32.5849609375 429.170898438 31.275390625 c 128,-1,20
 426.896484375 29.9794921875 426.896484375 29.9794921875 419.15375769 25.9482421875 c 0,21,22
 410.480836699 21.65234375 410.480836699 21.65234375 405.340973025 19.7822265625 c 0,23,24
 400.936896755 18.1806640625 400.936896755 18.1806640625 391.876382978 14.8232421875 c 0,25,26
 381.90545208 11.12890625 381.90545208 11.12890625 373.988549985 9.37109375 c 0,27,28
 366.947990918 7.755859375 366.947990918 7.755859375 356.276411523 5.349609375 c 0,29,30
 344.861591017 2.7744140625 344.861591017 2.7744140625 334.04839118 1.6083984375 c 0,31,32
 323.740978633 0.49609375 323.740978633 0.49609375 310.777916614 -0.3857421875 c 128,-1,33
 297.618928571 -1.28125 297.618928571 -1.28125 283.7571624 -1.28125 c 128,-1,34
 269.894331414 -1.28125 269.894331414 -1.28125 256.736408186 -0.3857421875 c 128,-1,35
 243.772281351 0.49609375 243.772281351 0.49609375 233.463803989 1.6083984375 c 0,36,37
 222.649539338 2.7744140625 222.649539338 2.7744140625 211.234718831 5.349609375 c 0,38,39
 200.561009805 7.755859375 200.561009805 7.755859375 193.523645185 9.37109375 c 0,40,41
 185.602483828 11.12890625 185.602483828 11.12890625 175.633682561 14.8232421875 c 0,42,43
 166.572103968 18.1796875 166.572103968 18.1796875 162.163768437 19.783203125 c 0,44,45
 157.022839948 21.6533203125 157.022839948 21.6533203125 148.352048587 25.9482421875 c 0,46,47
 140.610351562 29.978515625 140.610351562 29.978515625 138.3359375 31.2734375 c 128,-1,48
 136.030273438 32.5859375 136.030273438 32.5859375 129.1015625 36.791015625 c 128,-1,49
 122.34375 40.8916015625 122.34375 40.8916015625 121.545898438 41.3681640625 c 0,50,51
 89.7646484375 60.369140625 89.7646484375 60.369140625 72.421875 95.1826171875 c 0,52,53
 55.9912109375 128.163085938 55.9912109375 128.163085938 43.94921875 177.579101562 c 0,54,55
 24.8564453125 255.932617188 24.8564453125 255.932617188 25.0009765625 339.069335938 c 0,56,57
 25.298828125 438.086914062 25.298828125 438.086914062 38.6865234375 509.938476562 c 0,58,59
 49.0009765625 565.305664062 49.0009765625 565.305664062 66.5234375 603.669921875 c 0,60,61
 84.939453125 643.989257812 84.939453125 643.989257812 121.287109375 665.5859375 c 0,62,63
 150.924642462 682.90234375 150.924642462 682.90234375 170.803680152 688.868164062 c 0,0,1
367.959565497 610.924804688 m 0,64,65
 338.006309821 619.83203125 338.006309821 619.83203125 283.72521794 619.83203125 c 128,-1,66
 229.427089013 619.83203125 229.427089013 619.83203125 199.490870383 610.9296875 c 0,67,68
 189.18026339 607.862304688 189.18026339 607.862304688 166.021594435 595.356445312 c 0,69,70
 153.584551196 588.637695312 153.584551196 588.637695312 140.28125 561.666015625 c 0,71,72
 126.810546875 532.8125 126.810546875 532.8125 119.57421875 494.325195312 c 0,73,74
 107.471679688 429.961914062 107.471679688 429.961914062 107.19140625 338.750976562 c 0,75,76
 107.069335938 265.719726562 107.069335938 265.719726562 123.948242188 197.077148438 c 0,77,78
 131.953125 164.52734375 131.953125 164.52734375 145.086259922 139.15625 c 0,79,80
 158.445433249 115.47265625 158.445433249 115.47265625 166.502890971 111.095703125 c 0,81,82
 171.027291375 108.640625 171.027291375 108.640625 181.566833667 102.53515625 c 0,83,84
 191.566514579 96.7421875 191.566514579 96.7421875 195.335960903 94.892578125 c 128,-1,85
 198.949944187 93.1201171875 198.949944187 93.1201171875 208.750504629 89.4072265625 c 0,86,87
 217.751388747 85.9970703125 217.751388747 85.9970703125 225.717272349 84.8203125 c 0,88,89
 234.743712035 83.486328125 234.743712035 83.486328125 249.842793638 82.2041015625 c 128,-1,90
 264.778958493 80.935546875 264.778958493 80.935546875 283.724153124 80.935546875 c 0,91,92
 306.566571922 80.935546875 306.566571922 80.935546875 322.289635317 81.9365234375 c 0,93,94
 336.733855482 82.8564453125 336.733855482 82.8564453125 349.242241349 86.8427734375 c 0,95,96
 362.642942476 91.1123046875 362.642942476 91.1123046875 367.612435694 92.6181640625 c 0,97,98
 371.293502344 94.0185546875 371.293502344 94.0185546875 383.818925257 101.26171875 c 0,99,100
 398.896710553 109.982421875 398.896710553 109.982421875 400.939026386 111.091796875 c 0,101,102
 409.012456337 115.479492188 409.012456337 115.479492188 422.38653708 139.166992188 c 0,103,104
 435.533203125 164.538085938 435.533203125 164.538085938 443.543945312 197.083984375 c 0,105,106
 460.469726562 265.854492188 460.469726562 265.854492188 460.260742188 338.70703125 c 0,107,108
 460.122070312 429.578125 460.122070312 429.578125 447.930664062 494.318359375 c 0,109,110
 440.685546875 532.795898438 440.685546875 532.795898438 427.19921875 561.65234375 c 0,111,112
 413.877597652 588.62890625 413.877597652 588.62890625 401.42990626 595.350585938 c 0,113,114
 378.281885459 607.85546875 378.281885459 607.85546875 367.959565497 610.924804688 c 0,64,65
EndSplineSet
EndChar

StartChar: k
Encoding: 107 107 13
Width: 428
GlyphClass: 2
Flags: W
LayerCount: 2
Fore
SplineSet
36.658203125 690.072265625 m 128,-1,1
 48.3154296875 701.905273438 48.3154296875 701.905273438 65.4189453125 702.162109375 c 0,2,3
 82.1640625 702.162109375 82.1640625 702.162109375 94.009765625 690.318359375 c 128,-1,4
 105.853515625 678.474609375 105.853515625 678.474609375 105.853515625 661.734375 c 2,5,-1
 105.850585938 299.20703125 l 1,6,-1
 305.632885573 487.322265625 l 2,7,8
 318.186939776 499.194335938 318.186939776 499.194335938 336.55078125 499.94140625 c 0,9,10
 337.473632812 499.984375 337.473632812 499.984375 338.405273438 499.984375 c 0,11,12
 355.143554688 499.984375 355.143554688 499.984375 366.989257812 488.624023438 c 128,-1,13
 378.833007812 477.264648438 378.833007812 477.264648438 378.833007812 461.208007812 c 128,-1,14
 378.833007812 445.192382812 378.833007812 445.192382812 367.100585938 433.89453125 c 2,15,-1
 161.381911023 249.158203125 l 1,16,-1
 367.28125 61.5771484375 l 2,17,18
 378.845703125 50.3134765625 378.845703125 50.3134765625 378.845703125 34.42578125 c 0,19,20
 378.845703125 26.611328125 378.845703125 26.611328125 375.805664062 19.57421875 c 128,-1,21
 372.765625 12.5380859375 372.765625 12.5380859375 367.001953125 7.009765625 c 0,22,23
 355.158203125 -4.833984375 355.158203125 -4.833984375 338.41796875 -4.833984375 c 0,24,25
 318.800054951 -4.833984375 318.800054951 -4.833984375 305.383910358 8.0751953125 c 2,26,-1
 105.852539062 198.682617188 l 1,27,-1
 105.852539062 31.9580078125 l 2,28,29
 105.856445312 14.771484375 105.856445312 14.771484375 94.01171875 2.9248046875 c 128,-1,30
 82.16796875 -8.9189453125 82.16796875 -8.9189453125 65.427734375 -8.9189453125 c 128,-1,31
 48.6884765625 -8.9189453125 48.6884765625 -8.9189453125 36.8447265625 2.9248046875 c 0,32,33
 25 14.4033203125 25 14.4033203125 25 30.625 c 2,34,-1
 25.00390625 661.309570312 l 2,35,0
 25 678.236328125 25 678.236328125 36.658203125 690.072265625 c 128,-1,1
EndSplineSet
EndChar

StartChar: l
Encoding: 108 108 14
Width: 155
GlyphClass: 2
Flags: W
LayerCount: 2
Fore
SplineSet
36.65625 690.071289062 m 128,-1,1
 48.3125 701.904296875 48.3125 701.904296875 64.8330078125 702.153320312 c 0,2,3
 82.1669921875 702.153320312 82.1669921875 702.153320312 94.0107421875 690.309570312 c 128,-1,4
 105.854492188 678.465820312 105.854492188 678.465820312 105.854492188 661.725585938 c 2,5,-1
 105.8515625 31.0576171875 l 2,6,7
 105.856445312 14.400390625 105.856445312 14.400390625 94.0107421875 2.9208984375 c 0,8,9
 82.166015625 -8.9228515625 82.166015625 -8.9228515625 65.427734375 -8.9228515625 c 128,-1,10
 48.6875 -8.9228515625 48.6875 -8.9228515625 36.84375 2.9208984375 c 0,11,12
 25 14.3984375 25 14.3984375 25 30.62109375 c 2,13,-1
 25.0029296875 661.3046875 l 2,14,0
 24.9990234375 678.236328125 24.9990234375 678.236328125 36.65625 690.071289062 c 128,-1,1
EndSplineSet
EndChar

StartChar: m
Encoding: 109 109 15
Width: 700
GlyphClass: 2
Flags: W
LayerCount: 2
Fore
SplineSet
346.441933107 500.938476562 m 0,0,1
 395.926044168 501.200195312 395.926044168 501.200195312 468.694851529 501.200195312 c 0,2,3
 554.862304688 501.200195312 554.862304688 501.200195312 598.939453125 458.118164062 c 0,4,5
 650.322265625 407.892578125 650.322265625 407.892578125 650.3046875 297.962890625 c 2,6,-1
 650.291992188 32.775390625 l 2,7,8
 650.540039062 16.6181640625 650.540039062 16.6181640625 638.663085938 5.0537109375 c 0,9,10
 626.78515625 -6.998046875 626.78515625 -6.998046875 609.864257812 -6.9970703125 c 128,-1,11
 592.943359375 -6.99609375 592.943359375 -6.99609375 581.06640625 5.05859375 c 0,12,13
 569.19140625 16.533203125 569.19140625 16.533203125 569.442382812 32.564453125 c 2,14,-1
 569.456054688 295.671875 l 2,15,16
 569.4609375 373.284179688 569.4609375 373.284179688 541.239257812 400.651367188 c 0,17,18
 520.38720783 420.349609375 520.38720783 420.349609375 468.685555829 420.349609375 c 0,19,20
 415.893208331 420.349609375 415.893208331 420.349609375 373.539932226 420.204101562 c 1,21,22
 383.663982667 400.350585938 383.663982667 400.350585938 387.513435431 376.940429688 c 0,23,24
 392.853298804 344.455078125 392.853298804 344.455078125 392.416400891 293.9375 c 2,25,-1
 392.402973769 32.3212890625 l 2,26,27
 392.572362085 21.8525390625 392.572362085 21.8525390625 386.876163535 12.8173828125 c 128,-1,28
 381.201654953 3.822265625 381.201654953 3.822265625 371.298635608 -1.41796875 c 0,29,30
 361.352236327 -6.943359375 361.352236327 -6.943359375 349.645851131 -6.943359375 c 0,31,32
 331.750595271 -6.9423828125 331.750595271 -6.9423828125 319.190038506 5.111328125 c 0,33,34
 306.630514597 16.583984375 306.630514597 16.583984375 306.892859916 32.6123046875 c 2,35,-1
 306.907319894 294.438476562 l 2,36,37
 307.658205904 380.891601562 307.658205904 380.891601562 286.946352865 399.721679688 c 0,38,39
 264.530288111 420.1015625 264.530288111 420.1015625 161.928480043 420.1015625 c 2,40,-1
 106.114257812 420.1015625 l 1,41,-1
 106.114257812 32.86328125 l 2,42,43
 106.510742188 8.486328125 106.510742188 8.486328125 85.599609375 -1.9248046875 c 0,44,45
 65.5615234375 -12.3974609375 65.5615234375 -12.3974609375 45.521484375 -1.9248046875 c 0,46,47
 24.6103515625 8.5576171875 24.6103515625 8.5576171875 25.0078125 33.1005859375 c 2,48,-1
 25.0078125 457.091796875 l 2,49,50
 24.6982421875 478.033203125 24.6982421875 478.033203125 41.96484375 490.681640625 c 0,51,52
 55.6953125 501.168945312 55.6953125 501.168945312 71.41015625 500.94140625 c 2,53,-1
 161.928480043 500.94140625 l 2,54,55
 261.153883205 500.94140625 261.153883205 500.94140625 309.154813646 480.85546875 c 1,56,57
 313.47214999 487.432617188 313.47214999 487.432617188 319.115672904 491.798828125 c 0,58,59
 331.069943441 501.047851562 331.069943441 501.047851562 346.441933107 500.938476562 c 0,0,1
EndSplineSet
EndChar

StartChar: n
Encoding: 110 110 16
Width: 449
GlyphClass: 2
Flags: W
LayerCount: 2
Fore
SplineSet
71.3359375 499.46484375 m 2,0,-1
 162.5234375 499.63671875 l 2,1,2
 241.955011976 499.63671875 241.955011976 499.63671875 288.584960938 491.088867188 c 0,3,4
 330.353515625 482.497070312 330.353515625 482.497070312 357.504882812 456.512695312 c 0,5,6
 384.39453125 430.77734375 384.39453125 430.77734375 392.608398438 392.579101562 c 0,7,8
 400.41015625 356.294921875 400.41015625 356.294921875 399.931640625 296.200195312 c 2,9,-1
 399.91796875 34.16015625 l 2,10,11
 400.014648438 26.36328125 400.014648438 26.36328125 397.009765625 19.2353515625 c 128,-1,12
 394.004882812 12.107421875 394.004882812 12.107421875 388.247070312 6.5234375 c 0,13,14
 376.375976562 -5.4873046875 376.375976562 -5.4873046875 359.489257812 -5.486328125 c 128,-1,15
 342.602539062 -5.4853515625 342.602539062 -5.4853515625 330.733398438 6.52734375 c 0,16,17
 318.864257812 17.9580078125 318.864257812 17.9580078125 319.067382812 33.9658203125 c 2,18,-1
 319.08203125 294.403320312 l 2,19,20
 319.787109375 380.368164062 319.787109375 380.368164062 300.375 398.8125 c 0,21,22
 279.231114291 418.780273438 279.231114291 418.780273438 161.025390625 418.780273438 c 2,23,-1
 106.11328125 418.68359375 l 1,24,-1
 106.11328125 33.4794921875 l 2,25,26
 106.509765625 9.1083984375 106.509765625 9.1083984375 85.599609375 -1.2998046875 c 0,27,28
 65.560546875 -11.7724609375 65.560546875 -11.7724609375 45.521484375 -1.2998046875 c 0,29,30
 24.6103515625 9.1806640625 24.6103515625 9.1806640625 25.0078125 33.7216796875 c 2,31,-1
 25.0078125 456.962890625 l 2,32,33
 24.7060546875 477.397460938 24.7060546875 477.397460938 40.5048828125 490.272460938 c 0,34,35
 51.6064453125 499.708984375 51.6064453125 499.708984375 71.3359375 499.46484375 c 2,0,-1
EndSplineSet
EndChar

StartChar: o
Encoding: 111 111 17
Width: 455
GlyphClass: 2
Flags: W
LayerCount: 2
Fore
SplineSet
84.4072265625 466.778320312 m 0,0,1
 128.463867188 502.999023438 128.463867188 502.999023438 215.379214804 501.611328125 c 0,2,3
 292.901367188 501.532226562 292.901367188 501.532226562 330.188476562 477.58203125 c 0,4,5
 378.685546875 451.419921875 378.685546875 451.419921875 393.249023438 375.908203125 c 0,6,7
 414.66796875 267.349609375 414.66796875 267.349609375 399.818359375 164.75390625 c 0,8,-1
 399.739257812 164.2890625 l 2,9,10
 399.165039062 161.33984375 399.165039062 161.33984375 396.955078125 149.663085938 c 128,-1,11
 394.725585938 137.883789062 394.725585938 137.883789062 393.874023438 133.749023438 c 128,-1,12
 393.017578125 129.591796875 393.017578125 129.591796875 390.610351562 119.025390625 c 0,13,14
 388.119140625 108.091796875 388.119140625 108.091796875 386.264648438 102.533203125 c 0,15,16
 384.538085938 97.361328125 384.538085938 97.361328125 381.401367188 88.4052734375 c 0,17,18
 378.03125 78.7861328125 378.03125 78.7861328125 374.532226562 72.2958984375 c 0,19,20
 371.239257812 66.189453125 371.239257812 66.189453125 366.655273438 58.9365234375 c 0,21,22
 361.853515625 51.33984375 361.853515625 51.33984375 356.298828125 44.9169921875 c 0,23,-1
 355.717773438 44.2998046875 l 2,24,25
 339.08984375 28.0166015625 339.08984375 28.0166015625 317.981445312 17.1357421875 c 128,-1,26
 296.873046875 6.2548828125 296.873046875 6.2548828125 269.134230902 0.86328125 c 0,27,28
 210.068093895 -10.32421875 210.068093895 -10.32421875 157.166896717 1.533203125 c 0,29,30
 76.77734375 21.0634765625 76.77734375 21.0634765625 54.2294921875 76.0390625 c 0,31,32
 12.416015625 181.805664062 12.416015625 181.805664062 30.41796875 335.778320312 c 0,33,34
 35.8447265625 369.637695312 35.8447265625 369.637695312 38.6884765625 383.81640625 c 0,35,36
 41.7138671875 398.90234375 41.7138671875 398.90234375 53.2666015625 424.419921875 c 0,37,38
 65.3173828125 451.038085938 65.3173828125 451.038085938 84.4072265625 466.778320312 c 0,0,1
294.849609375 409.877929688 m 0,39,40
 277.563397513 429.521484375 277.563397513 429.521484375 215.243797288 430.16796875 c 0,41,42
 144.583007812 429.53515625 144.583007812 429.53515625 132.421875 404.270507812 c 0,43,44
 121.533203125 382.260742188 121.533203125 382.260742188 115.720703125 351.459960938 c 0,45,46
 109.770507812 319.934570312 109.770507812 319.934570312 108.948242188 304.2734375 c 0,47,48
 108.09375 288.021484375 108.09375 288.021484375 106.80078125 246.21484375 c 0,49,50
 107.96484375 155.71484375 107.96484375 155.71484375 130.100585938 105.202148438 c 0,51,-1
 130.466796875 104.240234375 l 2,52,53
 139.202148438 77.4345703125 139.202148438 77.4345703125 178.261043957 69.57421875 c 1,54,55
 233.146452037 64.4169921875 233.146452037 64.4169921875 264.316580605 72.455078125 c 0,56,57
 294.69140625 83.3173828125 294.69140625 83.3173828125 303.0625 110.977539062 c 0,58,-1
 303.307617188 111.693359375 l 2,59,60
 324.424804688 166.794921875 324.424804688 166.794921875 323.649414062 255.279296875 c 0,61,62
 323.501953125 258.771484375 323.501953125 258.771484375 323.209960938 266.141601562 c 0,63,64
 321.86328125 300.106445312 321.86328125 300.106445312 320.333007812 318.739257812 c 0,65,66
 318.850585938 336.784179688 318.850585938 336.784179688 312.264648438 364.154296875 c 0,67,68
 305.96484375 390.3359375 305.96484375 390.3359375 294.849609375 409.877929688 c 0,39,40
EndSplineSet
EndChar

StartChar: two
Encoding: 50 50 19
Width: 491
VWidth: 0
Flags: W
LayerCount: 2
Fore
SplineSet
287.571289062 699.728515625 m 2,0,1
 378.053710938 699.91796875 378.053710938 699.91796875 416.373046875 644.204101562 c 0,2,3
 445.765625 601.471679688 445.765625 601.471679688 440.526367188 523.905273438 c 2,4,-1
 440.291015625 521.7265625 l 2,5,6
 431.276367188 450.115234375 431.276367188 450.115234375 370.702148438 390.970703125 c 0,7,8
 339.498046875 360.504882812 339.498046875 360.504882812 256.423828125 305.059570312 c 0,9,10
 114.77734375 210.5 114.77734375 210.5 102.431640625 126.454101562 c 2,11,-1
 102.353515625 77.0302734375 l 1,12,-1
 402.306640625 77.0302734375 l 2,13,14
 441.36328125 77.041015625 441.36328125 77.041015625 441.36328125 38.509765625 c 128,-1,15
 441.36328125 -0.0107421875 441.36328125 -0.0107421875 402.842773438 -0.0107421875 c 0,16,-1
 63.7666015625 0 l 2,17,18
 25.2451171875 0 25.2451171875 0 25.2451171875 38.509765625 c 2,19,-1
 25.3896484375 130.744140625 l 1,20,-1
 25.76953125 136.017578125 l 2,21,22
 42.3037109375 254.696289062 42.3037109375 254.696289062 213.703125 369.084960938 c 0,23,24
 290.778320312 420.520507812 290.778320312 420.520507812 316.920898438 446.047851562 c 0,25,26
 357.551757812 485.73046875 357.551757812 485.73046875 363.485351562 530.674804688 c 0,27,28
 366.45703125 580.736328125 366.45703125 580.736328125 352.872070312 600.48828125 c 0,29,30
 337.5546875 622.798828125 337.5546875 622.798828125 287.727539062 622.686523438 c 0,31,-1
 287.650390625 622.686523438 l 1,32,-1
 64.1337890625 622.384765625 l 2,33,34
 25 622.384765625 25 622.384765625 25 660.90625 c 128,-1,35
 25 699.426757812 25 699.426757812 63.5205078125 699.426757812 c 0,36,-1
 287.571289062 699.728515625 l 2,0,1
EndSplineSet
EndChar

StartChar: semicolon
Encoding: 59 59 20
Width: 269
VWidth: 26
Flags: W
LayerCount: 2
Fore
SplineSet
206.343406715 88.3502216658 m 1,0,-1
 223.343406715 88.3502216658 l 1,1,-1
 223.343406715 71.3502216658 l 1,2,-1
 210.538806379 71.3502216658 l 1,3,-1
 207.157058475 71.3502216658 l 1,4,-1
 209.426894777 68.8434185125 l 2,5,6
 223.039238373 53.8099705876 223.039238373 53.8099705876 222.912598898 41.1959323246 c 0,7,8
 222.775043105 27.4945644832 222.775043105 27.4945644832 206.670857201 11.3899974432 c 2,9,-1
 91.5446471516 -100.410982343 l 2,10,11
 75.1918653407 -116.750904107 75.1918653407 -116.750904107 61.2138899115 -116.750770422 c 128,-1,12
 47.2365033118 -116.750636743 47.2365033118 -116.750636743 30.9601551085 -100.46464958 c 0,13,14
 22.7843758727 -92.2888703439 22.7843758727 -92.2888703439 18.7474953399 -84.7125427308 c 128,-1,15
 14.710614807 -77.1362151178 14.710614807 -77.1362151178 14.7081714377 -70.2046210863 c 0,16,17
 14.7032323461 -56.1929129142 14.7032323461 -56.1929129142 30.8795158056 -40.0407845177 c 2,18,-1
 145.910167027 71.6674117642 l 2,19,20
 157.856741306 83.2413653506 157.856741306 83.2413653506 175.004145322 83.2871642763 c 0,21,22
 190.553501657 83.3284314878 190.553501657 83.3284314878 203.970586007 73.7287930779 c 2,23,-1
 206.343406715 72.0310903418 l 1,24,-1
 206.343406715 74.9487045546 l 1,25,-1
 206.343406715 88.3502216658 l 1,0,-1
181.15625 455.900390625 m 128,-1,27
 204.162304683 455.900390625 204.162304683 455.900390625 214.065652352 446.001006946 c 128,-1,28
 223.968751358 436.101871829 223.968751358 436.101871829 223.968751358 413.11879417 c 128,-1,29
 223.95911778 390.109183442 223.95911778 390.109183442 214.058604377 380.204223815 c 128,-1,30
 204.158629764 370.299803219 204.158629764 370.299803219 181.188389686 370.299803219 c 128,-1,31
 158.177912181 370.309822518 158.177912181 370.309822518 148.273271576 380.210652866 c 128,-1,32
 138.369140625 390.110973758 138.369140625 390.110973758 138.369140625 413.087890625 c 128,-1,33
 138.369140625 436.094773558 138.369140625 436.094773558 148.26837563 445.99769787 c 128,-1,26
 158.167379164 455.900390625 158.167379164 455.900390625 181.15625 455.900390625 c 128,-1,27
EndSplineSet
EndChar

StartChar: comma
Encoding: 44 44 21
Width: 269
VWidth: -20
Flags: W
LayerCount: 2
Fore
SplineSet
174.879158031 82.937554935 m 0,0,1
 192.230679444 82.9836050022 192.230679444 82.9836050022 206.934756532 71.0178785138 c 0,2,3
 222.92387365 54.5164729807 222.92387365 54.5164729807 222.786637229 40.8458917264 c 128,-1,4
 222.649094187 27.1445994837 222.649094187 27.1445994837 206.544946473 11.0404520008 c 2,5,-1
 91.4182337018 -100.761015988 l 2,6,7
 75.0882258958 -117.101087559 75.0882258958 -117.101087559 61.0880382537 -117.101126056 c 128,-1,8
 47.0884647203 -117.101164552 47.0884647203 -117.101164552 30.8351551084 -100.815235517 c 128,-1,9
 14.5876187927 -84.5676992009 14.5876187927 -84.5676992009 14.5826780406 -70.5545086794 c 128,-1,10
 14.5777377425 -56.5426056147 14.5777377425 -56.5426056147 30.7544494976 -40.3904582856 c 2,11,-1
 145.785167027 71.3178023892 l 2,12,13
 157.731741306 82.8917559754 157.731741306 82.8917559754 174.879158031 82.937554935 c 0,0,1
206.934756532 71.0178785138 m 1,14,-1
 206.934756532 71.0178785138 l 1,14,-1
EndSplineSet
EndChar

StartChar: period
Encoding: 46 46 22
Width: 185
VWidth: -4
Flags: W
LayerCount: 2
Fore
SplineSet
92.7900390625 101.0625 m 128,-1,1
 115.782226562 101.072265625 115.782226562 101.072265625 125.686523438 91.17578125 c 128,-1,2
 135.58984375 81.279296875 135.58984375 81.279296875 135.599609375 58.2939453125 c 128,-1,3
 135.58984375 35.2861328125 135.58984375 35.2861328125 125.686523438 25.3876953125 c 128,-1,4
 115.783203125 15.490234375 115.783203125 15.490234375 92.787109375 15.5 c 128,-1,5
 69.794921875 15.5 69.794921875 15.5 59.8974609375 25.3984375 c 128,-1,6
 50 35.296875 50 35.296875 50 58.287109375 c 128,-1,7
 50 81.2724609375 50 81.2724609375 59.8984375 91.1669921875 c 128,-1,0
 69.7978515625 101.0625 69.7978515625 101.0625 92.7900390625 101.0625 c 128,-1,1
EndSplineSet
EndChar

StartChar: slash
Encoding: 47 47 23
Width: 638
VWidth: 79
Flags: W
LayerCount: 2
Fore
SplineSet
500.104183143 784.485785932 m 2,0,-1
 501.440437501 784.506835938 l 2,1,2
 523.361099398 784.506835938 523.361099398 784.506835938 532.780462915 775.081876796 c 128,-1,3
 542.200195312 765.656548556 542.200195312 765.656548556 542.200195312 743.637695312 c 0,4,5
 542.200195312 733.149420045 542.200195312 733.149420045 537.07067333 723.826084766 c 0,6,-1
 537.037706387 723.762628574 l 1,7,-1
 204.148254469 37.7348885312 l 2,8,9
 198.230262619 26.0722582841 198.230262619 26.0722582841 189.476000805 20.6951245375 c 128,-1,10
 180.723928962 15.3193359375 180.723928962 15.3193359375 167.681640625 15.3193359375 c 0,11,12
 145.639848707 15.3193359375 145.639848707 15.3193359375 136.219750993 24.7371386261 c 128,-1,13
 126.799804688 34.1547899419 126.799804688 34.1547899419 126.799804688 56.1884765625 c 0,14,15
 126.799804688 66.7669384387 126.799804688 66.7669384387 132.029497609 76.1547661756 c 0,16,-1
 132.066295877 76.2251427385 l 1,17,-1
 464.950862699 762.24170497 l 2,18,19
 476.003981349 783.821468319 476.003981349 783.821468319 500.104183143 784.485785932 c 2,0,-1
EndSplineSet
EndChar

StartChar: zero
Encoding: 48 48 24
Width: 513
VWidth: 0
Flags: W
LayerCount: 2
Fore
SplineSet
198.840820312 699.921875 m 2,0,-1
 289.584960938 699.921875 l 2,1,2
 369.491210938 699.921875 369.491210938 699.921875 417.944335938 624.372070312 c 0,3,4
 463 553 463 553 463.330078125 433.595703125 c 2,5,-1
 463.330078125 270.153320312 l 2,6,7
 463.713867188 150.852539062 463.713867188 150.852539062 418.176757812 77.8916015625 c 0,8,9
 369.560546875 0 369.560546875 0 289.584960938 0 c 2,10,-1
 198.840820312 0 l 2,11,12
 118.93359375 0 118.93359375 0 70.15625 77.8916015625 c 0,13,14
 25 151 25 151 25.0029296875 270.153320312 c 2,15,-1
 25.0029296875 433.595703125 l 2,16,17
 24.607421875 553.174804688 24.607421875 553.174804688 70.388671875 624.372070312 c 0,18,19
 118.966796875 699.921875 118.966796875 699.921875 198.840820312 699.921875 c 2,0,-1
198.840820312 619.916992188 m 2,20,21
 166.575195312 619.916992188 166.575195312 619.916992188 137.909179688 581.331054688 c 0,22,23
 105.0078125 537.237304688 105.0078125 537.237304688 105.0078125 433.595703125 c 2,24,-1
 105.0078125 270.153320312 l 2,25,26
 105 166 105 166 138.141601562 120.157226562 c 0,27,28
 165.795898438 79.9921875 165.795898438 79.9921875 198.840820312 79.9921875 c 2,29,-1
 289.584960938 79.9921875 l 2,30,31
 321.978515625 79.9921875 321.978515625 79.9921875 350.284179688 120.157226562 c 0,32,33
 383.325195312 165.883789062 383.325195312 165.883789062 383.325195312 270.153320312 c 2,34,-1
 383.325195312 433.595703125 l 2,35,36
 383 537 383 537 350.516601562 581.331054688 c 0,37,38
 323.76953125 619.5390625 323.76953125 619.5390625 289.584960938 619.916992188 c 2,39,-1
 198.840820312 619.916992188 l 2,20,21
EndSplineSet
EndChar

StartChar: one
Encoding: 49 49 25
Width: 282
VWidth: 79
Flags: W
LayerCount: 2
Fore
SplineSet
65.5712890625 701.120117188 m 2,0,-1
 192.991210938 701.120117188 l 2,1,2
 232.993164062 701 232.993164062 701 232.993164062 661.129882812 c 2,3,-1
 232.993164062 39.8466796875 l 2,4,5
 233 -1 233 -1 192.991210938 -0.7236328125 c 0,6,7
 153 -1 153 -1 152.989257812 39.2783203125 c 0,8,-1
 153.000976562 621.127929688 l 1,9,-1
 65.5712890625 621.127929688 l 2,10,11
 25 621 25 621 25 661.129882812 c 0,12,13
 25 701 25 701 65.5712890625 701.120117188 c 2,0,-1
EndSplineSet
EndChar

StartChar: three
Encoding: 51 51 26
Width: 496
VWidth: 0
Flags: W
LayerCount: 2
Fore
SplineSet
300.607421875 700 m 2,0,1
 386.930664062 700.10546875 386.930664062 700.10546875 422.819335938 645.357421875 c 0,2,3
 454 598 454 598 435.057617188 528.677734375 c 0,4,5
 415 459 415 459 334.0546875 398.083007812 c 1,6,7
 387 369 387 369 410.647460938 338.352539062 c 0,8,9
 447 290 447 290 446.998046875 219.655273438 c 0,10,11
 447 149 447 149 405.869140625 81.845703125 c 0,12,13
 356.260742188 -0.5673828125 356.260742188 -0.5673828125 283.435546875 -0.5673828125 c 2,14,-1
 64.1123046875 -0.5673828125 l 2,15,16
 25 -1 25 -1 25.34375 37.658203125 c 0,17,18
 25 76 25 76 63.568359375 75.8818359375 c 0,19,-1
 283.435546875 75.8818359375 l 2,20,21
 313 76 313 76 340.6171875 121.64453125 c 0,22,23
 371 171 371 171 370.559570312 219.655273438 c 0,24,25
 371 264 371 264 349.5078125 292.4453125 c 0,26,27
 320 331 320 331 243.79296875 354.92578125 c 0,28,29
 217 363 217 363 216.765625 391.4765625 c 0,30,31
 217 421 217 421 244.768554688 428.315429688 c 0,32,33
 336 453 336 453 361.447265625 549.053710938 c 0,34,35
 371 585 371 585 358.986328125 603.331054688 c 0,36,37
 346.23828125 623.620117188 346.23828125 623.620117188 300.685546875 623.5625 c 2,38,-1
 63.8125 623.262695312 l 2,39,40
 25 623 25 623 25 661.487304688 c 128,-1,41
 25 700 25 700 63.2353515625 699.7109375 c 0,42,-1
 300.607421875 700 l 2,0,1
EndSplineSet
EndChar

StartChar: four
Encoding: 52 52 27
Width: 494
VWidth: 0
Flags: W
LayerCount: 2
Fore
SplineSet
317.9453125 704.631835938 m 2,0,1
 318.375976562 704.63671875 318.375976562 704.63671875 318.377929688 704.634765625 c 0,2,3
 334 705 334 705 345.420898438 693.427734375 c 0,4,5
 356.6328125 682.362304688 356.6328125 682.362304688 356.6328125 666.385742188 c 2,6,-1
 356.6328125 295.985351562 l 1,7,-1
 405.764648438 295.526367188 l 1,8,-1
 405.9453125 295.526367188 l 2,9,10
 422 296 422 296 432.991210938 284.317382812 c 0,11,12
 444 273 444 273 444.19921875 257.271484375 c 0,13,14
 444 241 444 241 432.991210938 230.225585938 c 0,15,16
 422 219 422 219 405.9453125 219.016601562 c 0,17,18
 405 219 405 219 405.049804688 219.028320312 c 2,19,-1
 356.6328125 219.48046875 l 1,20,-1
 356.6328125 36.904296875 l 2,21,22
 357 37 357 37 356.637695312 36.2587890625 c 0,23,24
 357 20 357 20 345.427734375 9.2119140625 c 0,25,26
 334 -2 334 -2 318.381835938 -1.9970703125 c 0,27,28
 303 -2 303 -2 291.336914062 9.2119140625 c 0,29,30
 283.510742188 16.6591796875 283.510742188 16.6591796875 280.127929688 36.2587890625 c 0,31,32
 280 37 280 37 280.1328125 36.904296875 c 2,33,-1
 280.1328125 220.197265625 l 1,34,-1
 63.439453125 222.22265625 l 2,35,36
 48 222 48 222 36.7939453125 233.473632812 c 0,37,38
 25.68359375 245.337890625 25.68359375 245.337890625 25.5478515625 260.12109375 c 2,39,-1
 25.001953125 319.630859375 l 1,40,-1
 25 319.981445312 l 2,41,42
 25 329.5703125 25 329.5703125 29.5185546875 338.01953125 c 2,43,-1
 214.340820312 683.623046875 l 2,44,45
 219 692 219 692 228.513671875 697.8046875 c 0,46,47
 237.571289062 703.719726562 237.571289062 703.719726562 247.63671875 703.833984375 c 2,48,-1
 317.9453125 704.631835938 l 2,0,1
280.12890625 627.697265625 m 1,49,-1
 271.126953125 627.590820312 l 1,50,-1
 101.590820312 310.555664062 l 1,51,-1
 101.701171875 298.364257812 l 1,52,-1
 280.12890625 296.6953125 l 1,53,-1
 280.12890625 627.697265625 l 1,49,-1
EndSplineSet
EndChar

StartChar: six
Encoding: 54 54 28
Width: 490
VWidth: 0
Flags: W
LayerCount: 2
Fore
SplineSet
232.51171875 700 m 1,0,-1
 400.317382812 700 l 2,1,2
 441 700 441 700 440.576171875 660.305664062 c 0,3,4
 441 621 441 621 400.870117188 620.587890625 c 0,5,-1
 232.489257812 620.599609375 l 2,6,7
 192 621 192 621 147.6640625 580.6640625 c 0,8,9
 104.388671875 541.353515625 104.388671875 541.353515625 104.388671875 503.80859375 c 2,10,-1
 104.388671875 424.06640625 l 1,11,-1
 232.258789062 424.837890625 l 1,12,-1
 232.51171875 424.837890625 l 2,13,14
 295 425 295 425 334.241210938 413.288085938 c 0,15,16
 380 400 380 400 404.80859375 367.064453125 c 0,17,18
 439 322 439 322 440.022460938 195.147460938 c 0,19,-1
 440.022460938 194.916992188 l 2,20,21
 440 104 440 104 386.590820312 51.7666015625 c 0,22,23
 334 1 334 1 233.525390625 -1.2060546875 c 0,24,25
 128 -3 128 -3 75.392578125 51.14453125 c 0,26,27
 25 103 25 103 25 194.755859375 c 0,28,-1
 25 194.836914062 l 1,29,-1
 25 503.80859375 l 2,30,31
 25 576 25 576 94.2314453125 639.358398438 c 0,32,33
 161 700 161 700 232.51171875 700 c 1,0,-1
232.418945312 345.426757812 m 2,34,-1
 104.388671875 344.57421875 l 1,35,-1
 104.388671875 194.836914062 l 2,36,37
 104.561523438 135.046875 104.561523438 135.046875 132.325195312 106.51171875 c 0,38,39
 162.715820312 75.2470703125 162.715820312 75.2470703125 230.876953125 78.056640625 c 0,40,-1
 232.51171875 78.056640625 l 2,41,42
 299.786132812 78.056640625 299.786132812 78.056640625 331.29296875 108.676757812 c 0,43,44
 360.553710938 137.120117188 360.553710938 137.120117188 360.611328125 194.6875 c 0,45,46
 359.943359375 294.98828125 359.943359375 294.98828125 341.6796875 318.905273438 c 0,47,48
 332.479492188 330.997070312 332.479492188 330.997070312 311.6015625 337.21484375 c 0,49,50
 284.194335938 345.379882812 284.194335938 345.379882812 232.418945312 345.426757812 c 2,34,-1
EndSplineSet
EndChar

StartChar: five
Encoding: 53 53 29
Width: 491
VWidth: 0
Flags: W
LayerCount: 2
Fore
SplineSet
65.26953125 700 m 1,0,-1
 400.962890625 700 l 2,1,2
 441 700 441 700 441.232421875 660.293945312 c 0,3,4
 441 621 441 621 401.526367188 620.588867188 c 0,5,-1
 104.96484375 620.588867188 l 1,6,-1
 104.96484375 487.956054688 l 1,7,-1
 104.96484375 487.333984375 l 2,8,9
 105 467 105 467 110.3203125 461.815429688 c 0,10,11
 119 454 119 454 149.6328125 453.293945312 c 0,12,-1
 149.875 453.293945312 l 2,13,14
 162 453 162 453 209.354492188 451.888671875 c 0,15,16
 241 451 241 451 267.66796875 450.495117188 c 0,17,18
 342 450 342 450 389.642578125 398.697265625 c 0,19,20
 441 343 441 343 440.666992188 242.591796875 c 0,21,22
 441 137 441 137 401.815429688 73.7734375 c 0,23,24
 355.825195312 -1.28515625 355.825195312 -1.28515625 265.654296875 -1.28515625 c 2,25,-1
 65.26953125 -1.28515625 l 2,26,27
 25 -1 25 -1 25 38.419921875 c 128,-1,28
 25 78 25 78 64.7060546875 78.1259765625 c 0,29,-1
 266.506835938 78.1259765625 l 1,30,-1
 267.357421875 78.1259765625 l 2,31,32
 311 78 311 78 334.125 115.263671875 c 0,33,34
 361 160 361 160 361.267578125 242.591796875 c 0,35,36
 361 312 361 312 331.016601562 345.115234375 c 0,37,38
 307 371 307 371 267.66796875 371.095703125 c 0,39,-1
 266.966796875 371.095703125 l 2,40,41
 246 371 246 371 207.453125 372.48828125 c 0,42,43
 176 373 176 373 148.551757812 373.881835938 c 0,44,45
 86 375 86 375 54.9521484375 404.905273438 c 0,46,47
 25.5654296875 433.421875 25.5654296875 433.421875 25.5654296875 488.577148438 c 2,48,-1
 25.5654296875 660.293945312 l 2,49,50
 26 700 26 700 65.26953125 700 c 1,0,-1
EndSplineSet
EndChar

StartChar: seven
Encoding: 55 55 30
Width: 491
VWidth: 0
Flags: W
LayerCount: 2
Fore
SplineSet
66.1708984375 704 m 2,0,-1
 400.501953125 704 l 2,1,2
 441.037109375 703.94140625 441.037109375 703.94140625 441.037109375 663.405273438 c 0,3,4
 441.037109375 654.446289062 441.037109375 654.446289062 437.293945312 646.357421875 c 2,5,-1
 146.490234375 18.3623046875 l 2,6,7
 135.563476562 -5.1494140625 135.563476562 -5.1494140625 109.662109375 -5.1494140625 c 0,8,9
 69.056640625 -5.1494140625 69.056640625 -5.1494140625 69.056640625 35.4453125 c 0,10,11
 69.056640625 44.3935546875 69.056640625 44.3935546875 72.8349609375 52.5283203125 c 2,12,-1
 336.92578125 622.810546875 l 1,13,-1
 66.1708984375 622.810546875 l 2,14,15
 25 622.810546875 25 622.810546875 25 663.405273438 c 128,-1,16
 25 704 25 704 66.1708984375 704 c 2,0,-1
EndSplineSet
EndChar

StartChar: eight
Encoding: 56 56 31
Width: 483
VWidth: 0
Flags: W
LayerCount: 2
Fore
SplineSet
229.4140625 704 m 132,-1,1
 313.3125 704 313.3125 704 373.604492188 647.814453125 c 132,-1,2
 433.884765625 591.62890625 433.884765625 591.62890625 433.828125 513.719726562 c 4,3,4
 433.7265625 415.153320312 433.7265625 415.153320312 340.25390625 354.13671875 c 5,5,6
 373.525390625 329.497070312 373.525390625 329.497070312 375.9296875 326.866210938 c 4,7,8
 433.828125 263.409179688 433.828125 263.409179688 433.828125 191.51171875 c 4,9,10
 433.828125 119.91015625 433.828125 119.91015625 374.250976562 59.583984375 c 4,11,12
 311.690429688 -3.748046875 311.690429688 -3.748046875 229.4140625 -3.748046875 c 132,-1,13
 147.137695312 -3.748046875 147.137695312 -3.748046875 84.5771484375 59.583984375 c 4,14,15
 25 119.91015625 25 119.91015625 25 191.51171875 c 132,-1,16
 25 263.306640625 25 263.306640625 83.2841796875 326.9453125 c 4,17,18
 85.49609375 329.361328125 85.49609375 329.361328125 118.653320312 353.98828125 c 5,19,20
 25 414.9609375 25 414.9609375 25 513.788085938 c 4,21,22
 25 591.685546875 25 591.685546875 85.26953125 647.848632812 c 132,-1,0
 145.52734375 704 145.52734375 704 229.4140625 704 c 132,-1,1
229.4140625 625.7734375 m 132,-1,24
 177.42578125 625.7734375 177.42578125 625.7734375 140.3203125 591.265625 c 132,-1,25
 103.21484375 556.7578125 103.21484375 556.7578125 103.21484375 513.788085938 c 4,26,27
 103.21484375 469.842773438 103.21484375 469.842773438 140.387695312 432.838867188 c 132,-1,28
 177.573242188 395.846679688 177.573242188 395.846679688 229.4140625 395.846679688 c 4,29,30
 280.517578125 395.846679688 280.517578125 395.846679688 318.0546875 433.020507812 c 132,-1,31
 355.579101562 470.182617188 355.579101562 470.182617188 355.61328125 513.788085938 c 4,32,33
 355.635742188 556.723632812 355.635742188 556.723632812 318.51953125 591.25390625 c 132,-1,23
 281.390625 625.7734375 281.390625 625.7734375 229.4140625 625.7734375 c 132,-1,24
229.4140625 317.62109375 m 4,34,35
 180.840820312 317.62109375 180.840820312 317.62109375 140.955078125 274.083007812 c 4,36,37
 103.21484375 232.8828125 103.21484375 232.8828125 103.21484375 191.51171875 c 4,38,39
 103.21484375 152.001953125 103.21484375 152.001953125 140.263671875 114.510742188 c 4,40,41
 179.807617188 74.478515625 179.807617188 74.478515625 229.4140625 74.478515625 c 132,-1,42
 279.088867188 74.478515625 279.088867188 74.478515625 318.6328125 114.510742188 c 4,43,44
 355.61328125 151.93359375 355.61328125 151.93359375 355.61328125 191.51171875 c 4,45,46
 355.61328125 233.131835938 355.61328125 233.131835938 318.178710938 274.163085938 c 4,47,48
 278.532226562 317.62109375 278.532226562 317.62109375 229.4140625 317.62109375 c 4,34,35
EndSplineSet
EndChar

StartChar: nine
Encoding: 57 57 32
Width: 490
VWidth: 0
Flags: W
LayerCount: 2
Fore
SplineSet
232.372070312 704 m 0,0,1
 335.298828125 707.926757812 335.298828125 707.926757812 390.1015625 651.581054688 c 0,2,3
 440.390625 599.864257812 440.390625 599.864257812 440.5859375 508.038085938 c 0,4,-1
 440.5859375 507.888671875 l 1,5,-1
 440.5859375 193.051757812 l 2,6,7
 440.5859375 120.802734375 440.5859375 120.802734375 379.173828125 59.666015625 c 0,8,9
 318.00390625 -1.2060546875 318.00390625 -1.2060546875 246.180664062 -1.2060546875 c 2,10,-1
 65.2578125 -1.2060546875 l 2,11,12
 25 -1.216796875 25 -1.216796875 25 38.5 c 128,-1,13
 25 78.20703125 25 78.20703125 64.7041015625 78.20703125 c 0,14,-1
 246.180664062 78.1943359375 l 2,15,16
 285.149414062 78.1943359375 285.149414062 78.1943359375 323.104492188 115.965820312 c 128,-1,17
 361.174804688 153.852539062 361.174804688 153.852539062 361.174804688 193.051757812 c 2,18,-1
 361.174804688 302.541992188 l 1,19,-1
 233.3046875 301.770507812 l 1,20,-1
 232.983398438 301.770507812 l 2,21,22
 111.021484375 301.885742188 111.021484375 301.885742188 59.443359375 376.518554688 c 0,23,24
 26.0927734375 424.780273438 26.0927734375 424.780273438 25.55078125 507.578125 c 0,25,-1
 25.55078125 507.80859375 l 2,26,27
 25.55078125 599.126953125 25.55078125 599.126953125 78.9833984375 651.0390625 c 0,28,29
 133.258789062 703.78125 133.258789062 703.78125 232.372070312 704 c 0,0,1
234.69921875 624.749023438 m 0,30,31
 165.708007812 624.668945312 165.708007812 624.668945312 134.270507812 594.118164062 c 0,32,33
 105.008789062 565.685546875 105.008789062 565.685546875 104.96484375 507.958007812 c 0,34,35
 105.366210938 449.665039062 105.366210938 449.665039062 124.737304688 421.66015625 c 0,36,37
 152.638671875 381.262695312 152.638671875 381.262695312 233.0625 381.170898438 c 2,38,-1
 361.174804688 382.0234375 l 1,39,-1
 361.174804688 507.80859375 l 2,40,41
 361.025390625 567.59765625 361.025390625 567.59765625 333.1796875 596.213867188 c 0,42,43
 302.6875 627.559570312 302.6875 627.559570312 234.69921875 624.749023438 c 0,30,31
EndSplineSet
EndChar

StartChar: colon
Encoding: 58 58 33
Width: 363
VWidth: 77
Flags: W
LayerCount: 2
Fore
SplineSet
181.481445312 546.901367188 m 128,-1,1
 207.170898438 546.901367188 207.170898438 546.901367188 218.427734375 535.637695312 c 128,-1,2
 229.685546875 524.374023438 229.685546875 524.374023438 229.685546875 498.743164062 c 128,-1,3
 229.669921875 473.060546875 229.669921875 473.060546875 218.401367188 461.8046875 c 128,-1,4
 207.131835938 450.548828125 207.131835938 450.548828125 181.5 450.548828125 c 128,-1,5
 155.8203125 450.548828125 155.8203125 450.548828125 144.567382812 461.811523438 c 128,-1,6
 133.314453125 473.075195312 133.314453125 473.075195312 133.314453125 498.715820312 c 128,-1,7
 133.314453125 524.395507812 133.314453125 524.395507812 144.577148438 535.6484375 c 128,-1,0
 155.840820312 546.901367188 155.840820312 546.901367188 181.481445312 546.901367188 c 128,-1,1
181.481445312 230.537109375 m 128,-1,9
 207.151367188 230.537109375 207.151367188 230.537109375 218.41015625 219.272460938 c 128,-1,10
 229.669921875 208.006835938 229.669921875 208.006835938 229.685546875 182.379882812 c 128,-1,11
 229.669921875 156.70703125 229.669921875 156.70703125 218.40234375 145.456054688 c 128,-1,12
 207.1328125 134.204101562 207.1328125 134.204101562 181.5 134.204101562 c 128,-1,13
 155.8203125 134.204101562 155.8203125 134.204101562 144.567382812 145.466796875 c 128,-1,14
 133.314453125 156.73046875 133.314453125 156.73046875 133.314453125 182.37109375 c 128,-1,15
 133.314453125 208.040039062 133.314453125 208.040039062 144.577148438 219.288085938 c 128,-1,8
 155.83984375 230.537109375 155.83984375 230.537109375 181.481445312 230.537109375 c 128,-1,9
EndSplineSet
EndChar

StartChar: equal
Encoding: 61 61 34
Width: 684
VWidth: 0
Flags: W
LayerCount: 2
Fore
SplineSet
148.601988321 530.45703125 m 2,0,-1
 536.825445158 530.457031554 l 2,1,2
 574.92578125 530.467523289 574.92578125 530.467523289 574.92578125 493 c 128,-1,3
 574.92578125 455.542968746 574.92578125 455.542968746 537.469008542 455.542968746 c 2,4,-1
 148.600336092 455.555663758 l 2,5,6
 110.5 455.545172023 110.5 455.545172023 110.5 493 c 128,-1,7
 110.5 530.45703125 110.5 530.45703125 148.601988321 530.45703125 c 2,0,-1
148.602539062 300.244140625 m 2,8,-1
 536.823242188 300.244140625 l 2,9,10
 574.92578125 300.244140625 574.92578125 300.244140625 574.92578125 262.787109375 c 128,-1,11
 574.92578125 225.330078125 574.92578125 225.330078125 537.46875 225.330078125 c 2,12,-1
 148.602539062 225.330078125 l 2,13,14
 110.5 225.330078125 110.5 225.330078125 110.5 262.787109375 c 128,-1,15
 110.5 300.244140625 110.5 300.244140625 148.602539062 300.244140625 c 2,8,-1
EndSplineSet
EndChar

StartChar: percent
Encoding: 37 37 35
Width: 678
VWidth: 0
Flags: W
LayerCount: 2
Fore
SplineSet
94.9658203125 -28.58203125 m 2,0,-1
 508.405273438 773.862304688 l 2,1,2
 520.081054688 796.748046875 520.081054688 796.748046875 545.64453125 797.5 c 0,3,4
 590.274414062 797.5 590.274414062 797.5 590.274414062 754.189453125 c 0,5,6
 590.274414062 743.158203125 590.274414062 743.158203125 584.963867188 733.407226562 c 2,7,-1
 171.629882812 -69.11328125 l 2,8,9
 159.400390625 -92.19921875 159.400390625 -92.19921875 133.30078125 -92.19921875 c 0,10,11
 89.9345703125 -92.19921875 89.9345703125 -92.19921875 89.9345703125 -48.8466796875 c 0,12,13
 89.9345703125 -38.078125 89.9345703125 -38.078125 94.9658203125 -28.58203125 c 2,0,-1
107.5234375 530.724609375 m 128,-1,15
 75.279296875 563.041992188 75.279296875 563.041992188 75.279296875 628.122070312 c 0,16,17
 75.279296875 757.921875 75.279296875 757.921875 204.599019954 757.921875 c 0,18,19
 329.624221343 757.921875 329.624221343 757.921875 329.624221343 628.122070312 c 128,-1,20
 329.624221343 498.40625 329.624221343 498.40625 204.599019954 498.40625 c 0,21,14
 139.768554688 498.40625 139.768554688 498.40625 107.5234375 530.724609375 c 128,-1,15
204.599019954 550.915039062 m 0,22,23
 279.116212619 550.915039062 279.116212619 550.915039062 279.116212619 628.122070312 c 128,-1,24
 279.116212619 705.4140625 279.116212619 705.4140625 204.599019954 705.4140625 c 0,25,26
 127.702148438 705.4140625 127.702148438 705.4140625 127.702148438 628.122070312 c 128,-1,27
 127.702148438 550.915039062 127.702148438 550.915039062 204.599019954 550.915039062 c 0,22,23
473.400980046 -52.55078125 m 0,28,29
 348.375778657 -52.55078125 348.375778657 -52.55078125 348.375778657 77.1640625 c 128,-1,30
 348.375778657 206.865234375 348.375778657 206.865234375 473.400980046 206.865234375 c 0,31,32
 602.720703125 206.865234375 602.720703125 206.865234375 602.720703125 77.1640625 c 128,-1,33
 602.720703125 -52.55078125 602.720703125 -52.55078125 473.400980046 -52.55078125 c 0,28,29
473.400980046 -0.1416015625 m 0,34,35
 550.212890625 -0.1416015625 550.212890625 -0.1416015625 550.212890625 77.1640625 c 128,-1,36
 550.212890625 154.45703125 550.212890625 154.45703125 473.400980046 154.45703125 c 0,37,38
 398.883787381 154.45703125 398.883787381 154.45703125 398.883787381 77.1640625 c 128,-1,39
 398.883787381 -0.1416015625 398.883787381 -0.1416015625 473.400980046 -0.1416015625 c 0,34,35
EndSplineSet
EndChar

StartChar: question
Encoding: 63 63 36
Width: 473
VWidth: 0
Flags: W
LayerCount: 2
Fore
SplineSet
61.7900390625 700.083007812 m 2,0,-1
 274.94921875 700.081054688 l 2,1,2
 344.754882812 700.081054688 344.754882812 700.081054688 386.888671875 650.373046875 c 0,3,4
 423.609375 607.05078125 423.609375 607.05078125 423.71484375 545.856445312 c 128,-1,5
 423.821289062 484.590820312 423.821289062 484.590820312 387.1640625 441.245117188 c 0,6,7
 345.09765625 391.500976562 345.09765625 391.500976562 275.091796875 391.500976562 c 0,8,9
 230.693359375 391.500976562 230.693359375 391.500976562 207.904296875 380.041015625 c 0,10,11
 193.168945312 372.630859375 193.168945312 372.630859375 187.108398438 358.630859375 c 0,12,13
 184.72265625 353.119140625 184.72265625 353.119140625 183.260742188 345.899414062 c 0,14,15
 181.740234375 338.395507812 181.740234375 338.395507812 181.219726562 327.51953125 c 0,16,17
 180.669921875 316.049804688 180.669921875 316.049804688 180.57421875 308.065429688 c 128,-1,18
 180.477539062 300.02734375 180.477539062 300.02734375 180.69140625 284.084960938 c 128,-1,19
 180.909179688 267.944335938 180.909179688 267.944335938 180.909179688 260.541015625 c 2,20,-1
 180.911132812 199.809570312 l 2,21,22
 180.911132812 184.66796875 180.911132812 184.66796875 170.198242188 173.95703125 c 128,-1,23
 159.486328125 163.244140625 159.486328125 163.244140625 144.345703125 163.244140625 c 128,-1,24
 129.204101562 163.244140625 129.204101562 163.244140625 118.493164062 173.956054688 c 128,-1,25
 107.782226562 184.666015625 107.782226562 184.666015625 107.782226562 200.134765625 c 2,26,-1
 107.782226562 260.541015625 l 2,27,28
 107.782226562 267.036132812 107.782226562 267.036132812 107.08984375 287.87109375 c 0,29,30
 106.383789062 309.1328125 106.383789062 309.1328125 106.595703125 321.146484375 c 0,31,32
 106.81640625 333.6484375 106.81640625 333.6484375 109.942382812 352.50390625 c 0,33,34
 113.151367188 371.85546875 113.151367188 371.85546875 119.999023438 387.67578125 c 0,35,36
 136.603515625 426.0390625 136.603515625 426.0390625 175.051757812 445.373046875 c 128,-1,37
 213.336914062 464.625 213.336914062 464.625 275.091796875 464.625 c 0,38,39
 311.166992188 464.625 311.166992188 464.625 331.326171875 488.463867188 c 0,40,41
 350.651367188 511.317382812 350.651367188 511.317382812 350.591796875 545.729492188 c 128,-1,42
 350.532226562 580.169921875 350.532226562 580.169921875 331.10546875 603.087890625 c 0,43,44
 310.873046875 626.958007812 310.873046875 626.958007812 274.94921875 626.958007812 c 2,45,-1
 61.5654296875 626.954101562 l 2,46,47
 46.423828125 626.954101562 46.423828125 626.954101562 35.712890625 637.666992188 c 128,-1,48
 25 648.37890625 25 648.37890625 25 663.51953125 c 128,-1,49
 25 678.661132812 25 678.661132812 35.7119140625 689.372070312 c 128,-1,50
 46.421875 700.083007812 46.421875 700.083007812 61.7900390625 700.083007812 c 2,0,-1
144.2421875 72.5380859375 m 128,-1,52
 159.456054688 72.5380859375 159.456054688 72.5380859375 170.220703125 61.7734375 c 128,-1,53
 180.986328125 51.0087890625 180.986328125 51.0087890625 180.986328125 35.794921875 c 128,-1,54
 180.986328125 20.578125 180.986328125 20.578125 170.221679688 9.814453125 c 128,-1,55
 159.458007812 -0.951171875 159.458007812 -0.951171875 144.2421875 -0.9521484375 c 128,-1,56
 129.026367188 -0.9521484375 129.026367188 -0.9521484375 118.260742188 9.8125 c 128,-1,57
 107.49609375 20.5771484375 107.49609375 20.5771484375 107.49609375 35.7919921875 c 128,-1,58
 107.49609375 51.009765625 107.49609375 51.009765625 118.260742188 61.7734375 c 128,-1,51
 129.026367188 72.5380859375 129.026367188 72.5380859375 144.2421875 72.5380859375 c 128,-1,52
EndSplineSet
EndChar

StartChar: a
Encoding: 97 97 37
Width: 436
VWidth: 0
Flags: W
LayerCount: 2
Fore
SplineSet
104.342773438 498.950195312 m 0,0,1
 134.391601562 499.59375 134.391601562 499.59375 156.805664062 499.555664062 c 0,2,3
 240.057427837 499.44140625 240.057427837 499.44140625 278.7265625 491.750976562 c 0,4,5
 312.7734375 484.28125 312.7734375 484.28125 345.850585938 455.647460938 c 0,6,7
 386.631835938 420.323242188 386.631835938 420.323242188 386.590820312 346.486328125 c 2,8,-1
 386.422851562 38.6142578125 l 2,9,10
 386.422851562 28.9892578125 386.422851562 28.9892578125 381.633789062 20.529296875 c 128,-1,11
 376.928710938 12.21484375 376.928710938 12.21484375 368.830078125 6.810546875 c 0,12,13
 361.1796875 1.482421875 361.1796875 1.482421875 351.6015625 0.0712890625 c 0,14,15
 346.528320312 -1.08203125 346.528320312 -1.08203125 342.032226562 -1.08203125 c 0,16,17
 319.501953125 -1.080078125 319.501953125 -1.080078125 277.220703125 -1.8720703125 c 0,18,19
 228.012982308 -2.6689453125 228.012982308 -2.6689453125 205.74051558 -2.4287109375 c 0,20,21
 182.966363546 -2.18359375 182.966363546 -2.18359375 151.983459464 1.001953125 c 0,22,23
 124.471679688 4.1162109375 124.471679688 4.1162109375 105.078125 11.1279296875 c 0,24,25
 59.4619140625 27.6181640625 59.4619140625 27.6181640625 40.501953125 70.3818359375 c 0,26,27
 25 105.349609375 25 105.349609375 25 169.516601562 c 0,28,29
 25 231.5078125 25 231.5078125 72.1220703125 265.833984375 c 0,30,31
 110.311523438 293.654296875 110.311523438 293.654296875 169.818167238 293.723632812 c 2,32,-1
 306.438476562 293.844726562 l 1,33,-1
 306.466796875 343.997070312 l 2,34,35
 306.475585938 359.546875 306.475585938 359.546875 302.409179688 372.947265625 c 128,-1,36
 298.3125 386.451171875 298.3125 386.451171875 295.482421875 390.928710938 c 2,37,-1
 292.010742188 395.889648438 l 2,38,39
 289.471679688 398.088867188 289.471679688 398.088867188 285.698242188 401.432617188 c 0,40,41
 281.71484375 404.96484375 281.71484375 404.96484375 280.852539062 405.625976562 c 128,-1,42
 279.841796875 406.399414062 279.841796875 406.399414062 276.931640625 408.463867188 c 2,43,-1
 274.375 409.993164062 l 2,44,45
 272.192382812 410.727539062 272.192382812 410.727539062 268.578125 411.87890625 c 128,-1,46
 265.083794607 412.901367188 265.083794607 412.901367188 259.494069552 413.88671875 c 0,47,48
 219.661995521 420.907226562 219.661995521 420.907226562 106.053710938 418.838867188 c 0,49,50
 105.401367188 418.81640625 105.401367188 418.81640625 104.73046875 418.81640625 c 0,51,52
 88.1396484375 418.81640625 88.1396484375 418.81640625 76.4013671875 430.555664062 c 128,-1,53
 64.6630859375 442.293945312 64.6630859375 442.293945312 64.6630859375 458.884765625 c 128,-1,54
 64.6630859375 475.354492188 64.6630859375 475.354492188 76.3037109375 487.087890625 c 128,-1,55
 87.9443359375 498.821289062 87.9443359375 498.821289062 104.342773438 498.950195312 c 0,0,1
306.315429688 68.4755859375 m 1,56,-1
 306.393554688 217.93359375 l 1,57,-1
 172.112254389 217.80859375 l 2,58,59
 137.497070312 217.770507812 137.497070312 217.770507812 120.815429688 205.0078125 c 0,60,61
 105.135742188 193.010742188 105.135742188 193.010742188 105.135742188 167.490234375 c 0,62,63
 105.135742188 116.3125 105.135742188 116.3125 114.329101562 94.5361328125 c 0,64,65
 117.91015625 86.05078125 117.91015625 86.05078125 121.450195312 82.6884765625 c 128,-1,66
 125.048828125 79.271484375 125.048828125 79.271484375 133.526367188 76.052734375 c 0,67,68
 156.843314537 67.9765625 156.843314537 67.9765625 297.026367188 68.4404296875 c 0,69,70
 301.80859375 68.458984375 301.80859375 68.458984375 306.315429688 68.4755859375 c 1,56,-1
EndSplineSet
EndChar

StartChar: uni02CB
Encoding: 715 715 38
Width: 249
Flags: W
LayerCount: 2
Fore
SplineSet
36.2841796875 675.752929688 m 0,0,1
 47.7890625 686.969726562 47.7890625 686.969726562 63.89453125 687.396484375 c 0,2,3
 80.2080078125 687.896484375 80.2080078125 687.896484375 91.9560546875 675.87890625 c 2,4,-1
 187.740234375 580.08984375 l 2,5,6
 199.350585938 568.752929688 199.350585938 568.752929688 199.575195312 552.014648438 c 0,7,8
 199.350585938 535.401367188 199.350585938 535.401367188 188.092773438 524.286132812 c 0,9,10
 177.108398438 513.158203125 177.108398438 513.158203125 160.361328125 512.801757812 c 0,11,12
 143.760742188 513.158203125 143.760742188 513.158203125 132.633789062 524.286132812 c 2,13,-1
 36.748046875 620.174804688 l 2,14,15
 25.53125 631.38671875 25.53125 631.38671875 25.013671875 647.685546875 c 0,16,17
 24.607421875 663.784179688 24.607421875 663.784179688 36.2841796875 675.752929688 c 0,0,1
EndSplineSet
EndChar

StartChar: backslash
Encoding: 92 92 39
Width: 638
VWidth: 79
Flags: W
LayerCount: 2
Fore
SplineSet
168.895816857 784.485785932 m 2,0,1
 192.996172227 783.821464086 192.996172227 783.821464086 204.072923622 762.195560903 c 2,2,-1
 536.936615186 76.2191971108 l 1,3,-1
 537.095354173 75.9306445991 l 2,4,5
 542.200195312 66.5149471101 542.200195312 66.5149471101 542.200195312 56.1884765625 c 0,6,7
 542.200195312 34.1548343006 542.200195312 34.1548343006 532.78026965 24.7371593452 c 128,-1,8
 523.3601955 15.3193359375 523.3601955 15.3193359375 501.318359375 15.3193359375 c 0,9,10
 476.225662798 15.3193359375 476.225662798 15.3193359375 464.810779914 37.8147299404 c 2,11,-1
 131.95747931 723.772461463 l 2,12,13
 126.799804688 733.149420045 126.799804688 733.149420045 126.799804688 743.637695312 c 0,14,15
 126.799804688 765.656562758 126.799804688 765.656562758 136.219438801 775.081887009 c 128,-1,16
 145.638697819 784.506835938 145.638697819 784.506835938 167.559562499 784.506835938 c 2,17,-1
 168.895816857 784.485785932 l 2,0,1
EndSplineSet
EndChar

StartChar: b
Encoding: 98 98 40
Width: 436
VWidth: 0
Flags: W
LayerCount: 2
Fore
SplineSet
36.7421875 690.133789062 m 128,-1,1
 48.4833984375 701.875 48.4833984375 701.875 65.8037109375 701.875 c 0,2,3
 82.0517578125 701.631835938 82.0517578125 701.631835938 93.609375 689.900390625 c 128,-1,4
 105.166015625 678.16796875 105.166015625 678.16796875 105.162109375 661.37890625 c 2,5,-1
 105.162109375 499.844726562 l 1,6,7
 190.108025496 500.270507812 190.108025496 500.270507812 212.505134609 498.81640625 c 0,8,9
 278.875976562 494.528320312 278.875976562 494.528320312 319.502929688 467.54296875 c 0,10,11
 367.14453125 435.899414062 367.14453125 435.899414062 380.663085938 350.234375 c 0,12,13
 386.833007812 311.139648438 386.833007812 311.139648438 386.94140625 235.337890625 c 0,14,15
 387.036132812 176.828125 387.036132812 176.828125 374.524414062 123.70703125 c 0,16,17
 365.841796875 86.8427734375 365.841796875 86.8427734375 353.932617188 63.1337890625 c 0,18,19
 341.109375 37.60546875 341.109375 37.60546875 314.2109375 23.1025390625 c 0,20,21
 303.026367188 17.072265625 303.026367188 17.072265625 291.723632812 12.7841796875 c 0,22,23
 280.083007812 8.3671875 280.083007812 8.3671875 263.518871362 5.697265625 c 0,24,25
 245.362879303 3.0771484375 245.362879303 3.0771484375 233.219953619 1.5546875 c 0,26,27
 220.435256677 -0.0478515625 220.435256677 -0.0478515625 193.31098316 -0.6279296875 c 0,28,29
 166.874490238 -1.193359375 166.874490238 -1.193359375 153.573073054 -1.2958984375 c 0,30,31
 141.094726562 -1.396484375 141.094726562 -1.396484375 110.64453125 -1.224609375 c 128,-1,32
 80.2998046875 -1.052734375 80.2998046875 -1.052734375 65.869140625 -1.052734375 c 0,33,34
 61.90625 -1.0458984375 61.90625 -1.0458984375 57.3271484375 0.06640625 c 0,35,36
 53.048828125 1.1064453125 53.048828125 1.1064453125 49.0205078125 2.890625 c 0,37,38
 44.7138671875 4.798828125 44.7138671875 4.798828125 41.6572265625 7.1396484375 c 0,39,40
 40.9580078125 7.6513671875 40.9580078125 7.6513671875 40.279296875 8.203125 c 0,41,42
 25.03515625 19.78515625 25.03515625 19.78515625 25.0029296875 38.66015625 c 2,43,-1
 25 661.797851562 l 2,44,0
 25 678.392578125 25 678.392578125 36.7421875 690.133789062 c 128,-1,1
204.944266961 418.875 m 0,45,46
 185.586133517 420.130859375 185.586133517 420.130859375 146.320114043 419.93359375 c 0,47,48
 146.040518843 419.93359375 146.040518843 419.93359375 124.626953125 419.793945312 c 0,49,50
 114.134765625 419.725585938 114.134765625 419.725585938 105.163085938 419.670898438 c 1,51,-1
 105.163085938 58.23046875 l 1,52,53
 179.955298552 58.5224609375 179.955298552 58.5224609375 218.315288013 61.1201171875 c 0,54,55
 256.062999379 63.67578125 256.062999379 63.67578125 274.146484375 72.26171875 c 0,56,57
 275.811523438 74.400390625 275.811523438 74.400390625 277.806640625 77.61328125 c 0,58,59
 281.932617188 84.2529296875 281.932617188 84.2529296875 287.524414062 97.693359375 c 128,-1,60
 293.094726562 111.084960938 293.094726562 111.084960938 296.323242188 125.380859375 c 0,61,62
 306.8671875 172.060546875 306.8671875 172.060546875 306.78125 223.986328125 c 0,63,64
 306.661132812 297.185546875 306.661132812 297.185546875 301.413085938 331.903320312 c 0,65,66
 293.073242188 387 293.073242188 387 273.860351562 400.3046875 c 0,67,68
 247.756544533 416.094726562 247.756544533 416.094726562 204.944266961 418.875 c 0,45,46
EndSplineSet
EndChar

StartChar: c
Encoding: 99 99 41
Width: 433
VWidth: 0
Flags: W
LayerCount: 2
Fore
SplineSet
205.41913913 499.836914062 m 0,0,1
 220.191568117 500.625 220.191568117 500.625 238.511280815 500.776367188 c 0,2,3
 255.610946503 500.92578125 255.610946503 500.92578125 289.611328125 500.350585938 c 0,4,5
 322.049804688 499.780273438 322.049804688 499.780273438 341.661132812 499.80859375 c 0,6,7
 359.067382812 499.813476562 359.067382812 499.813476562 371.037109375 487.844726562 c 128,-1,8
 383.004882812 475.876953125 383.004882812 475.876953125 383.004882812 458.961914062 c 128,-1,9
 383.004882812 442.047851562 383.004882812 442.047851562 371.037109375 430.080078125 c 128,-1,10
 359.069335938 418.112304688 359.069335938 418.112304688 342.16796875 418.112304688 c 0,11,12
 321.181640625 418.0859375 321.181640625 418.0859375 292.150390625 418.536132812 c 128,-1,13
 263.259765625 418.984375 263.259765625 418.984375 249.802952509 419.047851562 c 128,-1,14
 236.51073635 419.109375 236.51073635 419.109375 211.699945889 418.311523438 c 0,15,16
 167.510959881 416.08984375 167.510959881 416.08984375 140.6015625 401.1484375 c 0,17,18
 120.60546875 388.111328125 120.60546875 388.111328125 112.176757812 337.830078125 c 0,19,20
 106.8046875 305.779296875 106.8046875 305.779296875 106.701171875 236.946289062 c 0,21,22
 106.6015625 180.125976562 106.6015625 180.125976562 114.34765625 143.487304688 c 0,23,24
 118.625 123.262695312 118.625 123.262695312 126.1328125 109.196289062 c 0,25,26
 132.813476562 96.6826171875 132.813476562 96.6826171875 137.229492188 94.40234375 c 0,27,28
 166.155783177 82.734375 166.155783177 82.734375 219.657226562 80.6767578125 c 0,29,30
 230.112304688 80.0888671875 230.112304688 80.0888671875 342.577148438 80.7958984375 c 0,31,32
 359.036132812 80.7958984375 359.036132812 80.7958984375 371.00390625 68.8271484375 c 128,-1,33
 382.971679688 56.8583984375 382.971679688 56.8583984375 382.971679688 39.9453125 c 128,-1,34
 382.971679688 23.03125 382.971679688 23.03125 371.00390625 11.0634765625 c 128,-1,35
 359.036132812 -0.904296875 359.036132812 -0.904296875 342.154296875 -0.904296875 c 0,36,37
 228.083007812 -1.6201171875 228.083007812 -1.6201171875 215.060546875 -0.8876953125 c 0,38,39
 136.743164062 2.2080078125 136.743164062 2.2080078125 97.93359375 22.63671875 c 0,40,41
 50.501953125 47.6064453125 50.501953125 47.6064453125 34.2177734375 126.116210938 c 0,42,43
 24.8876953125 171.095703125 24.8876953125 171.095703125 25.0009765625 236.81640625 c 0,44,45
 25.1123046875 313.076171875 25.1123046875 313.076171875 31.4736328125 351.772460938 c 0,46,47
 45.3515625 436.166992188 45.3515625 436.166992188 94.0849609375 468.559570312 c 0,48,49
 135.609375 496.157226562 135.609375 496.157226562 205.41913913 499.836914062 c 0,0,1
EndSplineSet
EndChar

StartChar: d
Encoding: 100 100 42
Width: 436
VWidth: 0
Flags: W
LayerCount: 2
Fore
SplineSet
318.333984375 689.901367188 m 128,-1,1
 329.890625 701.631835938 329.890625 701.631835938 346.138671875 701.875 c 0,2,3
 363.458984375 701.875 363.458984375 701.875 375.19921875 690.133789062 c 128,-1,4
 386.942382812 678.392578125 386.942382812 678.392578125 386.942382812 661.797851562 c 2,5,-1
 386.939453125 38.6435546875 l 2,6,7
 386.907226562 19.78515625 386.907226562 19.78515625 371.663085938 8.203125 c 0,8,9
 370.984375 7.6513671875 370.984375 7.6513671875 370.28515625 7.1396484375 c 0,10,11
 367.228515625 4.798828125 367.228515625 4.798828125 362.918945312 2.8896484375 c 0,12,13
 358.893554688 1.1064453125 358.893554688 1.1064453125 354.61328125 0.06640625 c 0,14,15
 350.036132812 -1.0458984375 350.036132812 -1.0458984375 346.0546875 -1.052734375 c 0,16,17
 331.639648438 -1.052734375 331.639648438 -1.052734375 301.297851562 -1.224609375 c 128,-1,18
 270.84765625 -1.396484375 270.84765625 -1.396484375 258.368130032 -1.2958984375 c 0,19,20
 245.067892574 -1.193359375 245.067892574 -1.193359375 218.630219926 -0.6279296875 c 0,21,22
 191.507126136 -0.0478515625 191.507126136 -0.0478515625 178.722429193 1.5546875 c 0,23,24
 166.57950351 3.0771484375 166.57950351 3.0771484375 148.42351145 5.697265625 c 0,25,26
 131.859375 8.3671875 131.859375 8.3671875 120.21875 12.7841796875 c 0,27,28
 108.916015625 17.072265625 108.916015625 17.072265625 97.732421875 23.1025390625 c 0,29,30
 70.8330078125 37.60546875 70.8330078125 37.60546875 58.009765625 63.134765625 c 0,31,32
 46.1005859375 86.8427734375 46.1005859375 86.8427734375 37.41796875 123.70703125 c 0,33,34
 24.90625 176.828125 24.90625 176.828125 25.0009765625 235.336914062 c 0,35,36
 25.109375 311.139648438 25.109375 311.139648438 31.279296875 350.233398438 c 0,37,38
 44.7978515625 435.899414062 44.7978515625 435.899414062 92.439453125 467.54296875 c 0,39,40
 133.06640625 494.528320312 133.06640625 494.528320312 199.43842793 498.81640625 c 0,41,42
 221.834357316 500.270507812 221.834357316 500.270507812 306.780273438 499.844726562 c 1,43,-1
 306.780273438 661.375976562 l 2,44,0
 306.776367188 678.16796875 306.776367188 678.16796875 318.333984375 689.901367188 c 128,-1,1
287.315429688 419.793945312 m 0,45,46
 265.901863969 419.93359375 265.901863969 419.93359375 265.62226877 419.93359375 c 0,47,48
 226.356249296 420.130859375 226.356249296 420.130859375 206.999295579 418.875 c 0,49,50
 164.18583828 416.094726562 164.18583828 416.094726562 138.081054688 400.3046875 c 0,51,52
 118.869140625 387 118.869140625 387 110.529296875 331.905273438 c 0,53,54
 105.28125 297.185546875 105.28125 297.185546875 105.161132812 223.986328125 c 0,55,56
 105.075195312 172.060546875 105.075195312 172.060546875 115.619140625 125.380859375 c 0,57,58
 118.84765625 111.084960938 118.84765625 111.084960938 124.41796875 97.6943359375 c 128,-1,59
 130.009765625 84.2529296875 130.009765625 84.2529296875 134.135742188 77.6123046875 c 0,60,61
 136.130859375 74.400390625 136.130859375 74.400390625 137.795898438 72.26171875 c 0,62,63
 155.879383433 63.67578125 155.879383433 63.67578125 193.627094799 61.1201171875 c 0,64,65
 231.98708426 58.5224609375 231.98708426 58.5224609375 306.779296875 58.23046875 c 1,66,-1
 306.779296875 419.670898438 l 1,67,68
 297.807617188 419.725585938 297.807617188 419.725585938 287.315429688 419.793945312 c 0,45,46
EndSplineSet
EndChar

StartChar: e
Encoding: 101 101 43
Width: 434
VWidth: 0
Flags: W
LayerCount: 2
Fore
SplineSet
57.9677734375 434.390625 m 0,0,1
 97.564453125 499.588867188 97.564453125 499.588867188 209.904605432 499.588867188 c 0,2,3
 307.765625 499.588867188 307.765625 499.588867188 349.166015625 455.147460938 c 0,4,5
 384.686523438 417.0234375 384.686523438 417.0234375 384.686523438 344.395507812 c 0,6,7
 384.686523438 307.424804688 384.686523438 307.424804688 369.252929688 279.111328125 c 0,8,9
 353.603515625 250.403320312 353.603515625 250.403320312 327.22265625 235.680664062 c 0,10,11
 291.84375 215.934570312 291.84375 215.934570312 221.363399411 215.859375 c 2,12,-1
 108.234375 215.740234375 l 1,13,14
 109.258789062 118.568359375 109.258789062 118.568359375 126.548828125 95.2802734375 c 0,15,16
 131.67578125 88.375 131.67578125 88.375 134.18359375 86.8720703125 c 0,17,18
 138.03125 85.26953125 138.03125 85.26953125 154.654860696 83.185546875 c 0,19,20
 192.391304495 78.8369140625 192.391304495 78.8369140625 322.346679688 81.2275390625 c 0,21,22
 322.973632812 81.2490234375 322.973632812 81.2490234375 323.674804688 81.2490234375 c 0,23,24
 340.534179688 81.2490234375 340.534179688 81.2490234375 352.463867188 69.3193359375 c 128,-1,25
 364.393554688 57.390625 364.393554688 57.390625 364.393554688 40.5302734375 c 0,26,27
 364.393554688 29.5791015625 364.393554688 29.5791015625 358.971679688 20.201171875 c 128,-1,28
 353.579101562 10.876953125 353.579101562 10.876953125 344.30078125 5.40625 c 128,-1,29
 334.971679688 -0.0947265625 334.971679688 -0.0947265625 324.0859375 -0.1865234375 c 0,30,31
 186.249154048 -2.8408203125 186.249154048 -2.8408203125 141.150390625 2.7099609375 c 0,32,33
 87.171875 10.3056640625 87.171875 10.3056640625 60.0595703125 47.1005859375 c 0,34,35
 46.7314453125 65.19140625 46.7314453125 65.19140625 38.6796875 86.494140625 c 128,-1,36
 30.6552734375 107.723632812 30.6552734375 107.723632812 28.0927734375 133.328125 c 0,37,38
 25.6220703125 158.009765625 25.6220703125 158.009765625 25.1494140625 175.063476562 c 128,-1,39
 24.67578125 192.07421875 24.67578125 192.07421875 25.7099609375 221.206054688 c 0,40,41
 26.7265625 249.870117188 26.7265625 249.870117188 26.748046875 260.23046875 c 0,42,43
 26.8759765625 322.465820312 26.8759765625 322.465820312 33.0830078125 362.60546875 c 0,44,45
 39.4755859375 403.934570312 39.4755859375 403.934570312 57.9677734375 434.390625 c 0,0,1
288.258789062 398.870117188 m 0,46,47
 271.149414062 418.155273438 271.149414062 418.155273438 209.904605432 418.155273438 c 0,48,49
 169.972336926 418.155273438 169.972336926 418.155273438 152.077668375 411.8125 c 0,50,51
 137.270507812 405.981445312 137.270507812 405.981445312 128.336914062 390.646484375 c 0,52,53
 111.865234375 362.368164062 111.865234375 362.368164062 108.853515625 282.922851562 c 1,54,-1
 221.250884121 283.046875 l 2,55,56
 269.696289062 283.096679688 269.696289062 283.096679688 286.053710938 292.685546875 c 0,57,58
 294.904296875 297.872070312 294.904296875 297.872070312 298.940429688 305.951171875 c 0,59,60
 303.262695312 314.60546875 303.262695312 314.60546875 303.262695312 336.602539062 c 0,61,62
 303.262695312 381.959960938 303.262695312 381.959960938 288.258789062 398.870117188 c 0,46,47
EndSplineSet
EndChar

StartChar: f
Encoding: 102 102 44
Width: 393
VWidth: 0
Flags: W
LayerCount: 2
Fore
SplineSet
245.017546231 699.254882812 m 0,0,1
 277.404296875 702.21875 277.404296875 702.21875 353.42578125 702.21875 c 0,2,3
 370.22265625 702.21875 370.22265625 702.21875 381.979492188 690.462890625 c 128,-1,4
 393.735351562 678.70703125 393.735351562 678.70703125 393.735351562 662.091796875 c 128,-1,5
 393.735351562 645.477539062 393.735351562 645.477539062 381.978515625 633.719726562 c 128,-1,6
 370.223632812 621.965820312 370.223632812 621.965820312 353.244140625 621.965820312 c 0,7,8
 281.66015625 621.965820312 281.66015625 621.965820312 255.2175599 619.459960938 c 0,9,10
 222.679271243 616.547851562 222.679271243 616.547851562 211.949477662 609.221679688 c 0,11,12
 202.362094948 602.6796875 202.362094948 602.6796875 197.221829508 580.921875 c 0,13,14
 191.183038667 555.370117188 191.183038667 555.370117188 190.622918937 499.587890625 c 1,15,-1
 263.185263062 499.587890625 l 2,16,17
 281.885742188 499.590820312 281.885742188 499.590820312 293.642578125 487.833007812 c 128,-1,18
 305.3984375 476.076171875 305.3984375 476.076171875 305.3984375 459.461914062 c 128,-1,19
 305.3984375 442.84765625 305.3984375 442.84765625 293.642578125 431.08984375 c 128,-1,20
 281.88671875 419.333984375 281.88671875 419.333984375 263.621689685 419.333984375 c 2,21,-1
 190.565740048 419.3359375 l 1,22,-1
 190.569240796 37.4169921875 l 2,23,24
 190.569240796 21.6142578125 190.569240796 21.6142578125 176.520737814 10.4306640625 c 0,25,26
 162.472234832 -1.3251953125 162.472234832 -1.3251953125 143.0078125 -1.3251953125 c 0,27,28
 126.392578125 -1.3251953125 126.392578125 -1.3251953125 114.63671875 10.431640625 c 0,29,30
 102.883789062 21.611328125 102.883789062 21.611328125 102.883789062 37.83984375 c 2,31,-1
 102.883789062 419.3359375 l 1,32,-1
 65.1279296875 419.333984375 l 2,33,34
 48.513671875 419.333984375 48.513671875 419.333984375 36.755859375 431.090820312 c 128,-1,35
 25 442.84765625 25 442.84765625 25 459.461914062 c 128,-1,36
 25 476.076171875 25 476.076171875 36.7568359375 487.833984375 c 128,-1,37
 48.51171875 499.587890625 48.51171875 499.587890625 65.490234375 499.587890625 c 2,38,-1
 102.9296875 499.587890625 l 1,39,40
 103.446289062 563.452148438 103.446289062 563.452148438 109.978515625 596.489257812 c 0,41,42
 119.887695312 646.59765625 119.887695312 646.59765625 151.336354447 671.407226562 c 0,43,44
 184.144200725 693.805664062 184.144200725 693.805664062 245.017546231 699.254882812 c 0,0,1
EndSplineSet
EndChar

StartChar: g
Encoding: 103 103 45
Width: 436
VWidth: 0
Flags: W
LayerCount: 2
Fore
SplineSet
238.917404271 500.795898438 m 0,0,1
 243.33465361 500.833007812 243.33465361 500.833007812 251.914038422 500.833007812 c 0,2,3
 262.646537015 500.833007812 262.646537015 500.833007812 294.27734375 500.296875 c 0,4,5
 323.013671875 499.799804688 323.013671875 499.799804688 342.16015625 499.814453125 c 0,6,7
 343.615234375 499.91015625 343.615234375 499.91015625 344.444335938 499.939453125 c 0,8,9
 362.142578125 499.943359375 362.142578125 499.943359375 374.208007812 488.283203125 c 128,-1,10
 386.272460938 476.625 386.272460938 476.625 386.272460938 460.146484375 c 2,11,-1
 386.26953125 9.435546875 l 2,12,13
 386.26953125 -61.91796875 386.26953125 -61.91796875 372.427734375 -103.3125 c 0,14,15
 355.999023438 -154.1484375 355.999023438 -154.1484375 316.15234375 -179.0234375 c 0,16,17
 307.716796875 -184.2890625 307.716796875 -184.2890625 299.0625 -188.469726562 c 0,18,19
 290.006835938 -192.84375 290.006835938 -192.84375 278.379882812 -195.908203125 c 0,20,21
 267.854492188 -198.682617188 267.854492188 -198.682617188 259.771781697 -200.697265625 c 0,22,23
 250.02666825 -203.032226562 250.02666825 -203.032226562 231.768310622 -204.372070312 c 0,24,25
 214.955598233 -205.60546875 214.955598233 -205.60546875 207.668317907 -206.3515625 c 0,26,27
 199.492863383 -207.1875 199.492863383 -207.1875 177.403073441 -207.489257812 c 0,28,29
 155.982957397 -207.78125 155.982957397 -207.78125 149.300391419 -207.864257812 c 0,30,31
 142.94140625 -207.948242188 142.94140625 -207.948242188 121.33203125 -207.880859375 c 128,-1,32
 99.833984375 -207.814453125 99.833984375 -207.814453125 94.28125 -207.814453125 c 0,33,34
 76.8486328125 -207.818359375 76.8486328125 -207.818359375 64.783203125 -195.752929688 c 128,-1,35
 52.71875 -183.688476562 52.71875 -183.688476562 52.71875 -166.63671875 c 128,-1,36
 52.71875 -149.584960938 52.71875 -149.584960938 64.783203125 -137.520507812 c 128,-1,37
 76.84765625 -125.456054688 76.84765625 -125.456054688 93.8984375 -125.456054688 c 0,38,39
 160.917520963 -125.45703125 160.917520963 -125.45703125 210.433232533 -120.899414062 c 128,-1,40
 259.948944104 -116.340820312 259.948944104 -116.340820312 272.541992188 -109.163085938 c 0,41,42
 286.879882812 -100.212890625 286.879882812 -100.212890625 294.061523438 -77.9873046875 c 0,43,44
 302.4296875 -52.0966796875 302.4296875 -52.0966796875 303.703125 -3.431640625 c 1,45,46
 231.010055522 -4.1875 231.010055522 -4.1875 205.14670632 -2.984375 c 0,47,48
 137.1796875 0.123046875 137.1796875 0.123046875 98.220703125 20.6357421875 c 0,49,50
 50.6083984375 45.7041015625 50.6083984375 45.7041015625 34.2587890625 124.540039062 c 0,51,52
 24.8896484375 169.725585938 24.8896484375 169.725585938 25.0009765625 235.719726562 c 0,53,54
 25.115234375 312.303710938 25.115234375 312.303710938 31.5029296875 351.169921875 c 0,55,56
 45.4345703125 435.923828125 45.4345703125 435.923828125 94.3564453125 468.444335938 c 0,57,58
 136.047851562 496.154296875 136.047851562 496.154296875 205.880158683 499.849609375 c 0,59,60
 220.680306133 500.643554688 220.680306133 500.643554688 238.917404271 500.795898438 c 0,0,1
262.873304896 429.229492188 m 0,61,62
 249.955803287 429.348632812 249.955803287 429.348632812 239.777232485 429.28515625 c 0,63,64
 223.783010414 429.188476562 223.783010414 429.188476562 212.301705382 428.572265625 c 0,65,66
 168.005198311 426.194335938 168.005198311 426.194335938 141.01171875 410.26171875 c 0,67,68
 120.916992188 396.344726562 120.916992188 396.344726562 112.451171875 342.688476562 c 0,69,70
 107.056640625 308.504882812 107.056640625 308.504882812 106.951171875 235.063476562 c 0,71,72
 106.853515625 174.440429688 106.853515625 174.440429688 114.630859375 135.361328125 c 0,73,74
 118.926757812 113.782226562 118.926757812 113.782226562 126.469726562 98.7724609375 c 0,75,76
 133.18359375 85.4130859375 133.18359375 85.4130859375 137.629882812 82.9736328125 c 0,77,78
 163.524170506 70.529296875 163.524170506 70.529296875 210.711968053 68.3349609375 c 0,79,80
 231.991535255 67.3447265625 231.991535255 67.3447265625 303.915039062 68.0537109375 c 1,81,-1
 303.915039062 428.647460938 l 1,82,83
 296.8046875 428.74609375 296.8046875 428.74609375 289.2578125 428.8671875 c 0,84,85
 274.21484375 429.109375 274.21484375 429.109375 262.873304896 429.229492188 c 0,61,62
EndSplineSet
EndChar

StartChar: i
Encoding: 105 105 46
Width: 156
VWidth: 0
Flags: W
LayerCount: 2
Fore
SplineSet
36.9482421875 676.896484375 m 132,-1,1
 48.896484375 688.844726562 48.896484375 688.844726562 65.7861328125 688.844726562 c 132,-1,2
 82.6728515625 688.844726562 82.6728515625 688.844726562 94.623046875 676.895507812 c 132,-1,3
 106.571289062 664.946289062 106.571289062 664.946289062 106.571289062 648.059570312 c 132,-1,4
 106.571289062 631.171875 106.571289062 631.171875 94.6220703125 619.223632812 c 132,-1,5
 82.6728515625 607.275390625 82.6728515625 607.275390625 65.7861328125 607.275390625 c 132,-1,6
 48.896484375 607.275390625 48.896484375 607.275390625 36.9482421875 619.223632812 c 132,-1,7
 25 631.171875 25 631.171875 25 648.059570312 c 132,-1,0
 25 664.946289062 25 664.946289062 36.9482421875 676.896484375 c 132,-1,1
36.818359375 489.299804688 m 4,8,9
 48.576171875 501.236328125 48.576171875 501.236328125 65.3046875 501.489257812 c 4,10,11
 82.7275390625 501.489257812 82.7275390625 501.489257812 94.671875 489.544921875 c 4,12,13
 106.619140625 478.087890625 106.619140625 478.087890625 106.619140625 461.895507812 c 6,14,-1
 106.6171875 38.38671875 l 6,15,16
 106.6171875 21.9775390625 106.6171875 21.9775390625 94.671875 10.5224609375 c 132,-1,17
 82.724609375 -0.9345703125 82.724609375 -0.9345703125 65.83984375 -0.9345703125 c 132,-1,18
 48.9541015625 -0.9345703125 48.9541015625 -0.9345703125 37.0068359375 10.5224609375 c 132,-1,19
 25.0625 21.9755859375 25.0625 21.9755859375 25.0625 38.6015625 c 6,20,-1
 25.0625 461.47265625 l 6,21,22
 25.05859375 477.854492188 25.05859375 477.854492188 36.818359375 489.299804688 c 4,8,9
EndSplineSet
EndChar

StartChar: j
Encoding: 106 106 47
Width: 212
VWidth: 0
Flags: W
LayerCount: 2
Fore
SplineSet
102.225585938 676.198242188 m 128,-1,1
 114.194335938 688.166992188 114.194335938 688.166992188 131.111328125 688.166992188 c 128,-1,2
 148.022460938 688.166992188 148.022460938 688.166992188 159.994140625 676.197265625 c 128,-1,3
 171.962890625 664.228515625 171.962890625 664.228515625 171.963867188 647.313476562 c 128,-1,4
 171.963867188 630.3984375 171.963867188 630.3984375 159.995117188 618.427734375 c 128,-1,5
 148.026367188 606.458984375 148.026367188 606.458984375 131.110351562 606.458007812 c 128,-1,6
 114.193359375 606.458007812 114.193359375 606.458007812 102.224609375 618.426757812 c 128,-1,7
 90.2548828125 630.396484375 90.2548828125 630.396484375 90.2548828125 647.315429688 c 128,-1,0
 90.2578125 664.229492188 90.2578125 664.229492188 102.225585938 676.198242188 c 128,-1,1
102.04296875 488.36328125 m 128,-1,9
 113.821289062 499.899414062 113.821289062 499.899414062 130.70703125 500.146484375 c 0,10,11
 148.029296875 500.146484375 148.029296875 500.146484375 159.997070312 488.588867188 c 128,-1,12
 171.962890625 477.032226562 171.962890625 477.032226562 171.962890625 460.280273438 c 2,13,-1
 171.962890625 15.103515625 l 2,14,15
 171.962890625 -56.4443359375 171.962890625 -56.4443359375 164.700195312 -91.91796875 c 0,16,17
 154.565429688 -143.158203125 154.565429688 -143.158203125 123.479492188 -168.515625 c 0,18,19
 95.41015625 -191.411132812 95.41015625 -191.411132812 43.3017578125 -196.983398438 c 0,20,21
 14.955078125 -200.013671875 14.955078125 -200.013671875 -62.736328125 -200.013671875 c 0,22,23
 -80.0634765625 -200.017578125 -80.0634765625 -200.017578125 -92.0322265625 -188.047851562 c 128,-1,24
 -104 -176.079101562 -104 -176.079101562 -104 -159.165039062 c 128,-1,25
 -104 -142.25 -104 -142.25 -92.0322265625 -130.282226562 c 128,-1,26
 -80.064453125 -118.314453125 -80.064453125 -118.314453125 -63.1494140625 -118.314453125 c 0,27,28
 10.599609375 -118.31640625 10.599609375 -118.31640625 34.615234375 -115.748046875 c 0,29,30
 62.587890625 -112.7578125 62.587890625 -112.7578125 71.8427734375 -105.208984375 c 0,31,32
 80.130859375 -98.4482421875 80.130859375 -98.4482421875 84.5556640625 -76.0693359375 c 0,33,34
 90.2685546875 -48.201171875 90.2685546875 -48.201171875 90.2685546875 15.5615234375 c 2,35,-1
 90.265625 460.733398438 l 2,36,8
 90.265625 476.825195312 90.265625 476.825195312 102.04296875 488.36328125 c 128,-1,9
EndSplineSet
EndChar

StartChar: p
Encoding: 112 112 48
Width: 440
Flags: W
LayerCount: 2
Fore
SplineSet
106.63671875 498.756835938 m 0,0,1
 130.927734375 498.888671875 130.927734375 498.888671875 143.091796875 498.888671875 c 0,2,3
 211.429733486 498.84765625 211.429733486 498.84765625 251.338231025 494.16015625 c 0,4,5
 289.08203125 489.49609375 289.08203125 489.49609375 317.340820312 474.263671875 c 0,6,7
 344.536132812 459.603515625 344.536132812 459.603515625 357.49609375 433.80859375 c 0,8,9
 369.5390625 409.834960938 369.5390625 409.834960938 378.326171875 372.533203125 c 0,10,11
 391.002929688 318.7109375 391.002929688 318.7109375 390.90234375 259.548828125 c 0,12,13
 390.791015625 182.798828125 390.791015625 182.798828125 384.551757812 143.263671875 c 0,14,15
 377.797851562 100.479492188 377.797851562 100.479492188 362.500976562 70.6875 c 128,-1,16
 347.203125 40.89453125 347.203125 40.89453125 322.681640625 24.609375 c 0,17,18
 302.096679688 10.9384765625 302.096679688 10.9384765625 277.342773438 3.0419921875 c 0,19,20
 248.922624169 -5.1923828125 248.922624169 -5.1923828125 214.514584162 -7.4404296875 c 0,21,22
 194.06455582 -8.7763671875 194.06455582 -8.7763671875 105.887695312 -8.3857421875 c 1,23,-1
 105.887695312 -163.599609375 l 2,24,25
 106.120117188 -180.44140625 106.120117188 -180.44140625 94.2421875 -192.485351562 c 128,-1,26
 82.36328125 -204.530273438 82.36328125 -204.530273438 65.4462890625 -204.530273438 c 128,-1,27
 48.529296875 -204.530273438 48.529296875 -204.530273438 36.650390625 -192.485351562 c 128,-1,28
 24.771484375 -180.44140625 24.771484375 -180.44140625 25.0048828125 -163.598632812 c 2,29,-1
 25.0048828125 458.567382812 l 2,30,31
 24.6982421875 481.65625 24.6982421875 481.65625 44.4931640625 492.435546875 c 0,32,33
 55.6796875 498.723632812 55.6796875 498.723632812 66.306640625 498.618164062 c 0,34,35
 81.142578125 498.618164062 81.142578125 498.618164062 106.63671875 498.756835938 c 0,0,1
220.645607675 425.256835938 m 0,36,37
 182.496365784 427.893554688 182.496365784 427.893554688 105.885742188 428.176757812 c 1,38,-1
 105.88671875 62.0283203125 l 1,39,40
 192.056824358 61.7314453125 192.056824358 61.7314453125 206.925523323 62.703125 c 0,41,42
 250.026700665 65.5185546875 250.026700665 65.5185546875 276.6328125 81.5322265625 c 0,43,44
 296.124023438 95.0302734375 296.124023438 95.0302734375 304.576171875 150.866210938 c 0,45,46
 309.911132812 186.110351562 309.911132812 186.110351562 310.014648438 260.145507812 c 0,47,48
 310.099609375 312.766601562 310.099609375 312.766601562 299.428710938 360.013671875 c 0,49,50
 296.15625 374.494140625 296.15625 374.494140625 290.5078125 388.055664062 c 128,-1,51
 284.83984375 401.666015625 284.83984375 401.666015625 280.654296875 408.391601562 c 0,52,53
 278.463867188 411.912109375 278.463867188 411.912109375 276.903320312 413.848632812 c 0,54,55
 258.144358637 422.665039062 258.144358637 422.665039062 220.645607675 425.256835938 c 0,36,37
EndSplineSet
EndChar

StartChar: q
Encoding: 113 113 49
Width: 440
Flags: W
LayerCount: 2
Fore
SplineSet
164.565219027 495.719726562 m 0,0,1
 204.472802834 500.408203125 204.472802834 500.408203125 272.803710938 500.444335938 c 0,2,3
 287.233398438 500.444335938 287.233398438 500.444335938 309.23828125 500.323242188 c 0,4,5
 334.731445312 500.18359375 334.731445312 500.18359375 349.577148438 500.18359375 c 0,6,7
 363.45703125 500.36328125 363.45703125 500.36328125 374.333007812 492.5 c 0,8,9
 391.168945312 480.705078125 391.168945312 480.705078125 390.89453125 460.08984375 c 2,10,-1
 390.89453125 -162.030273438 l 2,11,12
 391.127929688 -178.873046875 391.127929688 -178.873046875 379.249023438 -190.91796875 c 128,-1,13
 367.370117188 -202.961914062 367.370117188 -202.961914062 350.455078125 -202.961914062 c 128,-1,14
 333.538085938 -202.961914062 333.538085938 -202.961914062 321.66015625 -190.91796875 c 128,-1,15
 309.78125 -178.873046875 309.78125 -178.873046875 310.013671875 -162.03125 c 2,16,-1
 310.013671875 -6.8173828125 l 1,17,18
 221.84981354 -7.20703125 221.84981354 -7.20703125 201.387932189 -5.8701171875 c 0,19,20
 134.294921875 -1.52734375 134.294921875 -1.52734375 93.2197265625 25.775390625 c 0,21,22
 45.0263671875 57.80859375 45.0263671875 57.80859375 31.349609375 144.530273438 c 0,23,24
 25.111328125 184.080078125 25.111328125 184.080078125 25.0009765625 260.912109375 c 0,25,26
 24.8994140625 320.125 24.8994140625 320.125 37.5751953125 373.987304688 c 0,27,28
 46.361328125 411.321289062 46.361328125 411.321289062 58.4052734375 435.315429688 c 0,29,30
 71.3642578125 461.133789062 71.3642578125 461.133789062 98.560546875 475.806640625 c 0,31,32
 126.8203125 491.051757812 126.8203125 491.051757812 164.565219027 495.719726562 c 0,0,1
310.014648438 63.5810546875 m 1,33,-1
 310.014648438 429.731445312 l 1,34,35
 233.402841635 429.4453125 233.402841635 429.4453125 195.255696926 426.809570312 c 0,36,37
 157.757875294 424.216796875 157.757875294 424.216796875 139.000976562 415.401367188 c 0,38,39
 137.439453125 413.463867188 137.439453125 413.463867188 135.249023438 409.942382812 c 0,40,41
 131.063476562 403.217773438 131.063476562 403.217773438 125.395507812 389.604492188 c 128,-1,42
 119.747070312 376.04296875 119.747070312 376.04296875 116.4765625 361.563476562 c 0,43,44
 105.801757812 314.303710938 105.801757812 314.303710938 105.88671875 261.686523438 c 0,45,46
 105.990234375 187.668945312 105.990234375 187.668945312 111.326171875 152.41796875 c 0,47,48
 119.77734375 96.5830078125 119.77734375 96.5830078125 139.26953125 83.083984375 c 0,49,50
 165.877929939 67.0693359375 165.877929939 67.0693359375 208.977042153 64.2529296875 c 0,51,52
 223.831772606 63.2822265625 223.831772606 63.2822265625 310.014648438 63.5810546875 c 1,33,-1
EndSplineSet
EndChar

StartChar: r
Encoding: 114 114 50
Width: 288
Flags: W
LayerCount: 2
Fore
SplineSet
54.703125 461.0078125 m 0,0,1
 93.1982421875 501.901367188 93.1982421875 501.901367188 197.842773438 501.901367188 c 0,2,3
 214.9921875 501.901367188 214.9921875 501.901367188 226.994140625 489.8984375 c 128,-1,4
 238.998046875 477.89453125 238.998046875 477.89453125 238.998046875 460.928710938 c 128,-1,5
 238.998046875 443.962890625 238.998046875 443.962890625 226.994140625 431.959960938 c 128,-1,6
 214.994140625 419.958007812 214.994140625 419.958007812 197.657226562 419.958007812 c 0,7,8
 129.6015625 419.958007812 129.6015625 419.958007812 115.515625 405.108398438 c 0,9,10
 106.944335938 396.073242188 106.944335938 396.073242188 106.944335938 350.32421875 c 2,11,-1
 106.944335938 31.275390625 l 2,12,13
 106.948242188 14.7724609375 106.948242188 14.7724609375 94.943359375 3.34375 c 0,14,15
 82.939453125 -8.66015625 82.939453125 -8.66015625 65.9736328125 -8.66015625 c 128,-1,16
 49.0078125 -8.66015625 49.0078125 -8.66015625 37.00390625 3.34375 c 0,17,18
 25 14.86328125 25 14.86328125 25 31.142578125 c 2,19,-1
 25.0029296875 353.083007812 l 2,20,21
 25.0029296875 377.47265625 25.0029296875 377.47265625 25.9931640625 391.168945312 c 0,22,23
 27.0458984375 405.754882812 27.0458984375 405.754882812 33.7353515625 425.517578125 c 0,24,25
 40.716796875 446.147460938 40.716796875 446.147460938 54.703125 461.0078125 c 0,0,1
EndSplineSet
EndChar

StartChar: s
Encoding: 115 115 51
Width: 378
VWidth: 0
Flags: W
LayerCount: 2
Fore
SplineSet
103.24609375 490.401367188 m 0,0,1
 130.861328125 499.698242188 130.861328125 499.698242188 201.798828125 499.698242188 c 2,2,-1
 287.673828125 499.649414062 l 2,3,4
 304.6171875 499.649414062 304.6171875 499.649414062 316.453125 487.814453125 c 128,-1,5
 328.291015625 475.9765625 328.291015625 475.9765625 328.291015625 459.247070312 c 128,-1,6
 328.291015625 442.516601562 328.291015625 442.516601562 316.453125 430.6796875 c 128,-1,7
 304.6171875 418.844726562 304.6171875 418.844726562 287.650390625 418.844726562 c 2,8,-1
 201.770507812 418.895507812 l 2,9,10
 144.092773438 418.895507812 144.092773438 418.895507812 129.028320312 414.0703125 c 0,11,12
 119.08984375 410.887695312 119.08984375 410.887695312 112.540039062 391.01953125 c 0,13,14
 105.879882812 370.822265625 105.879882812 370.822265625 105.802734375 341.901367188 c 0,15,16
 105.7421875 322.8203125 105.7421875 322.8203125 117.095703125 309.345703125 c 0,17,18
 134.555664062 288.623046875 134.555664062 288.623046875 179.299804688 285.805664062 c 0,19,20
 259.522460938 280.756835938 259.522460938 280.756835938 299.219726562 233.638671875 c 0,21,22
 328.411132812 198.989257812 328.411132812 198.989257812 328.266601562 152.787109375 c 0,23,24
 328.15625 112.208007812 328.15625 112.208007812 317.82421875 80.875 c 0,25,26
 298.954101562 23.6533203125 298.954101562 23.6533203125 250.021484375 7.978515625 c 0,27,28
 222.405273438 -1.318359375 222.405273438 -1.318359375 151.471679688 -1.318359375 c 2,29,-1
 65.6298828125 -1.26953125 l 2,30,31
 48.7265625 -1.26953125 48.7265625 -1.26953125 36.890625 10.5673828125 c 128,-1,32
 25.0537109375 22.4052734375 25.0537109375 22.4052734375 25.0537109375 39.134765625 c 128,-1,33
 25.0537109375 55.86328125 25.0537109375 55.86328125 36.890625 67.7021484375 c 128,-1,34
 48.7265625 79.537109375 48.7265625 79.537109375 65.654296875 79.537109375 c 2,35,-1
 151.494140625 79.486328125 l 2,36,37
 209.173828125 79.4873046875 209.173828125 79.4873046875 224.23828125 84.314453125 c 0,38,39
 234.173828125 87.4970703125 234.173828125 87.4970703125 240.725585938 107.362304688 c 0,40,41
 247.383789062 127.560546875 247.383789062 127.560546875 247.461914062 156.489257812 c 0,42,43
 247.521484375 175.5625 247.521484375 175.5625 236.168945312 189.036132812 c 0,44,45
 218.706054688 209.76171875 218.706054688 209.76171875 173.96484375 212.578125 c 0,46,47
 93.7431640625 217.626953125 93.7431640625 217.626953125 54.048828125 264.744140625 c 0,48,49
 24.857421875 299.389648438 24.857421875 299.389648438 25.0009765625 345.599609375 c 0,50,51
 25.1083984375 386.173828125 25.1083984375 386.173828125 35.4404296875 417.505859375 c 0,52,53
 54.30859375 474.7265625 54.30859375 474.7265625 103.24609375 490.401367188 c 0,0,1
EndSplineSet
EndChar

StartChar: t
Encoding: 116 116 52
Width: 360
VWidth: 0
Flags: W
LayerCount: 2
Fore
SplineSet
116.491210938 695.231445312 m 0,0,1
 128.354492188 705.77734375 128.354492188 705.77734375 144.497070312 705.77734375 c 128,-1,2
 160.639648438 705.77734375 160.639648438 705.77734375 172.501953125 695.231445312 c 0,3,4
 184.90625 684.205078125 184.90625 684.205078125 184.90625 665.366210938 c 2,5,-1
 184.90625 499.989257812 l 1,6,7
 195.96875 499.989257812 195.96875 499.989257812 215.928710938 499.995117188 c 128,-1,8
 235.888671875 500.000976562 235.888671875 500.000976562 247.170898438 500.000976562 c 0,9,10
 263.899414062 500.000976562 263.899414062 500.000976562 275.73828125 488.163085938 c 128,-1,11
 287.575195312 476.325195312 287.575195312 476.325195312 287.575195312 459.596679688 c 128,-1,12
 287.575195312 442.866210938 287.575195312 442.866210938 275.737304688 431.029296875 c 128,-1,13
 263.911132812 419.204101562 263.911132812 419.204101562 246.322265625 419.204101562 c 2,14,-1
 184.90625 419.204101562 l 1,15,-1
 184.90625 201.849609375 l 2,16,17
 184.90625 139.7734375 184.90625 139.7734375 190.51171875 112.776367188 c 0,18,19
 194.862304688 91.8232421875 194.862304688 91.8232421875 203.005859375 85.4990234375 c 0,20,21
 216.251953125 75.20703125 216.251953125 75.20703125 238.227539062 75.697265625 c 2,22,-1
 268.450195312 76.37109375 l 2,23,24
 294.251953125 76.9462890625 294.251953125 76.9462890625 305.283203125 57.369140625 c 0,25,26
 315.905273438 38.5185546875 315.905273438 38.5185546875 305.322265625 19.392578125 c 0,27,28
 294.424804688 -0.3056640625 294.424804688 -0.3056640625 268.806640625 -0.5615234375 c 2,29,-1
 232.224609375 -0.9453125 l 2,30,31
 186.999023438 -1.396484375 186.999023438 -1.396484375 151.905273438 25.8671875 c 0,32,33
 121.255859375 49.677734375 121.255859375 49.677734375 111.259765625 97.8232421875 c 0,34,35
 104.087890625 132.368164062 104.087890625 132.368164062 104.087890625 201.83984375 c 2,36,-1
 104.087890625 419.204101562 l 1,37,38
 96.982421875 419.204101562 96.982421875 419.204101562 84.916015625 419.198242188 c 128,-1,39
 72.849609375 419.192382812 72.849609375 419.192382812 65.404296875 419.192382812 c 0,40,41
 48.67578125 419.192382812 48.67578125 419.192382812 36.8369140625 431.029296875 c 128,-1,42
 25 442.866210938 25 442.866210938 25 459.596679688 c 128,-1,43
 25 476.325195312 25 476.325195312 36.837890625 488.1640625 c 128,-1,44
 48.6640625 499.989257812 48.6640625 499.989257812 66.2529296875 499.989257812 c 2,45,-1
 104.087890625 499.989257812 l 1,46,-1
 104.087890625 665.366210938 l 2,47,48
 104.087890625 684.205078125 104.087890625 684.205078125 116.491210938 695.231445312 c 0,0,1
EndSplineSet
EndChar

StartChar: u
Encoding: 117 117 53
Width: 437
VWidth: 0
Flags: W
LayerCount: 2
Fore
SplineSet
36.6455078125 490.030273438 m 0,0,1
 48.2958984375 501.857421875 48.2958984375 501.857421875 65.0654296875 502.110351562 c 0,2,3
 82.126953125 502.110351562 82.126953125 502.110351562 93.9658203125 490.272460938 c 0,4,5
 105.802734375 479.009765625 105.802734375 479.009765625 105.802734375 463.094726562 c 2,6,-1
 105.799804688 159.002929688 l 2,7,8
 106.029296875 119.211914062 106.029296875 119.211914062 124.030273438 100.547851562 c 0,9,10
 144.647460938 79.1708984375 144.647460938 79.1708984375 205.998873911 79.1708984375 c 128,-1,11
 267.548828125 79.1708984375 267.548828125 79.1708984375 288.569335938 100.86328125 c 0,12,13
 306.80078125 119.67578125 306.80078125 119.67578125 306.206054688 158.331054688 c 2,14,-1
 306.203125 462.69140625 l 2,15,16
 306.19921875 479.033203125 306.19921875 479.033203125 318.038085938 490.297851562 c 0,17,18
 329.875976562 502.134765625 329.875976562 502.134765625 346.604492188 502.134765625 c 128,-1,19
 363.334960938 502.134765625 363.334960938 502.134765625 375.171875 490.297851562 c 0,20,21
 387.009765625 478.94921875 387.009765625 478.94921875 387.009765625 462.912109375 c 2,22,-1
 387.005859375 156.796875 l 2,23,24
 388.073242188 87.087890625 388.073242188 87.087890625 347.977539062 45.3974609375 c 0,25,26
 332.858398438 29.6767578125 332.858398438 29.6767578125 312.909179688 19.2216796875 c 128,-1,27
 292.959960938 8.7666015625 292.959960938 8.7666015625 268.918945312 3.6767578125 c 0,28,29
 240.272847437 -1.6318359375 240.272847437 -1.6318359375 206.001232997 -1.6318359375 c 0,30,31
 109.12890625 -1.6318359375 109.12890625 -1.6318359375 64.4951171875 45.0146484375 c 0,32,33
 25.400390625 85.8740234375 25.400390625 85.8740234375 25 155.96484375 c 2,34,-1
 25 462.458984375 l 2,35,36
 24.9951171875 478.6875 24.9951171875 478.6875 36.6455078125 490.030273438 c 0,0,1
EndSplineSet
EndChar

StartChar: v
Encoding: 118 118 54
Width: 441
VWidth: 0
Flags: W
LayerCount: 2
Fore
SplineSet
350.5390625 499.404296875 m 0,0,1
 351.487304688 499.404296875 351.487304688 499.404296875 352.407226562 499.362304688 c 0,2,3
 368.576171875 498.650390625 368.576171875 498.650390625 379.951171875 487.229492188 c 128,-1,4
 391.328125 475.80859375 391.328125 475.80859375 391.328125 460.283203125 c 0,5,6
 391.328125 454.87109375 391.328125 454.87109375 389.81640625 449.729492188 c 2,7,-1
 263.439916042 27.603515625 l 2,8,9
 259.648220243 15.375 259.648220243 15.375 246.948323468 6.974609375 c 0,10,11
 234.248426693 -1.783203125 234.248426693 -1.783203125 219.549351238 -1.7841796875 c 2,12,-1
 174.476464765 -1.7841796875 l 2,13,14
 159.410836962 -1.783203125 159.410836962 -1.783203125 146.613047869 7.275390625 c 0,15,16
 134.9609375 15.9638671875 134.9609375 15.9638671875 131.8046875 28.580078125 c 2,17,-1
 26.234375 450.700195312 l 2,18,19
 25 455.368164062 25 455.368164062 25 460.249023438 c 0,20,21
 25 476.448242188 25 476.448242188 36.9501953125 487.907226562 c 128,-1,22
 48.8994140625 499.369140625 48.8994140625 499.369140625 65.7890625 499.369140625 c 0,23,24
 79.4873046875 499.369140625 79.4873046875 499.369140625 91.017578125 490.15625 c 128,-1,25
 102.547851562 480.944335938 102.547851562 480.944335938 105.557617188 467.649414062 c 2,26,-1
 198.16205505 104.211914062 l 1,27,-1
 306.504922295 468.6484375 l 2,28,29
 310.123674999 481.553710938 310.123674999 481.553710938 322.879044087 490.478515625 c 128,-1,30
 335.634413176 499.404296875 335.634413176 499.404296875 350.5390625 499.404296875 c 0,0,1
EndSplineSet
EndChar

StartChar: w
Encoding: 119 119 55
Width: 695
VWidth: 0
Flags: W
LayerCount: 2
Fore
SplineSet
36.392578125 488.254882812 m 128,-1,1
 48.015625 499.744140625 48.015625 499.744140625 64.7001953125 499.986328125 c 0,2,3
 81.7392578125 500.231445312 81.7392578125 500.231445312 93.7958984375 488.7578125 c 128,-1,4
 105.853515625 477.28515625 105.853515625 477.28515625 105.612304688 461.124023438 c 2,5,-1
 105.612304688 158.084960938 l 2,6,7
 105.85546875 118.430664062 105.85546875 118.430664062 123.7734375 99.8310546875 c 0,8,9
 144.311523438 78.5107421875 144.311523438 78.5107421875 197.900316085 78.5107421875 c 0,10,11
 251.72875447 78.5107421875 251.72875447 78.5107421875 273.891824873 101.223632812 c 0,12,13
 293.116562449 120.926757812 293.116562449 120.926757812 292.488174704 161.403320312 c 2,14,-1
 292.484040574 389.143554688 l 2,15,16
 292.249428702 405.924804688 292.249428702 405.924804688 304.776875836 417.918945312 c 128,-1,17
 317.304322971 429.912109375 317.304322971 429.912109375 335.138959367 429.912109375 c 128,-1,18
 352.97256223 429.912109375 352.97256223 429.912109375 365.500009365 417.918945312 c 128,-1,19
 378.0274565 405.924804688 378.0274565 405.924804688 377.79387816 389.14453125 c 2,20,-1
 377.830051797 161.978515625 l 2,21,22
 378.067764266 121.104492188 378.067764266 121.104492188 397.695579507 100.893554688 c 0,23,24
 419.433868062 78.5107421875 419.433868062 78.5107421875 473.060767615 78.5107421875 c 128,-1,25
 526.83984375 78.5107421875 526.83984375 78.5107421875 547.78125 100.145507812 c 0,26,27
 565.946289062 118.9140625 565.946289062 118.9140625 565.352539062 157.469726562 c 2,28,-1
 565.349609375 461.123046875 l 2,29,30
 565.11328125 476.943359375 565.11328125 476.943359375 576.737304688 488.34375 c 128,-1,31
 588.360351562 499.74609375 588.360351562 499.74609375 605.045898438 499.986328125 c 0,32,33
 622.084960938 500.231445312 622.084960938 500.231445312 634.140625 488.681640625 c 128,-1,34
 646.196289062 477.131835938 646.196289062 477.131835938 645.955078125 460.864257812 c 2,35,-1
 645.955078125 155.740234375 l 2,36,37
 646.877929688 86.513671875 646.877929688 86.513671875 607.043945312 45.0830078125 c 0,38,39
 584.489257812 21.625 584.489257812 21.625 551.517578125 10.0146484375 c 0,40,41
 518.112448218 -2.09375 518.112448218 -2.09375 473.060767615 -2.09375 c 0,42,43
 383.251963163 -2.09375 383.251963163 -2.09375 335.62885376 45.5859375 c 1,44,45
 311.290197496 21.3232421875 311.290197496 21.3232421875 276.934544481 9.615234375 c 128,-1,46
 242.579924998 -2.09375 242.579924998 -2.09375 197.900316085 -2.09375 c 0,47,48
 108.875 -2.09375 108.875 -2.09375 64.3818359375 44.44921875 c 0,49,50
 43.6494140625 66.134765625 43.6494140625 66.134765625 34.3046875 94.822265625 c 0,51,52
 25.1904296875 122.801757812 25.1904296875 122.801757812 25.0048828125 155.1484375 c 2,53,-1
 25.0048828125 460.825195312 l 2,54,0
 24.7685546875 476.766601562 24.7685546875 476.766601562 36.392578125 488.254882812 c 128,-1,1
EndSplineSet
EndChar

StartChar: x
Encoding: 120 120 56
Width: 441
VWidth: 0
Flags: W
LayerCount: 2
Fore
SplineSet
36.2822265625 487.581054688 m 128,-1,1
 47.564453125 498.999023438 47.564453125 498.999023438 63.630859375 499.830078125 c 0,2,3
 64.65234375 499.8828125 64.65234375 499.8828125 65.6962890625 499.8828125 c 128,-1,4
 66.740234375 499.8828125 66.740234375 499.8828125 67.716796875 499.83203125 c 0,5,6
 89.974609375 498.82421875 89.974609375 498.82421875 101.120117188 479.577148438 c 2,7,-1
 208.433771975 317.83203125 l 1,8,-1
 315.747070312 479.581054688 l 2,9,10
 327.5078125 499.854492188 327.5078125 499.854492188 351.484375 499.854492188 c 0,11,12
 368.53515625 499.458007812 368.53515625 499.458007812 380.1875 488.010742188 c 128,-1,13
 391.841796875 476.5625 391.841796875 476.5625 391.841796875 460.715820312 c 0,14,15
 391.841796875 449.604492188 391.841796875 449.604492188 385.791015625 440.209960938 c 2,16,-1
 265.428434445 249.110351562 l 1,17,-1
 385.828125 57.9833984375 l 2,18,19
 391.624023438 48.7001953125 391.624023438 48.7001953125 391.624023438 37.880859375 c 0,20,21
 391.624023438 29.990234375 391.624023438 29.990234375 388.555664062 22.8896484375 c 128,-1,22
 385.486328125 15.7890625 385.486328125 15.7890625 379.666015625 10.2080078125 c 0,23,24
 367.708007812 -1.75 367.708007812 -1.75 350.806640625 -1.75 c 0,25,26
 327.668945312 -1.75 327.668945312 -1.75 315.783203125 18.103515625 c 2,27,-1
 208.433771975 179.9140625 l 1,28,-1
 101.078125 18.0986328125 l 2,29,30
 89.189453125 -1.7373046875 89.189453125 -1.7373046875 66.0654296875 -1.7373046875 c 0,31,32
 49.1640625 -1.7373046875 49.1640625 -1.7373046875 37.2060546875 10.2216796875 c 0,33,34
 25.248046875 21.6884765625 25.248046875 21.6884765625 25.248046875 37.89453125 c 0,35,36
 25.248046875 48.705078125 25.248046875 48.705078125 31.0361328125 57.9833984375 c 2,37,-1
 151.440279827 249.110351562 l 1,38,-1
 31.0771484375 440.203125 l 2,39,40
 25 449.607421875 25 449.607421875 25 460.748046875 c 0,41,0
 25 476.165039062 25 476.165039062 36.2822265625 487.581054688 c 128,-1,1
EndSplineSet
EndChar

StartChar: y
Encoding: 121 121 57
Width: 424
VWidth: 0
Flags: W
LayerCount: 2
Fore
SplineSet
36.6552734375 489.124023438 m 0,0,1
 48.2763671875 500.923828125 48.2763671875 500.923828125 65.0068359375 501.174804688 c 0,2,3
 82.0283203125 501.174804688 82.0283203125 501.174804688 93.8369140625 489.366210938 c 0,4,5
 105.645507812 478.133789062 105.645507812 478.133789062 105.645507812 462.255859375 c 2,6,-1
 105.631835938 202.948242188 l 2,7,8
 104.987304688 116.161132812 104.987304688 116.161132812 122.770507812 97.53125 c 128,-1,9
 140.440429688 79.0185546875 140.440429688 79.0185546875 244.81632566 79.0185546875 c 2,10,-1
 293.057617188 79.1083984375 l 1,11,-1
 293.0546875 461.622070312 l 2,12,13
 293.0546875 477.354492188 293.0546875 477.354492188 304.733398438 488.631835938 c 0,14,15
 316.413085938 500.489257812 316.413085938 500.489257812 333.028320312 500.73828125 c 0,16,17
 350.331054688 500.7421875 350.331054688 500.7421875 362.198242188 488.875 c 0,18,19
 374.0625 477.4296875 374.0625 477.4296875 374.0625 460.83984375 c 2,20,-1
 374.0625 21.2412109375 l 2,21,22
 374.0625 -49.4169921875 374.0625 -49.4169921875 366.879882812 -84.4599609375 c 0,23,24
 356.853515625 -135.157226562 356.853515625 -135.157226562 326.086914062 -160.25390625 c 0,25,26
 298.30859375 -182.91015625 298.30859375 -182.91015625 245.020721142 -188.420898438 c 0,27,28
 210.28800241 -191.419921875 210.28800241 -191.419921875 120.4765625 -191.419921875 c 0,29,30
 103.706054688 -191.419921875 103.706054688 -191.419921875 91.8388671875 -179.553710938 c 128,-1,31
 79.97265625 -167.6875 79.97265625 -167.6875 79.97265625 -150.916015625 c 128,-1,32
 79.97265625 -134.145507812 79.97265625 -134.145507812 91.8388671875 -122.27734375 c 128,-1,33
 103.702148438 -110.415039062 103.702148438 -110.415039062 120.921875 -110.415039062 c 0,34,35
 204.954368814 -110.415039062 204.954368814 -110.415039062 234.354663391 -107.876953125 c 0,36,37
 265.763671875 -104.924804688 265.763671875 -104.924804688 274.887695312 -97.4833984375 c 0,38,39
 283.049804688 -90.826171875 283.049804688 -90.826171875 287.415039062 -68.748046875 c 128,-1,40
 291.814453125 -46.5 291.814453125 -46.5 292.802734375 -1.494140625 c 1,41,-1
 244.880426018 -1.5888671875 l 2,42,43
 169.602416431 -1.5888671875 169.602416431 -1.5888671875 127.462890625 7.345703125 c 0,44,45
 88.1083984375 16.353515625 88.1083984375 16.353515625 63.095703125 42.7490234375 c 0,46,47
 38.59375 68.60546875 38.59375 68.60546875 31.4111328125 105.749023438 c 0,48,49
 24.58984375 141.0234375 24.58984375 141.0234375 25.0263671875 201.028320312 c 2,50,-1
 25.037109375 461.643554688 l 2,51,52
 25.033203125 477.818359375 25.033203125 477.818359375 36.6552734375 489.124023438 c 0,0,1
EndSplineSet
EndChar

StartChar: z
Encoding: 122 122 58
Width: 499
VWidth: 0
Flags: W
LayerCount: 2
Fore
SplineSet
66.3837890625 501.7265625 m 2,0,-1
 409.333984375 501.77734375 l 2,1,2
 426.125 501.77734375 426.125 501.77734375 438.002929688 489.899414062 c 0,3,4
 449.880859375 478.599609375 449.880859375 478.599609375 449.880859375 462.629882812 c 0,5,6
 449.880859375 450.077148438 449.880859375 450.077148438 442.11328125 439.927734375 c 2,7,-1
 145.253391241 79.53125 l 1,8,-1
 408.448242188 79.5712890625 l 2,9,10
 425.416015625 79.5712890625 425.416015625 79.5712890625 437.29296875 67.6943359375 c 128,-1,11
 449.170898438 55.81640625 449.170898438 55.81640625 449.170898438 39.0283203125 c 0,12,13
 449.170898438 30.8564453125 449.170898438 30.8564453125 446.122070312 23.5 c 128,-1,14
 443.073242188 16.142578125 443.073242188 16.142578125 437.29296875 10.3642578125 c 0,15,16
 425.416992188 -1.513671875 425.416992188 -1.513671875 408.455078125 -1.513671875 c 2,17,-1
 65.54296875 -1.5625 l 2,18,19
 48.755859375 -1.5625 48.755859375 -1.5625 36.8779296875 10.3154296875 c 0,20,21
 25 21.615234375 25 21.615234375 25 37.5849609375 c 0,22,23
 25 50.1376953125 25 50.1376953125 32.767578125 60.287109375 c 2,24,-1
 329.627468134 420.68359375 l 1,25,-1
 66.390625 420.643554688 l 2,26,27
 49.3818359375 420.643554688 49.3818359375 420.643554688 37.50390625 432.51953125 c 128,-1,28
 25.6259765625 444.397460938 25.6259765625 444.397460938 25.6259765625 461.184570312 c 128,-1,29
 25.6259765625 477.97265625 25.6259765625 477.97265625 37.5048828125 489.850585938 c 128,-1,30
 49.3818359375 501.7265625 49.3818359375 501.7265625 66.3837890625 501.7265625 c 2,0,-1
EndSplineSet
EndChar

StartChar: h
Encoding: 104 104 59
Width: 433
VWidth: 0
Flags: W
LayerCount: 2
Fore
SplineSet
36.58203125 692.219726562 m 128,-1,1
 48.400390625 704.388671875 48.400390625 704.388671875 65.361328125 704.64453125 c 0,2,3
 82.6845703125 704.905273438 82.6845703125 704.905273438 94.943359375 692.66015625 c 128,-1,4
 107.200195312 680.4140625 107.200195312 680.4140625 106.955078125 663.1640625 c 2,5,-1
 106.955078125 501.653320312 l 1,6,-1
 159.889781092 501.755859375 l 2,7,8
 235.407692552 501.755859375 235.407692552 501.755859375 278.5546875 492.626953125 c 0,9,10
 318.724609375 483.4296875 318.724609375 483.4296875 344.251953125 456.48046875 c 0,11,12
 369.282226562 430.055664062 369.282226562 430.055664062 376.606445312 392.088867188 c 0,13,14
 383.568359375 355.994140625 383.568359375 355.994140625 383.1171875 294.78125 c 2,15,-1
 383.104492188 34.2939453125 l 2,16,17
 383.369140625 17.9228515625 383.369140625 17.9228515625 371.329101562 6.2021484375 c 0,18,19
 359.288085938 -6.025390625 359.288085938 -6.025390625 342.126953125 -6.0244140625 c 128,-1,20
 324.966796875 -6.0234375 324.966796875 -6.0234375 312.927734375 6.2060546875 c 0,21,22
 300.888671875 17.8447265625 300.888671875 17.8447265625 301.15625 34.095703125 c 2,23,-1
 301.166992188 292.80859375 l 2,24,25
 301.829101562 381.669921875 301.829101562 381.669921875 283.581054688 400.793945312 c 128,-1,26
 265.442382812 419.8046875 265.442382812 419.8046875 159.915909802 419.8046875 c 2,27,-1
 106.955078125 419.708007812 l 1,28,-1
 106.955078125 32.6435546875 l 2,29,30
 107.1015625 22.03515625 107.1015625 22.03515625 101.635742188 12.8935546875 c 128,-1,31
 96.1943359375 3.7919921875 96.1943359375 3.7919921875 86.7109375 -1.5087890625 c 0,32,33
 77.1865234375 -7.0986328125 77.1865234375 -7.0986328125 65.9794921875 -7.0986328125 c 0,34,35
 48.8486328125 -7.0986328125 48.8486328125 -7.0986328125 36.8154296875 5.09375 c 0,36,37
 24.78125 16.908203125 24.78125 16.908203125 25.0048828125 33.44140625 c 2,38,-1
 25.0048828125 663.163085938 l 2,39,0
 24.7646484375 680.049804688 24.7646484375 680.049804688 36.58203125 692.219726562 c 128,-1,1
EndSplineSet
EndChar

StartChar: A
Encoding: 65 65 60
Width: 558
VWidth: 0
Flags: W
LayerCount: 2
Fore
SplineSet
96.1181640625 641.465820312 m 0,0,1
 163.938321061 701.147460938 163.938321061 701.147460938 306.680483466 701.383789062 c 2,2,-1
 467.698242188 700.53125 l 2,3,4
 484.596679688 700.439453125 484.596679688 700.439453125 496.54296875 688.811523438 c 128,-1,5
 508.490234375 677.184570312 508.490234375 677.184570312 508.490234375 660.81640625 c 2,6,-1
 507.62109375 39.0068359375 l 2,7,8
 507.62109375 22.3984375 507.62109375 22.3984375 495.603515625 10.7705078125 c 0,9,10
 483.584960938 -1.248046875 483.584960938 -1.248046875 466.598632812 -1.248046875 c 128,-1,11
 449.612304688 -1.248046875 449.612304688 -1.248046875 437.594726562 10.7705078125 c 128,-1,12
 425.577148438 22.7861328125 425.577148438 22.7861328125 425.577148438 40.00390625 c 2,13,-1
 426.014648438 360.991210938 l 1,14,-1
 107.17578125 361.174804688 l 1,15,-1
 107.610351562 37.9111328125 l 2,16,17
 107.610351562 22.65234375 107.610351562 22.65234375 95.591796875 10.6337890625 c 128,-1,18
 83.5732421875 -1.384765625 83.5732421875 -1.384765625 66.5869140625 -1.384765625 c 128,-1,19
 49.6005859375 -1.384765625 49.6005859375 -1.384765625 37.58203125 10.6337890625 c 0,20,21
 25.5654296875 22.263671875 25.5654296875 22.263671875 25.5654296875 38.8720703125 c 2,22,-1
 25 447.547851562 l 2,23,24
 26.078125 578.16015625 26.078125 578.16015625 96.1181640625 641.465820312 c 0,0,1
426.418945312 630.219726562 m 1,25,-1
 306.648130546 630.84375 l 2,26,27
 199.748690013 630.661132812 199.748690013 630.661132812 152.883328225 591.024414062 c 0,28,29
 107.860351562 549.674804688 107.860351562 549.674804688 107.064453125 450.3359375 c 2,30,-1
 107.08984375 431.71484375 l 1,31,-1
 426.150390625 431.529296875 l 1,32,-1
 426.418945312 630.219726562 l 1,25,-1
EndSplineSet
EndChar

StartChar: B
Encoding: 66 66 61
Width: 559
VWidth: 0
Flags: W
LayerCount: 2
Fore
SplineSet
65.685546875 702.091796875 m 2,0,-1
 169.625976562 702.946289062 l 2,1,2
 254.822652603 702.946289062 254.822652603 702.946289062 304.852943614 679.422851562 c 0,3,4
 357.074589077 654.870117188 357.074589077 654.870117188 377.85155254 603.595703125 c 0,5,6
 391.811523438 568.416992188 391.811523438 568.416992188 393.840820312 515.275390625 c 0,7,8
 395.634765625 468.284179688 395.634765625 468.284179688 393.670898438 422.23828125 c 1,9,10
 433.431640625 412.985351562 433.431640625 412.985351562 458.877929688 388.330078125 c 0,11,12
 509.295898438 339.484375 509.295898438 339.484375 509.295898438 219.79296875 c 0,13,14
 509.295898438 101.493164062 509.295898438 101.493164062 477.728515625 49.9609375 c 0,15,16
 460.44921875 21.75390625 460.44921875 21.75390625 430.920898438 8.16796875 c 0,17,18
 402.122070312 -5.5205078125 402.122070312 -5.5205078125 368.094774295 -4.962890625 c 0,19,20
 344.987640415 -4.9306640625 344.987640415 -4.9306640625 233.784693375 -4.7587890625 c 2,21,-1
 66.8212890625 -4.4921875 l 2,22,23
 49.8857421875 -4.4609375 49.8857421875 -4.4609375 37.890625 7.5380859375 c 0,24,25
 25.896484375 19.1533203125 25.896484375 19.1533203125 25.873046875 35.5458984375 c 2,26,-1
 25 662.350585938 l 2,27,28
 25 678.701171875 25 678.701171875 36.9140625 690.330078125 c 128,-1,29
 48.828125 701.956054688 48.828125 701.956054688 65.685546875 702.091796875 c 2,0,-1
261.196014506 606.533203125 m 0,30,31
 231.61436556 620.903320312 231.61436556 620.903320312 169.853947235 620.903320312 c 2,32,-1
 107.131835938 620.38671875 l 1,33,-1
 107.400390625 420.038085938 l 1,34,-1
 301.990766371 419.366210938 l 2,35,36
 302.010400209 421.762695312 302.010400209 421.762695312 302.027852509 423.875976562 c 0,37,38
 303.035722849 543.54296875 303.035722849 543.54296875 291.433215481 573.124023438 c 0,39,40
 282.360200881 596.254882812 282.360200881 596.254882812 261.196014506 606.533203125 c 0,30,31
329.390271143 348.741210938 m 2,41,-1
 107.522460938 349.5 l 1,42,-1
 107.904296875 65.9755859375 l 1,43,-1
 239.818594109 65.7685546875 l 1,44,-1
 369.234283509 65.5693359375 l 2,45,46
 388.356908347 65.267578125 388.356908347 65.267578125 395.086914062 68.193359375 c 0,47,48
 400.663085938 70.6494140625 400.663085938 70.6494140625 407.205078125 81.68359375 c 0,49,50
 427.298828125 115.577148438 427.298828125 115.577148438 427.298828125 215.296875 c 0,51,52
 427.298828125 304.995117188 427.298828125 304.995117188 400.881835938 331.435546875 c 0,53,54
 384.705519784 347.1953125 384.705519784 347.1953125 329.390271143 348.741210938 c 2,41,-1
EndSplineSet
EndChar

StartChar: C
Encoding: 67 67 62
Width: 563
VWidth: 0
Flags: W
LayerCount: 2
Fore
SplineSet
316.448070799 702.52734375 m 0,0,1
 321.924945798 702.57421875 321.924945798 702.57421875 333.863435555 702.57421875 c 0,2,3
 350.256392912 702.521484375 350.256392912 702.521484375 398.530273438 701.793945312 c 0,4,5
 442.543945312 701.071289062 442.543945312 701.071289062 471.872070312 701.11328125 c 0,6,7
 489.2109375 701.11328125 489.2109375 701.11328125 501.296875 689.026367188 c 128,-1,8
 513.384765625 676.9375 513.384765625 676.9375 513.384765625 659.853515625 c 128,-1,9
 513.384765625 642.76953125 513.384765625 642.76953125 501.296875 630.680664062 c 128,-1,10
 489.2109375 618.592773438 489.2109375 618.592773438 471.930664062 618.592773438 c 0,11,12
 441.314453125 618.547851562 441.314453125 618.547851562 397.666015625 619.21875 c 0,13,14
 350.286527025 619.88671875 350.286527025 619.88671875 331.647502046 619.971679688 c 0,15,16
 313.220492075 620.056640625 313.220492075 620.056640625 278.328418119 618.837890625 c 0,17,18
 211.806287917 615.185546875 211.806287917 615.185546875 168.764012669 589.977539062 c 0,19,20
 129.827148438 566.278320312 129.827148438 566.278320312 115.958007812 484.373046875 c 0,21,22
 107.681640625 435.495117188 107.681640625 435.495117188 107.525390625 331.999023438 c 0,23,24
 107.361328125 246.009765625 107.361328125 246.009765625 119.333007812 189.966796875 c 0,25,26
 134.294921875 119.940429688 134.294921875 119.940429688 165.161909973 105.1171875 c 0,27,28
 178.525312777 98.9208984375 178.525312777 98.9208984375 191.843514412 94.642578125 c 0,29,30
 204.794725601 90.482421875 204.794725601 90.482421875 223.648994243 87.896484375 c 0,31,32
 243.531051375 85.169921875 243.531051375 85.169921875 257.535880294 83.6748046875 c 0,33,34
 271.08977374 82.2041015625 271.08977374 82.2041015625 300.822457099 81.787109375 c 0,35,36
 331.113697763 81.3505859375 331.113697763 81.3505859375 348.582873434 81.3896484375 c 128,-1,37
 366.108012458 81.427734375 366.108012458 81.427734375 408.49609375 81.8984375 c 0,38,39
 448.444335938 82.37109375 448.444335938 82.37109375 472.41796875 82.517578125 c 0,40,41
 489.171875 82.517578125 489.171875 82.517578125 501.259765625 70.4287109375 c 128,-1,42
 513.34765625 58.33984375 513.34765625 58.33984375 513.34765625 41.255859375 c 0,43,44
 513.34765625 32.95703125 513.34765625 32.95703125 510.239257812 25.455078125 c 128,-1,45
 507.130859375 17.953125 507.130859375 17.953125 501.259765625 12.0830078125 c 0,46,47
 489.171875 -0.0068359375 489.171875 -0.0068359375 472.120117188 -0.0068359375 c 0,48,49
 447.548828125 -0.154296875 447.548828125 -0.154296875 399.884765625 -0.8701171875 c 0,50,51
 347.851044981 -1.5869140625 347.851044981 -1.5869140625 328.034637166 -1.537109375 c 128,-1,52
 308.088006936 -1.4873046875 308.088006936 -1.4873046875 271.782858334 -0.138671875 c 0,53,54
 234.696375236 1.23828125 234.696375236 1.23828125 214.749745005 4.939453125 c 0,55,56
 195.229297227 8.4453125 195.229297227 8.4453125 170.325605443 15.0732421875 c 0,57,58
 144.813476562 21.8681640625 144.813476562 21.8681640625 124.4765625 32.361328125 c 0,59,60
 61.2392578125 64.9912109375 61.2392578125 64.9912109375 38.490234375 172.483398438 c 0,61,62
 24.8232421875 237.060546875 24.8232421875 237.060546875 25.001953125 332.048828125 c 0,63,64
 25.1689453125 442.916015625 25.1689453125 442.916015625 34.5 498.541992188 c 0,65,66
 54.0966796875 615.377929688 54.0966796875 615.377929688 120.490234375 658.629882812 c 0,67,68
 181.487065577 696.159179688 181.487065577 696.159179688 272.761140781 701.21484375 c 0,69,70
 292.091097918 702.321289062 292.091097918 702.321289062 316.448070799 702.52734375 c 0,0,1
EndSplineSet
EndChar

StartChar: D
Encoding: 68 68 63
Width: 570
VWidth: 0
Flags: W
LayerCount: 2
Fore
SplineSet
107.216796875 702.266601562 m 0,0,1
 137.673828125 702.387695312 137.673828125 702.387695312 151.157801106 702.387695312 c 0,2,3
 210.001872936 702.325195312 210.001872936 702.325195312 249.912235355 700.068359375 c 0,4,5
 370.963081344 693.446289062 370.963081344 693.446289062 427.20703125 660.01953125 c 0,6,7
 492.588867188 617.32421875 492.588867188 617.32421875 511.743164062 497.979492188 c 0,8,9
 520.801757812 441.546875 520.801757812 441.546875 520.966796875 330.822265625 c 0,10,11
 521.124023438 247.31640625 521.124023438 247.31640625 502.124023438 168.993164062 c 0,12,13
 489.799804688 118.185546875 489.799804688 118.185546875 472.872070312 85.017578125 c 0,14,15
 454.899414062 49.8037109375 454.899414062 49.8037109375 420.854492188 32.083984375 c 0,16,17
 398.36041423 20.4970703125 398.36041423 20.4970703125 370.144401741 13.4306640625 c 128,-1,18
 341.929462226 6.3642578125 341.929462226 6.3642578125 310.072846993 3.7744140625 c 0,19,20
 248.083886673 -1.431640625 248.083886673 -1.431640625 110.12890625 -1.33984375 c 0,21,22
 81.5224609375 -1.318359375 81.5224609375 -1.318359375 66.185546875 -1.3369140625 c 0,23,24
 49.1142578125 -1.3369140625 49.1142578125 -1.3369140625 37.056640625 10.7177734375 c 0,25,26
 25.0009765625 22.384765625 25.0009765625 22.384765625 25 38.875 c 2,27,-1
 25 662.482421875 l 2,28,29
 25.0029296875 678.971679688 25.0029296875 678.971679688 37.05859375 690.637695312 c 128,-1,30
 49.1142578125 702.303710938 49.1142578125 702.303710938 66.27734375 702.303710938 c 0,31,32
 73.9833984375 702.135742188 73.9833984375 702.135742188 107.216796875 702.266601562 c 0,0,1
244.325256725 617.931640625 m 0,33,34
 207.941761745 619.987304688 207.941761745 619.987304688 151.188917368 620.05078125 c 0,35,36
 120 620.05078125 120 620.05078125 107.303710938 620.036132812 c 1,37,-1
 107.303710938 58.14453125 l 1,38,39
 232.780050261 58.6123046875 232.780050261 58.6123046875 290.326895826 62.87109375 c 0,40,41
 348.746069723 67.1943359375 348.746069723 67.1943359375 380.00825704 82.494140625 c 0,42,43
 387.211135385 86.0185546875 387.211135385 86.0185546875 400.726323175 110.192382812 c 0,44,45
 414.053710938 136.336914062 414.053710938 136.336914062 422.017578125 170.251953125 c 0,46,47
 438.823242188 241.818359375 438.823242188 241.818359375 438.6796875 318.485351562 c 0,48,49
 438.524414062 426.581054688 438.524414062 426.581054688 430.43359375 478.659179688 c 0,50,51
 416.942382812 565.489257812 416.942382812 565.489257812 380.000746218 589.985351562 c 0,52,53
 340.758846961 612.481445312 340.758846961 612.481445312 244.325256725 617.931640625 c 0,33,34
EndSplineSet
EndChar

StartChar: E
Encoding: 69 69 64
Width: 569
VWidth: 0
Flags: W
LayerCount: 2
Fore
SplineSet
294.608050406 698.116210938 m 0,0,1
 321.87715318 699.846679688 321.87715318 699.846679688 479.216796875 701.2421875 c 0,2,3
 495.357421875 701.2421875 495.357421875 701.2421875 507.375976562 689.223632812 c 128,-1,4
 519.39453125 677.205078125 519.39453125 677.205078125 519.39453125 660.21875 c 128,-1,5
 519.39453125 643.232421875 519.39453125 643.232421875 507.375976562 631.213867188 c 128,-1,6
 495.357421875 619.1953125 495.357421875 619.1953125 478.424804688 619.1953125 c 0,7,8
 325.413687081 617.915039062 325.413687081 617.915039062 300.892000898 616.44921875 c 0,9,10
 204.021677813 610.659179688 204.021677813 610.659179688 165.290511917 589.338867188 c 0,11,12
 135.674804688 571.669921875 135.674804688 571.669921875 127.227539062 562.374023438 c 0,13,14
 119.62890625 554.013671875 119.62890625 554.013671875 114.836914062 533.862304688 c 0,15,16
 108.810546875 508.51953125 108.810546875 508.51953125 107.584960938 431.427734375 c 1,17,-1
 443.840820312 431.431640625 l 2,18,19
 460.827148438 431.431640625 460.827148438 431.431640625 472.845703125 419.413085938 c 128,-1,20
 484.864257812 407.39453125 484.864257812 407.39453125 484.864257812 390.408203125 c 128,-1,21
 484.864257812 373.421875 484.864257812 373.421875 472.845703125 361.403320312 c 128,-1,22
 460.831054688 349.388671875 460.831054688 349.388671875 443.362304688 349.388671875 c 2,23,-1
 107.090820312 349.388671875 l 1,24,25
 107.067382812 338.615234375 107.067382812 338.615234375 107.052734375 328.66015625 c 0,26,27
 106.828125 178.583007812 106.828125 178.583007812 122.239257812 137.125976562 c 0,28,29
 126.920898438 124.534179688 126.920898438 124.534179688 134.51953125 118.264648438 c 0,30,31
 140.120117188 113.645507812 140.120117188 113.645507812 165.408611106 101.452148438 c 0,32,33
 198.531139147 85.78125 198.531139147 85.78125 259.759126946 81.9580078125 c 0,34,35
 323.254619177 77.9951171875 323.254619177 77.9951171875 478.00390625 77.8251953125 c 0,36,37
 495.359375 77.828125 495.359375 77.828125 507.37890625 66.203125 c 128,-1,38
 519.397460938 54.578125 519.397460938 54.578125 519.397460938 38.1484375 c 128,-1,39
 519.397460938 21.71875 519.397460938 21.71875 507.37890625 10.095703125 c 0,40,41
 495.360351562 -1.9228515625 495.360351562 -1.9228515625 478.358398438 -1.9228515625 c 0,42,43
 462.665039062 -1.9013671875 462.665039062 -1.9013671875 434.171875 -1.921875 c 0,44,45
 296.774633712 -2.013671875 296.774633712 -2.013671875 235.018420449 3.169921875 c 0,46,47
 171.28565621 8.3466796875 171.28565621 8.3466796875 124.701171875 31.357421875 c 0,48,49
 93.5576171875 47.5654296875 93.5576171875 47.5654296875 81.275390625 57.7041015625 c 0,50,51
 57.0869140625 77.673828125 57.0869140625 77.673828125 45.029296875 110.133789062 c 0,52,53
 24.7587890625 164.708007812 24.7587890625 164.708007812 25.0029296875 328.79296875 c 0,54,55
 25.0205078125 340.801757812 25.0205078125 340.801757812 25.0234375 364.240234375 c 128,-1,56
 25.0263671875 387.69921875 25.0263671875 387.69921875 25.0517578125 397.466796875 c 128,-1,57
 25.076171875 407.240234375 25.076171875 407.240234375 25.1875 425.717773438 c 128,-1,58
 25.2998046875 444.303710938 25.2998046875 444.303710938 25.5556640625 452.95703125 c 128,-1,59
 25.806640625 461.499023438 25.806640625 461.499023438 26.244140625 475.575195312 c 0,60,61
 26.69140625 489.955078125 26.69140625 489.955078125 27.4140625 498.161132812 c 0,62,63
 28.11328125 506.103515625 28.11328125 506.103515625 29.099609375 516.430664062 c 0,64,65
 30.1201171875 527.125976562 30.1201171875 527.125976562 31.546875 535.405273438 c 128,-1,66
 32.95703125 543.5859375 32.95703125 543.5859375 34.771484375 551.423828125 c 0,67,68
 42.822265625 586.197265625 42.822265625 586.197265625 63.6806640625 610.931640625 c 0,69,70
 83.8935546875 634.901367188 83.8935546875 634.901367188 118.334960938 657.39453125 c 0,71,72
 174.400253917 690.734375 174.400253917 690.734375 294.608050406 698.116210938 c 0,0,1
EndSplineSet
EndChar

StartChar: F
Encoding: 70 70 65
Width: 569
VWidth: 0
Flags: W
LayerCount: 2
Fore
SplineSet
204.685846109 696.706054688 m 0,0,1
 270.002837557 700.682617188 270.002837557 700.682617188 409.749023438 700.618164062 c 0,2,3
 418.2578125 700.618164062 418.2578125 700.618164062 440.044921875 700.598632812 c 0,4,5
 460.731445312 700.580078125 460.731445312 700.580078125 478.391601562 700.580078125 c 0,6,7
 495.377929688 700.580078125 495.377929688 700.580078125 507.396484375 688.561523438 c 128,-1,8
 519.415039062 676.54296875 519.415039062 676.54296875 519.415039062 659.556640625 c 128,-1,9
 519.415039062 642.5703125 519.415039062 642.5703125 507.396484375 630.551757812 c 128,-1,10
 495.380859375 618.536132812 495.380859375 618.536132812 477.986328125 618.536132812 c 0,11,12
 176.763095302 618.536132812 176.763095302 618.536132812 130.814453125 601.454101562 c 0,13,14
 120.034179688 597.177734375 120.034179688 597.177734375 117.243164062 594.173828125 c 128,-1,15
 114.46875 591.185546875 114.46875 591.185546875 111.79296875 581.997070312 c 0,16,17
 107.041015625 565.681640625 107.041015625 565.681640625 107.041015625 505.98046875 c 2,18,-1
 107.041015625 427.9375 l 1,19,-1
 378.869142331 427.9375 l 2,20,21
 397.991416809 427.94140625 397.991416809 427.94140625 410.139648438 416.4140625 c 128,-1,22
 422.158203125 404.887695312 422.158203125 404.887695312 422.158203125 388.596679688 c 128,-1,23
 422.158203125 372.306640625 422.158203125 372.306640625 410.139648438 360.780273438 c 128,-1,24
 397.992490431 349.25390625 397.992490431 349.25390625 379.317916164 349.25390625 c 2,25,-1
 107.041015625 349.256835938 l 1,26,-1
 107.043945312 38.9326171875 l 2,27,28
 107.043945312 30.953125 107.043945312 30.953125 103.952148438 23.7392578125 c 128,-1,29
 100.861328125 16.525390625 100.861328125 16.525390625 95.025390625 10.880859375 c 0,30,31
 83.0068359375 -1.1376953125 83.0068359375 -1.1376953125 66.0205078125 -1.1376953125 c 128,-1,32
 49.0341796875 -1.1376953125 49.0341796875 -1.1376953125 37.015625 10.880859375 c 0,33,34
 25 22.5068359375 25 22.5068359375 25 39.3359375 c 2,35,-1
 25 507.512695312 l 2,36,37
 25 578.615234375 25 578.615234375 32.7763671875 605.556640625 c 0,38,39
 47.4443359375 656.376953125 47.4443359375 656.376953125 99.46484375 677.189453125 c 0,40,41
 138.383789062 692.76171875 138.383789062 692.76171875 204.685846109 696.706054688 c 0,0,1
EndSplineSet
EndChar

StartChar: G
Encoding: 71 71 66
Width: 573
VWidth: 0
Flags: W
LayerCount: 2
Fore
SplineSet
266.91943083 696.749023438 m 0,0,1
 297.130728214 698.825195312 297.130728214 698.825195312 344.389216502 698.7265625 c 0,2,3
 348.289454255 698.7265625 348.289454255 698.7265625 356.607745824 698.67578125 c 0,4,5
 361.03330422 698.649414062 361.03330422 698.649414062 402.535779178 698.252929688 c 0,6,7
 440.3046875 697.858398438 440.3046875 697.858398438 463.431640625 697.890625 c 0,8,9
 480.874023438 697.896484375 480.874023438 697.896484375 492.87109375 685.899414062 c 128,-1,10
 504.8671875 673.903320312 504.8671875 673.903320312 504.8671875 656.94921875 c 128,-1,11
 504.8671875 639.995117188 504.8671875 639.995117188 492.87109375 628 c 128,-1,12
 480.875976562 616.002929688 480.875976562 616.002929688 463.935546875 616.002929688 c 0,13,14
 437.0078125 615.969726562 437.0078125 615.969726562 394.216415527 616.444335938 c 0,15,16
 348.314112163 616.915039062 348.314112163 616.915039062 321.241873642 616.71875 c 0,17,18
 294.473034594 616.528320312 294.473034594 616.528320312 273.684274211 615.127929688 c 0,19,20
 208.899373941 610.833984375 208.899373941 610.833984375 166.212247329 585.856445312 c 0,21,22
 128.859375 563.079101562 128.859375 563.079101562 115.169921875 479.194335938 c 0,23,24
 107.04296875 429.391601562 107.04296875 429.391601562 106.887695312 326.005859375 c 0,25,26
 106.756835938 251.643554688 106.756835938 251.643554688 123.056640625 184.709960938 c 0,27,28
 131.034179688 151.956054688 131.034179688 151.956054688 144.247070312 127.208984375 c 0,29,30
 157.6023492 104.296875 157.6023492 104.296875 166.157571099 100.234375 c 0,31,32
 198.353294014 84.9443359375 198.353294014 84.9443359375 255.241231312 81.208984375 c 0,33,34
 311.463405102 77.517578125 311.463405102 77.517578125 441.260742188 77.3486328125 c 1,35,-1
 441.2578125 269.193359375 l 2,36,37
 441.2578125 285.30859375 441.2578125 285.30859375 453.061523438 296.857421875 c 128,-1,38
 464.865234375 308.407226562 464.865234375 308.407226562 481.669921875 308.651367188 c 0,39,40
 499.15234375 308.655273438 499.15234375 308.655273438 511.1484375 297.092773438 c 128,-1,41
 523.140625 285.53515625 523.140625 285.53515625 523.140625 268.791015625 c 2,42,-1
 523.142578125 38.365234375 l 2,43,44
 523.142578125 14.8251953125 523.142578125 14.8251953125 501.828125 3.7333984375 c 0,45,46
 492.415039062 -1.7841796875 492.415039062 -1.7841796875 480.99609375 -1.7841796875 c 0,47,48
 460.684570312 -1.7841796875 460.684570312 -1.7841796875 421.158203125 -1.9404296875 c 0,49,50
 379.481707534 -2.095703125 379.481707534 -2.095703125 362.377696233 -2.052734375 c 128,-1,51
 345.229729531 -2.0087890625 345.229729531 -2.0087890625 312.615894268 -1.515625 c 0,52,53
 279.613964979 -1.017578125 279.613964979 -1.017578125 264.576929595 0.244140625 c 0,54,55
 249.925844072 1.47265625 249.925844072 1.47265625 226.323938043 3.7578125 c 0,56,57
 201.764661944 6.13671875 201.764661944 6.13671875 186.831618606 9.9326171875 c 0,58,59
 172.522527542 13.4521484375 172.522527542 13.4521484375 155.787312774 18.6025390625 c 128,-1,60
 139.059570312 23.9296875 139.059570312 23.9296875 125.310546875 31.126953125 c 0,61,62
 91.2158203125 48.9736328125 91.2158203125 48.9736328125 72.8134765625 84.3046875 c 0,63,64
 55.421875 117.697265625 55.421875 117.697265625 43.3369140625 167.518554688 c 0,65,66
 24.8564453125 243.70703125 24.8564453125 243.70703125 25.0009765625 327.6015625 c 0,67,68
 25.1669921875 437.524414062 25.1669921875 437.524414062 34.279296875 493.58203125 c 0,69,70
 53.55078125 612.137695312 53.55078125 612.137695312 118.907226562 654.28515625 c 0,71,72
 178.649481572 690.877929688 178.649481572 690.877929688 266.91943083 696.749023438 c 0,0,1
EndSplineSet
EndChar

StartChar: H
Encoding: 72 72 67
Width: 558
VWidth: 0
Flags: W
LayerCount: 2
Fore
SplineSet
36.8154296875 690.5703125 m 128,-1,1
 48.6298828125 702.188476562 48.6298828125 702.188476562 65.7021484375 702.453125 c 0,2,3
 83.015625 702.453125 83.015625 702.453125 95.0341796875 690.434570312 c 128,-1,4
 107.052734375 678.416015625 107.052734375 678.416015625 107.052734375 661.439453125 c 2,5,-1
 107.259765625 420.020507812 l 1,6,-1
 426.129882812 419.8359375 l 1,7,-1
 426.455078125 661.015625 l 2,8,9
 426.451171875 678.166992188 426.451171875 678.166992188 438.296875 690.17578125 c 128,-1,10
 450.139648438 702.18359375 450.139648438 702.18359375 467.203125 702.418945312 c 0,11,12
 484.461914062 702.418945312 484.461914062 702.418945312 496.48046875 690.787109375 c 128,-1,13
 508.498046875 679.15625 508.498046875 679.15625 508.498046875 662.486328125 c 2,14,-1
 507.625976562 38.8173828125 l 2,15,16
 507.62890625 22.025390625 507.62890625 22.025390625 495.609375 10.392578125 c 0,17,18
 483.590820312 -1.6259765625 483.590820312 -1.6259765625 466.604492188 -1.6259765625 c 128,-1,19
 449.619140625 -1.6259765625 449.619140625 -1.6259765625 437.600585938 10.392578125 c 128,-1,20
 425.58203125 22.4111328125 425.58203125 22.4111328125 425.58203125 39.4130859375 c 2,21,-1
 426.018554688 360.803710938 l 1,22,-1
 107.322265625 360.987304688 l 1,23,-1
 107.599609375 39.6982421875 l 2,24,25
 107.60546875 22.279296875 107.60546875 22.279296875 95.5849609375 10.2587890625 c 128,-1,26
 83.56640625 -1.759765625 83.56640625 -1.759765625 66.580078125 -1.759765625 c 128,-1,27
 49.5947265625 -1.759765625 49.5947265625 -1.759765625 37.576171875 10.2587890625 c 0,28,29
 25.5576171875 21.890625 25.5576171875 21.890625 25.5576171875 38.3212890625 c 2,30,-1
 25 662.529296875 l 2,31,0
 25 678.951171875 25 678.951171875 36.8154296875 690.5703125 c 128,-1,1
EndSplineSet
EndChar

StartChar: I
Encoding: 73 73 68
Width: 157
VWidth: 0
Flags: W
LayerCount: 2
Fore
SplineSet
36.791015625 690.787109375 m 128,-1,1
 48.5849609375 702.384765625 48.5849609375 702.384765625 65.626953125 702.647460938 c 0,2,3
 82.8984375 702.647460938 82.8984375 702.647460938 94.8935546875 690.651367188 c 0,4,5
 106.889648438 679.047851562 106.889648438 679.047851562 106.889648438 662.658203125 c 2,6,-1
 107.444335938 38.8603515625 l 2,7,8
 107.444335938 22.2255859375 107.444335938 22.2255859375 95.4501953125 10.6240234375 c 0,9,10
 83.455078125 -1.37109375 83.455078125 -1.37109375 66.5009765625 -1.37109375 c 128,-1,11
 49.546875 -1.37109375 49.546875 -1.37109375 37.5517578125 10.625 c 0,12,13
 25.5546875 22.234375 25.5546875 22.234375 25.5546875 38.6337890625 c 2,14,-1
 25 662.58984375 l 2,15,0
 24.99609375 679.1875 24.99609375 679.1875 36.791015625 690.787109375 c 128,-1,1
EndSplineSet
EndChar

StartChar: J
Encoding: 74 74 69
Width: 437
VWidth: 0
Flags: W
LayerCount: 2
Fore
SplineSet
317.5546875 690.4765625 m 128,-1,1
 329.415039062 702.088867188 329.415039062 702.088867188 346.495117188 702.3359375 c 0,2,3
 363.865234375 702.3359375 363.865234375 702.3359375 375.916992188 690.668945312 c 128,-1,4
 387.967773438 679.004882812 387.967773438 679.004882812 387.967773438 662.107421875 c 2,5,-1
 387.967773438 211.474609375 l 2,6,7
 387.967773438 148.40234375 387.967773438 148.40234375 374.079101562 109.55859375 c 0,8,9
 357.26171875 62.5234375 357.26171875 62.5234375 317.012695312 36.8671875 c 0,10,11
 280.345703125 13.4970703125 280.345703125 13.4970703125 218.427257995 6.1484375 c 0,12,13
 155.747532593 -1.197265625 155.747532593 -1.197265625 66.138671875 -1.197265625 c 0,14,15
 49.1044921875 -1.197265625 49.1044921875 -1.197265625 37.0537109375 10.85546875 c 128,-1,16
 25 22.9072265625 25 22.9072265625 25 39.94140625 c 128,-1,17
 25 56.9755859375 25 56.9755859375 37.052734375 69.02734375 c 128,-1,18
 49.1005859375 81.0771484375 49.1005859375 81.0771484375 66.5859375 81.0771484375 c 0,19,20
 224.964429378 81.0771484375 224.964429378 81.0771484375 271.765625 105.685546875 c 0,21,22
 288.661132812 116.4140625 288.661132812 116.4140625 296.331054688 137.784179688 c 0,23,24
 305.696289062 163.876953125 305.696289062 163.876953125 305.696289062 213.360351562 c 2,25,-1
 305.693359375 662.666015625 l 2,26,0
 305.693359375 678.8671875 305.693359375 678.8671875 317.5546875 690.4765625 c 128,-1,1
EndSplineSet
EndChar

StartChar: P
Encoding: 80 80 70
Width: 439
VWidth: 0
Flags: W
LayerCount: 2
Fore
SplineSet
106.044921875 703.092773438 m 0,0,1
 129.939453125 703.22265625 129.939453125 703.22265625 141.939453125 703.22265625 c 0,2,3
 210.485119483 703.185546875 210.485119483 703.185546875 250.742640058 698.559570312 c 0,4,5
 288.341796875 693.897460938 288.341796875 693.897460938 316.348632812 678.6640625 c 0,6,7
 343.43359375 663.931640625 343.43359375 663.931640625 356.357421875 637.9921875 c 0,8,9
 368.28125 614.0625 368.28125 614.0625 376.96484375 576.901367188 c 0,10,11
 389.515625 523.200195312 389.515625 523.200195312 389.349609375 464.396484375 c 0,12,13
 389.23828125 388.100585938 389.23828125 388.100585938 383.084960938 348.764648438 c 0,14,15
 369.548828125 262.224609375 369.548828125 262.224609375 321.69921875 230.161132812 c 0,16,17
 281.0078125 202.89453125 281.0078125 202.89453125 213.605170186 198.559570312 c 0,18,19
 192.752112414 197.270507812 192.752112414 197.270507812 107.709960938 197.641601562 c 1,20,-1
 107.709960938 38.7353515625 l 2,21,22
 107.713867188 27.5986328125 107.713867188 27.5986328125 102.209960938 18.4345703125 c 0,23,24
 99.5126953125 13.9423828125 99.5126953125 13.9423828125 95.732421875 10.2841796875 c 128,-1,25
 91.9521484375 6.50390625 91.9521484375 6.50390625 87.30859375 3.8056640625 c 0,26,27
 77.83984375 -1.6962890625 77.83984375 -1.6962890625 66.7392578125 -1.6962890625 c 0,28,29
 49.7744140625 -1.6962890625 49.7744140625 -1.6962890625 37.7705078125 10.3076171875 c 0,30,31
 25.7666015625 21.9189453125 25.7666015625 21.9189453125 25.7666015625 38.3291015625 c 2,32,-1
 25.76953125 655.283203125 l 2,33,34
 25 659.129882812 25 659.129882812 25 662.9296875 c 0,35,36
 25 679.341796875 25 679.341796875 37.0048828125 690.952148438 c 0,37,38
 49.0087890625 702.958007812 49.0087890625 702.958007812 65.9775390625 702.958007812 c 0,39,40
 80.9560546875 702.956054688 80.9560546875 702.956054688 106.044921875 703.092773438 c 0,0,1
219.871631468 629.563476562 m 0,41,42
 182.21295497 632.135742188 182.21295497 632.135742188 107.731445312 632.448242188 c 1,43,-1
 107.732421875 274.377929688 l 1,44,45
 190.517513888 274.07421875 190.517513888 274.07421875 205.77029632 275.048828125 c 0,46,47
 248.756063996 277.796875 248.756063996 277.796875 275.068359375 293.379882812 c 0,48,49
 293.83984375 306.379882812 293.83984375 306.379882812 302.084960938 360.841796875 c 0,50,51
 307.322265625 395.44921875 307.322265625 395.44921875 307.42578125 468.307617188 c 0,52,53
 307.564453125 519.793945312 307.564453125 519.793945312 297.057617188 566.26171875 c 0,54,55
 293.858398438 580.4140625 293.858398438 580.4140625 288.33203125 593.669921875 c 128,-1,56
 282.784179688 606.981445312 282.784179688 606.981445312 278.711914062 613.522460938 c 0,57,58
 276.749023438 616.674804688 276.749023438 616.674804688 275.250976562 618.594726562 c 0,59,60
 257.0714065 627.022460938 257.0714065 627.022460938 219.871631468 629.563476562 c 0,41,42
EndSplineSet
EndChar

StartChar: Q
Encoding: 81 81 71
Width: 595
VWidth: 0
Flags: W
LayerCount: 2
Fore
SplineSet
171.638563742 691.638671875 m 0,0,1
 215.777985769 705.337890625 215.777985769 705.337890625 285.110145958 705.337890625 c 128,-1,2
 354.483797565 705.337890625 354.483797565 705.337890625 398.583855939 691.650390625 c 0,3,4
 418.5656975 685.651367188 418.5656975 685.651367188 448.413085938 668.248046875 c 0,5,6
 484.947265625 646.547851562 484.947265625 646.547851562 503.479492188 606.034179688 c 0,7,8
 521.118164062 567.471679688 521.118164062 567.471679688 531.505859375 511.83203125 c 0,9,10
 545.0703125 439.170898438 545.0703125 439.170898438 545.22265625 340.002929688 c 0,11,12
 545.454101562 256.633789062 545.454101562 256.633789062 526.19921875 177.731445312 c 0,13,14
 514.08203125 128.072265625 514.08203125 128.072265625 497.545898438 94.91796875 c 0,15,16
 480.095703125 59.935546875 480.095703125 59.935546875 448.145507812 40.845703125 c 0,17,18
 447.145507812 40.2490234375 447.145507812 40.2490234375 440.838867188 36.4033203125 c 0,19,20
 434.291992188 32.4130859375 434.291992188 32.4130859375 431.65625 30.9462890625 c 128,-1,21
 429.211914062 29.5869140625 429.211914062 29.5869140625 422.257369857 25.8740234375 c 0,22,23
 414.272931517 21.818359375 414.272931517 21.818359375 408.752445101 19.78125 c 0,24,25
 404.052212111 18.046875 404.052212111 18.046875 396.023090704 14.9501953125 c 0,26,27
 387.06732762 11.49609375 387.06732762 11.49609375 378.813727001 9.51171875 c 0,28,29
 371.368677099 7.6611328125 371.368677099 7.6611328125 361.916080876 5.42578125 c 0,30,31
 351.898563033 3.0576171875 351.898563033 3.0576171875 340.854398554 1.5576171875 c 0,32,33
 335.997774833 0.8974609375 335.997774833 0.8974609375 329.93470833 0.240234375 c 1,34,-1
 330.054927055 -28.7646484375 l 2,35,36
 330.054927055 -45.22265625 330.054927055 -45.22265625 316.976619191 -57.2255859375 c 128,-1,37
 303.89937521 -69.2314453125 303.89937521 -69.2314453125 285.415480242 -69.2314453125 c 128,-1,38
 266.931585275 -69.2314453125 266.931585275 -69.2314453125 253.854341293 -57.2265625 c 128,-1,39
 240.776033429 -45.22265625 240.776033429 -45.22265625 240.776033429 -27.48046875 c 2,40,-1
 240.662197999 0.2548828125 l 1,41,42
 213.442763629 3.37109375 213.442763629 3.37109375 188.553231987 11.119140625 c 0,43,44
 158.606002826 20.134765625 158.606002826 20.134765625 150.104517579 24.5869140625 c 0,45,46
 142.805664062 28.5126953125 142.805664062 28.5126953125 122.072265625 40.8974609375 c 0,47,48
 90.123046875 59.9853515625 90.123046875 59.9853515625 72.6884765625 94.9609375 c 0,49,50
 56.16796875 128.10546875 56.16796875 128.10546875 44.0576171875 177.771484375 c 0,51,52
 24.8564453125 256.529296875 24.8564453125 256.529296875 25.0009765625 340.09375 c 0,53,54
 25.3037109375 439.62890625 25.3037109375 439.62890625 38.7646484375 511.833007812 c 0,55,56
 49.1396484375 567.479492188 49.1396484375 567.479492188 66.759765625 606.033203125 c 0,57,58
 85.2744140625 646.541015625 85.2744140625 646.541015625 121.8125 668.23828125 c 0,59,60
 151.654594416 685.639648438 151.654594416 685.639648438 171.638563742 691.638671875 c 0,0,1
369.756895076 613.42578125 m 0,61,62
 339.642636359 622.772460938 339.642636359 622.772460938 285.08567666 622.772460938 c 128,-1,63
 230.522333665 622.772460938 230.522333665 622.772460938 200.425097069 613.430664062 c 0,64,65
 190.057561875 610.211914062 190.057561875 610.211914062 166.775556726 597.09375 c 0,66,67
 154.258978834 590.037109375 154.258978834 590.037109375 140.826171875 561.733398438 c 0,68,69
 127.274414062 531.466796875 127.274414062 531.466796875 119.995117188 491.096679688 c 0,70,71
 107.823242188 423.598632812 107.823242188 423.598632812 107.541015625 327.973632812 c 0,72,73
 107.413085938 251.360351562 107.413085938 251.360351562 124.39453125 179.350585938 c 0,74,75
 132.447265625 145.209960938 132.447265625 145.209960938 145.710682756 118.59765625 c 0,76,77
 159.144327383 93.7451171875 159.144327383 93.7451171875 167.262814922 89.1416015625 c 0,78,79
 171.706652223 86.623046875 171.706652223 86.623046875 182.457185126 80.07421875 c 0,80,81
 192.491725089 73.9599609375 192.491725089 73.9599609375 196.67384729 71.953125 c 128,-1,82
 201.016615752 69.8701171875 201.016615752 69.8701171875 210.403251259 66.1650390625 c 0,83,84
 218.906864271 62.8076171875 218.906864271 62.8076171875 228.763735854 61.177734375 c 0,85,86
 234.029954346 60.3076171875 234.029954346 60.3076171875 240.302605706 59.6201171875 c 1,87,-1
 240.151534388 96.4267578125 l 2,88,89
 240.145151092 113.65234375 240.145151092 113.65234375 252.963871621 125.643554688 c 128,-1,90
 265.781528267 137.6328125 265.781528267 137.6328125 284.343086658 137.955078125 c 0,91,92
 303.269556755 137.955078125 303.269556755 137.955078125 316.345736855 125.950195312 c 128,-1,93
 329.425108601 113.946289062 329.425108601 113.946289062 329.425108601 97.0009765625 c 2,94,-1
 329.57617992 59.5859375 l 1,95,96
 336.023308014 60.287109375 336.023308014 60.287109375 341.306548626 61.15625 c 0,97,98
 351.188953389 62.7822265625 351.188953389 62.7822265625 359.7170357 66.1455078125 c 0,99,100
 369.133459917 69.857421875 369.133459917 69.857421875 373.471972849 71.935546875 c 128,-1,101
 377.647711755 73.935546875 377.647711755 73.935546875 387.707784899 80.0634765625 c 0,102,103
 398.488106512 86.6298828125 398.488106512 86.6298828125 402.913857811 89.1396484375 c 0,104,105
 411.044048057 93.7490234375 411.044048057 93.7490234375 424.491523157 118.60546875 c 0,106,107
 437.766601562 145.220703125 437.766601562 145.220703125 445.826171875 179.359375 c 0,108,109
 462.852539062 251.485351562 462.852539062 251.485351562 462.643554688 327.89453125 c 0,110,111
 462.506835938 423.176757812 462.506835938 423.176757812 450.241210938 491.08984375 c 0,112,113
 442.952148438 531.44921875 442.952148438 531.44921875 429.384765625 561.719726562 c 0,114,115
 415.933652136 590.030273438 415.933652136 590.030273438 403.407499302 597.08984375 c 0,116,117
 380.136132978 610.205078125 380.136132978 610.205078125 369.756895076 613.42578125 c 0,61,62
EndSplineSet
EndChar

StartChar: R
Encoding: 82 82 72
Width: 559
VWidth: 0
Flags: W
LayerCount: 2
Fore
SplineSet
65.6826171875 701.225585938 m 2,0,-1
 172.312701907 702.081054688 l 2,1,2
 256.335779623 702.081054688 256.335779623 702.081054688 305.697006471 678.794921875 c 0,3,4
 357.385769275 654.412109375 357.385769275 654.412109375 377.955193091 603.348632812 c 0,5,6
 391.793945312 568.35546875 391.793945312 568.35546875 393.836914062 515.513671875 c 0,7,8
 395.640625 468.844726562 395.640625 468.844726562 393.684570312 423.094726562 c 1,9,10
 432.874023438 414.678710938 432.874023438 414.678710938 458.225585938 391.180664062 c 0,11,12
 509.291015625 343.846679688 509.291015625 343.846679688 509.291015625 224.030273438 c 2,13,-1
 509.291015625 38.5859375 l 2,14,15
 509.294921875 21.7529296875 509.294921875 21.7529296875 497.275390625 10.1201171875 c 0,16,17
 485.256835938 -1.8984375 485.256835938 -1.8984375 468.270507812 -1.8984375 c 128,-1,18
 451.284179688 -1.8984375 451.284179688 -1.8984375 439.265625 10.1201171875 c 128,-1,19
 427.247070312 22.138671875 427.247070312 22.138671875 427.247070312 39.125 c 2,20,-1
 427.25 231.140625 l 2,21,22
 427.25 319.911132812 427.25 319.911132812 401.479492188 344.590820312 c 0,23,24
 386.264895333 358.889648438 386.264895333 358.889648438 329.335672929 360.479492188 c 2,25,-1
 107.477539062 361.236328125 l 1,26,-1
 107.911132812 40.9169921875 l 2,27,28
 107.9140625 32.4892578125 107.9140625 32.4892578125 104.83984375 24.912109375 c 128,-1,29
 101.766601562 17.3349609375 101.766601562 17.3349609375 95.896484375 11.46484375 c 0,30,31
 83.8779296875 -0.5537109375 83.8779296875 -0.5537109375 66.8916015625 -0.5537109375 c 128,-1,32
 49.9052734375 -0.5537109375 49.9052734375 -0.5537109375 37.88671875 11.46484375 c 0,33,34
 25.8681640625 23.095703125 25.8681640625 23.095703125 25.8681640625 39.5185546875 c 2,35,-1
 25 661.491210938 l 2,36,37
 25 677.840820312 25 677.840820312 36.912109375 689.463867188 c 128,-1,38
 48.8251953125 701.08984375 48.8251953125 701.08984375 65.6826171875 701.225585938 c 2,0,-1
262.735155921 605.7734375 m 0,39,40
 233.467927527 620.038085938 233.467927527 620.038085938 172.244783998 620.038085938 c 2,41,-1
 107.057617188 619.514648438 l 1,42,-1
 107.328125 420.275390625 l 1,43,-1
 302.914528334 419.604492188 l 2,44,45
 302.932855388 421.916992188 302.932855388 421.916992188 302.950104381 424.017578125 c 0,46,47
 303.937609214 543.431640625 303.937609214 543.431640625 292.510151538 572.7421875 c 0,48,49
 283.595656489 595.60546875 283.595656489 595.60546875 262.735155921 605.7734375 c 0,39,40
EndSplineSet
EndChar

StartChar: S
Encoding: 83 83 73
Width: 517
VWidth: 0
Flags: W
LayerCount: 2
Fore
SplineSet
95.16796875 656.494140625 m 0,0,1
 159.323298715 702.57421875 159.323298715 702.57421875 294.262695312 702.786132812 c 2,2,-1
 425.83984375 702.715820312 l 2,3,4
 443.278320312 702.719726562 443.278320312 702.719726562 455.313476562 690.684570312 c 128,-1,5
 467.34765625 678.650390625 467.34765625 678.650390625 467.34765625 661.642578125 c 128,-1,6
 467.34765625 644.633789062 467.34765625 644.633789062 455.313476562 632.599609375 c 128,-1,7
 443.279296875 620.565429688 443.279296875 620.565429688 426.265625 620.565429688 c 2,8,-1
 296.000976562 620.634765625 l 2,9,10
 192.317566247 620.474609375 192.317566247 620.474609375 145.121217568 591.372070312 c 0,11,12
 107.146484375 563.708984375 107.146484375 563.708984375 107.146484375 499.892578125 c 0,13,14
 107.146484375 434.224609375 107.146484375 434.224609375 132.595703125 413.181640625 c 0,15,16
 160.729422503 391.922851562 160.729422503 391.922851562 251.127712385 391.922851562 c 0,17,18
 362.020507812 391.922851562 362.020507812 391.922851562 417.809570312 329.922851562 c 0,19,20
 467.551757812 274.650390625 467.551757812 274.650390625 467.553710938 181.9921875 c 0,21,22
 467.553710938 85.91015625 467.553710938 85.91015625 409.703125 42.2451171875 c 0,23,24
 352.310546875 -1.0732421875 352.310546875 -1.0732421875 203.23351713 -1.0732421875 c 2,25,-1
 66.4873046875 -1.0078125 l 2,26,27
 49.265625 -1.0078125 49.265625 -1.0078125 37.2333984375 11.0244140625 c 128,-1,28
 25.19921875 23.05859375 25.19921875 23.05859375 25.19921875 40.0673828125 c 128,-1,29
 25.19921875 57.076171875 25.19921875 57.076171875 37.2333984375 69.1103515625 c 128,-1,30
 49.265625 81.142578125 49.265625 81.142578125 66.5087890625 81.142578125 c 2,31,-1
 203.248940309 81.0732421875 l 2,32,33
 321.156940147 81.076171875 321.156940147 81.076171875 359.301757812 107.078125 c 0,34,35
 385.401367188 126.38671875 385.401367188 126.38671875 385.401367188 182.267578125 c 0,36,37
 385.401367188 243.700195312 385.401367188 243.700195312 355.959960938 275.76171875 c 0,38,39
 321.794798763 309.784179688 321.794798763 309.784179688 246.270796363 309.784179688 c 0,40,41
 127.61328125 309.784179688 127.61328125 309.784179688 78.7314453125 351.029296875 c 0,42,43
 25 396.360351562 25 396.360351562 25 499.771484375 c 0,44,45
 25 604.305664062 25 604.305664062 95.16796875 656.494140625 c 0,0,1
EndSplineSet
EndChar

StartChar: T
Encoding: 84 84 74
Width: 648
VWidth: 0
Flags: W
LayerCount: 2
Fore
SplineSet
65.9619140625 702.693359375 m 2,0,-1
 559.38671875 703.25 l 2,1,2
 574.323242188 703.25 574.323242188 703.25 586.323242188 691.248046875 c 128,-1,3
 598.329101562 679.244140625 598.329101562 679.244140625 598.329101562 662.27734375 c 128,-1,4
 598.329101562 645.310546875 598.329101562 645.310546875 586.32421875 633.307617188 c 128,-1,5
 574.3203125 621.301757812 574.3203125 621.301757812 557.3671875 621.301757812 c 2,6,-1
 355.413228324 621.08203125 l 1,7,-1
 355.978607145 38.3974609375 l 2,8,9
 355.980705026 30.2919921875 355.980705026 30.2919921875 352.681787784 23.0009765625 c 128,-1,10
 349.382870542 15.7099609375 349.382870542 15.7099609375 343.087130864 10.0625 c 0,11,12
 330.193556702 -1.943359375 330.193556702 -1.943359375 311.969267938 -1.943359375 c 128,-1,13
 293.744979174 -1.943359375 293.744979174 -1.943359375 280.852453953 10.0615234375 c 0,14,15
 267.95678191 21.6728515625 267.95678191 21.6728515625 267.95678191 38.0751953125 c 2,16,-1
 267.391403089 623.252929688 l 1,17,-1
 66.41796875 623.03125 l 2,18,19
 49.009765625 623.02734375 49.009765625 623.02734375 37.005859375 634.640625 c 128,-1,20
 25 646.251953125 25 646.251953125 25 662.665039062 c 128,-1,21
 25 679.077148438 25 679.077148438 37.0048828125 690.6875 c 0,22,23
 49.0087890625 702.693359375 49.0087890625 702.693359375 65.9619140625 702.693359375 c 2,0,-1
EndSplineSet
EndChar

StartChar: U
Encoding: 85 85 75
Width: 566
VWidth: 0
Flags: W
LayerCount: 2
Fore
SplineSet
36.8251953125 689.228515625 m 128,-1,1
 48.650390625 700.854492188 48.650390625 700.854492188 66.3134765625 701.1171875 c 0,2,3
 83.01171875 701.1171875 83.01171875 701.1171875 95.03125 689.52734375 c 128,-1,4
 107.047851562 677.94140625 107.047851562 677.94140625 107.047851562 661.154296875 c 2,5,-1
 107.047851562 215.41015625 l 2,6,7
 107.427734375 150.79296875 107.427734375 150.79296875 138.796875 118.689453125 c 0,8,9
 178.189833099 81.4794921875 178.189833099 81.4794921875 270.957802359 81.4794921875 c 0,10,11
 364.011631469 81.4794921875 364.011631469 81.4794921875 403.975585938 119.12109375 c 0,12,13
 435.857421875 151.59375 435.857421875 151.59375 434.872070312 214.704101562 c 2,14,-1
 434.870117188 661.501953125 l 2,15,16
 434.870117188 677.881835938 434.870117188 677.881835938 446.889648438 689.471679688 c 128,-1,17
 458.909179688 701.061523438 458.909179688 701.061523438 475.897460938 701.061523438 c 128,-1,18
 492.884765625 701.061523438 492.884765625 701.061523438 504.90625 689.422851562 c 128,-1,19
 516.923828125 677.786132812 516.923828125 677.786132812 516.923828125 660.984375 c 2,20,-1
 516.923828125 213.689453125 l 2,21,22
 518.407226562 118.14453125 518.407226562 118.14453125 463.5703125 62.056640625 c 0,23,24
 402.337890625 -0.572265625 402.337890625 -0.572265625 270.962101004 -0.572265625 c 128,-1,25
 139.737304688 -0.572265625 139.737304688 -0.572265625 79.08203125 61.7578125 c 0,26,27
 25.5634765625 116.754882812 25.5634765625 116.754882812 25.00390625 212.977539062 c 2,28,-1
 25 661.3828125 l 2,29,0
 25 677.600585938 25 677.600585938 36.8251953125 689.228515625 c 128,-1,1
EndSplineSet
EndChar

StartChar: V
Encoding: 86 86 76
Width: 559
VWidth: 0
Flags: W
LayerCount: 2
Fore
SplineSet
37.00390625 690.107421875 m 128,-1,1
 49.005859375 701.725585938 49.005859375 701.725585938 66.3759765625 701.725585938 c 0,2,3
 79.587890625 701.577148438 79.587890625 701.577148438 90.8955078125 692.775390625 c 128,-1,4
 102.201171875 683.974609375 102.201171875 683.974609375 105.551757812 671.341796875 c 2,5,-1
 259.582263199 160.64453125 l 1,6,-1
 428.874023438 672.305664062 l 2,7,8
 432.497070312 684.682617188 432.497070312 684.682617188 443.850585938 693.190429688 c 128,-1,9
 455.205078125 701.696289062 455.205078125 701.696289062 468.176757812 701.696289062 c 0,10,11
 485.141601562 701.696289062 485.141601562 701.696289062 497.145507812 690.076171875 c 128,-1,12
 509.149414062 678.456054688 509.149414062 678.456054688 509.149414062 662.033203125 c 0,13,14
 509.149414062 655.810546875 509.149414062 655.810546875 507.206054688 649.963867188 c 2,15,-1
 300.854044242 25.56640625 l 2,16,17
 296.702177028 13.720703125 296.702177028 13.720703125 284.226090974 5.638671875 c 0,18,19
 271.75000492 -2.708984375 271.75000492 -2.708984375 257.616837613 -2.708984375 c 0,20,21
 243.140825908 -2.708984375 243.140825908 -2.708984375 230.560161532 5.9267578125 c 0,22,23
 217.981653409 14.2861328125 217.981653409 14.2861328125 214.065896017 26.5087890625 c 2,24,-1
 26.6591796875 650.892578125 l 2,25,26
 25 656.323242188 25 656.323242188 25 662.064453125 c 0,27,0
 25 678.487304688 25 678.487304688 37.00390625 690.107421875 c 128,-1,1
EndSplineSet
EndChar

StartChar: W
Encoding: 87 87 77
Width: 930
VWidth: 0
Flags: W
LayerCount: 2
Fore
SplineSet
36.8095703125 690.181640625 m 128,-1,1
 48.619140625 701.795898438 48.619140625 701.795898438 66.1376953125 702.0546875 c 0,2,3
 82.9404296875 702.0546875 82.9404296875 702.0546875 94.9443359375 690.478515625 c 128,-1,4
 106.944335938 678.905273438 106.944335938 678.905273438 106.944335938 662.139648438 c 2,5,-1
 106.944335938 213.551757812 l 2,6,7
 107.315429688 148.478515625 107.315429688 148.478515625 137.838867188 116.209960938 c 0,8,9
 173.733195303 79.3974609375 173.733195303 79.3974609375 257.672593415 79.3974609375 c 0,10,11
 341.875747732 79.3974609375 341.875747732 79.3974609375 378.658579553 118.020507812 c 0,12,13
 410.890602373 151.865234375 410.890602373 151.865234375 409.884271002 217.796875 c 2,14,-1
 409.884271002 479.374023438 l 2,15,16
 409.881227661 496.745117188 409.881227661 496.745117188 422.35182397 508.75 c 128,-1,17
 434.821405832 520.75390625 434.821405832 520.75390625 452.444378181 520.75390625 c 128,-1,18
 470.068364976 520.75390625 470.068364976 520.75390625 482.537946838 508.75 c 128,-1,19
 495.0075287 496.74609375 495.0075287 496.74609375 495.0075287 479.78125 c 2,20,-1
 495.004485359 227.431640625 l 2,21,22
 495.972267746 222.32421875 495.972267746 222.32421875 495.972267746 218.645507812 c 0,23,24
 496.354714245 151.033203125 496.354714245 151.033203125 528.062267993 117.57421875 c 0,25,26
 564.235417199 79.4013671875 564.235417199 79.4013671875 648.173800864 79.4013671875 c 0,27,28
 732.373911841 79.4013671875 732.373911841 79.4013671875 768.850585938 116.649414062 c 0,29,30
 799.876953125 149.28515625 799.876953125 149.28515625 798.908203125 212.87109375 c 2,31,-1
 798.905273438 662.546875 l 2,32,33
 798.905273438 678.677734375 798.905273438 678.677734375 810.71484375 690.243164062 c 128,-1,34
 822.524414062 701.807617188 822.524414062 701.807617188 839.529296875 702.059570312 c 0,35,36
 856.837890625 702.059570312 856.837890625 702.059570312 868.840820312 690.434570312 c 128,-1,37
 880.841796875 678.813476562 880.841796875 678.813476562 880.841796875 661.978515625 c 2,38,-1
 880.841796875 211.833984375 l 2,39,40
 882.288085938 116.608398438 882.288085938 116.608398438 829.247070312 60.58203125 c 0,41,42
 799.219726562 28.8671875 799.219726562 28.8671875 754.543635402 13.1611328125 c 0,43,44
 708.380212671 -2.5458984375 708.380212671 -2.5458984375 648.17177197 -2.5458984375 c 0,45,46
 526.675519018 -2.5458984375 526.675519018 -2.5458984375 465.175687355 62.337890625 c 0,47,48
 459.10828017 68.7412109375 459.10828017 68.7412109375 453.198112262 76.3798828125 c 1,49,50
 447.423880244 68.966796875 447.423880244 68.966796875 441.401108725 62.642578125 c 0,51,52
 379.31391228 -2.5458984375 379.31391228 -2.5458984375 257.674622308 -2.5458984375 c 0,53,54
 136.510742188 -2.5458984375 136.510742188 -2.5458984375 77.3046875 60.2861328125 c 0,55,56
 25.5458984375 115.213867188 25.5458984375 115.213867188 25.0029296875 211.137695312 c 2,57,-1
 25 662.370117188 l 2,58,0
 25 678.569335938 25 678.569335938 36.8095703125 690.181640625 c 128,-1,1
EndSplineSet
EndChar

StartChar: X
Encoding: 88 88 78
Width: 559
VWidth: 0
Flags: W
LayerCount: 2
Fore
SplineSet
433.166992188 682.001953125 m 2,0,1
 444.907226562 702.6328125 444.907226562 702.6328125 469.3203125 702.6328125 c 0,2,3
 486.12109375 702.361328125 486.12109375 702.361328125 497.9140625 690.756835938 c 128,-1,4
 509.708007812 679.151367188 509.708007812 679.151367188 509.708007812 662.979492188 c 0,5,6
 509.708007812 651.885742188 509.708007812 651.885742188 503.797851562 642.462890625 c 2,7,-1
 321.548162027 350.502929688 l 1,8,-1
 503.798828125 58.5390625 l 2,9,10
 509.697265625 49.126953125 509.697265625 49.126953125 509.697265625 38.0419921875 c 0,11,12
 509.697265625 21.62109375 509.697265625 21.62109375 497.693359375 10.0029296875 c 0,13,14
 485.689453125 -2.0009765625 485.689453125 -2.0009765625 468.723632812 -2.0009765625 c 0,15,16
 444.921875 -2.0009765625 444.921875 -2.0009765625 433.168945312 18.6083984375 c 2,17,-1
 270.375452414 280.98828125 l 1,18,-1
 104.259152903 18.6083984375 l 2,19,20
 91.6073685205 -2.0009765625 91.6073685205 -2.0009765625 65.9852712407 -2.0009765625 c 0,21,22
 49.0185546875 -2.0009765625 49.0185546875 -2.0009765625 37.0146484375 10.0029296875 c 0,23,24
 25.0107421875 21.62109375 25.0107421875 21.62109375 25.0107421875 38.0419921875 c 0,25,26
 25.0107421875 49.126953125 25.0107421875 49.126953125 30.9091796875 58.5390625 c 2,27,-1
 219.203794051 350.501953125 l 1,28,-1
 30.9111328125 642.4609375 l 2,29,30
 25 651.880859375 25 651.880859375 25 662.978515625 c 0,31,32
 25 678.708984375 25 678.708984375 36.4130859375 690.283203125 c 128,-1,33
 47.826171875 701.857421875 47.826171875 701.857421875 64.064453125 702.591796875 c 0,34,35
 65.01953125 702.63671875 65.01953125 702.63671875 65.97265625 702.63671875 c 0,36,37
 91.6210347604 702.63671875 91.6210347604 702.63671875 104.261255402 682.001953125 c 2,38,-1
 270.375452414 419.627929688 l 1,39,-1
 433.166992188 682.001953125 l 2,0,1
EndSplineSet
EndChar

StartChar: Y
Encoding: 89 89 79
Width: 573
VWidth: 0
Flags: W
LayerCount: 2
Fore
SplineSet
37.00390625 690.571289062 m 0,0,1
 49.0078125 702.575195312 49.0078125 702.575195312 66.662109375 702.575195312 c 0,2,3
 89.712890625 701.80078125 89.712890625 701.80078125 101.125 682.63671875 c 2,4,-1
 271.397041644 419.716796875 l 1,5,-1
 444.87557442 682.635742188 l 2,6,7
 457.614519958 702.578125 457.614519958 702.578125 482.610351562 702.578125 c 0,8,9
 483.352539062 702.578125 483.352539062 702.578125 484.09375 702.55078125 c 0,10,11
 500.4921875 701.974609375 500.4921875 701.974609375 512.038085938 690.384765625 c 128,-1,12
 523.58203125 678.794921875 523.58203125 678.794921875 523.58203125 662.907226562 c 0,13,14
 523.58203125 651.381835938 523.58203125 651.381835938 517.249023438 641.719726562 c 2,15,-1
 315.40278375 341.822265625 l 1,16,-1
 316.505232805 37.5791015625 l 2,17,18
 316.510472582 26.3388671875 316.510472582 26.3388671875 310.604196088 17.1689453125 c 128,-1,19
 304.727262345 8.044921875 304.727262345 8.044921875 294.613445021 2.7421875 c 128,-1,20
 284.452469705 -2.759765625 284.452469705 -2.759765625 272.540360958 -2.759765625 c 0,21,22
 254.334232228 -2.759765625 254.334232228 -2.759765625 241.452764759 9.244140625 c 0,23,24
 228.571297289 20.8564453125 228.571297289 20.8564453125 228.571297289 37.2490234375 c 2,25,-1
 227.471992101 341.631835938 l 1,26,-1
 31.3330078125 641.37890625 l 2,27,28
 25 651.034179688 25 651.034179688 25 662.547851562 c 0,29,30
 25 678.958984375 25 678.958984375 37.00390625 690.571289062 c 0,0,1
EndSplineSet
EndChar

StartChar: Z
Encoding: 90 90 80
Width: 559
VWidth: 0
Flags: W
LayerCount: 2
Fore
SplineSet
67.1435546875 701.755859375 m 2,0,-1
 468.299804688 701.818359375 l 2,1,2
 485.260742188 701.818359375 485.260742188 701.818359375 497.266601562 690.198242188 c 128,-1,3
 509.270507812 678.581054688 509.270507812 678.581054688 509.270507812 662.161132812 c 0,4,5
 509.270507812 651.368164062 509.270507812 651.368164062 503.618164062 642.0625 c 2,6,-1
 137.6015625 77.5947265625 l 1,7,-1
 466.712890625 77.646484375 l 2,8,9
 484.1640625 77.6513671875 484.1640625 77.6513671875 496.169921875 66.0322265625 c 128,-1,10
 508.173828125 54.4140625 508.173828125 54.4140625 508.173828125 37.9951171875 c 128,-1,11
 508.173828125 21.5751953125 508.173828125 21.5751953125 496.169921875 9.95703125 c 0,12,13
 484.166015625 -2.046875 484.166015625 -2.046875 467.202148438 -2.046875 c 2,14,-1
 65.970703125 -2.1103515625 l 2,15,16
 49.0068359375 -2.109375 49.0068359375 -2.109375 37.0029296875 9.8955078125 c 0,17,18
 25 21.5126953125 25 21.5126953125 25 37.931640625 c 0,19,20
 25 48.7265625 25 48.7265625 30.6533203125 58.0322265625 c 2,21,-1
 396.669921875 622.5 l 1,22,-1
 67.5576171875 622.44921875 l 2,23,24
 50.1806640625 622.4453125 50.1806640625 622.4453125 38.17578125 634.063476562 c 128,-1,25
 26.171875 645.681640625 26.171875 645.681640625 26.171875 662.1015625 c 128,-1,26
 26.171875 678.521484375 26.171875 678.521484375 38.17578125 690.137695312 c 128,-1,27
 50.1796875 701.755859375 50.1796875 701.755859375 67.1435546875 701.755859375 c 2,0,-1
EndSplineSet
EndChar

StartChar: exclam
Encoding: 33 33 96
Width: 154
VWidth: 0
Flags: W
LayerCount: 2
Fore
SplineSet
64.5625 0.0625 m 128,-1,1
 48.1796875 0.0625 48.1796875 0.0625 36.58984375 11.65234375 c 0,2,3
 30.947265625 17.294921875 30.947265625 17.294921875 27.9736328125 24.4716796875 c 128,-1,4
 25 31.6484375 25 31.6484375 25 39.6240234375 c 0,5,6
 25 56.0048828125 25 56.0048828125 36.58984375 67.5947265625 c 128,-1,7
 48.1796875 79.1845703125 48.1796875 79.1845703125 64.5625 79.1845703125 c 128,-1,8
 80.9423828125 79.1845703125 80.9423828125 79.1845703125 92.533203125 67.5947265625 c 128,-1,9
 104.124023438 56.0048828125 104.124023438 56.0048828125 104.124023438 39.6240234375 c 128,-1,10
 104.124023438 23.2431640625 104.124023438 23.2431640625 92.5341796875 11.6533203125 c 128,-1,0
 80.9423828125 0.0625 80.9423828125 0.0625 64.5625 0.0625 c 128,-1,1
64.095703125 202.796875 m 4,11,12
 48.275390625 203 48.275390625 203 36.4638671875 214.62109375 c 4,13,14
 25.060546875 227.237304688 25.060546875 227.237304688 25.060546875 242.768554688 c 6,15,-1
 25.060546875 659.85546875 l 6,16,17
 25.275390625 676 25.275390625 676 36.646484375 688.258789062 c 4,18,19
 48.275390625 700 48.275390625 700 64.6142578125 699.84765625 c 4,20,21
 80.275390625 700 80.275390625 700 92.5810546875 688.258789062 c 4,22,23
 104.168945312 676.111328125 104.168945312 676.111328125 104.168945312 660.07421875 c 6,24,-1
 104.169921875 242.350585938 l 6,25,26
 104.275390625 226 104.275390625 226 92.5810546875 214.3828125 c 4,27,28
 80.275390625 203 80.275390625 203 64.095703125 202.796875 c 4,11,12
EndSplineSet
EndChar

StartChar: quotedbl
Encoding: 34 34 97
Width: 280
Flags: W
LayerCount: 2
Fore
SplineSet
190.692382812 707.340820312 m 0,0,1
 206.770507812 707.13671875 206.770507812 707.13671875 218.461914062 696.051757812 c 128,-1,2
 230.350585938 684.869140625 230.350585938 684.869140625 230.159179688 668.064453125 c 2,3,-1
 230.15625 532.6015625 l 2,4,5
 230.349609375 516.375 230.349609375 516.375 218.671875 504.380859375 c 0,6,7
 206.766601562 492.791992188 206.766601562 492.791992188 190.9453125 492.893554688 c 0,8,9
 175.310546875 492.791992188 175.310546875 492.791992188 163.216796875 504.380859375 c 0,10,11
 151.73046875 516.373046875 151.73046875 516.373046875 151.73046875 532.108398438 c 2,12,-1
 151.733398438 667.713867188 l 2,13,14
 151.729492188 683.573242188 151.729492188 683.573242188 162.888671875 695.463867188 c 0,15,16
 173.983398438 707.134765625 173.983398438 707.134765625 190.692382812 707.340820312 c 0,0,1
63.962890625 707.340820312 m 0,17,18
 80.0400390625 707.13671875 80.0400390625 707.13671875 91.7314453125 696.051757812 c 128,-1,19
 103.620117188 684.869140625 103.620117188 684.869140625 103.428710938 668.064453125 c 2,20,-1
 103.42578125 532.6015625 l 2,21,22
 103.620117188 516.375 103.620117188 516.375 91.94140625 504.380859375 c 0,23,24
 80.037109375 492.791992188 80.037109375 492.791992188 64.2158203125 492.893554688 c 0,25,26
 48.5810546875 492.791992188 48.5810546875 492.791992188 36.486328125 504.380859375 c 0,27,28
 25 516.373046875 25 516.373046875 25 532.108398438 c 2,29,-1
 25.0029296875 667.713867188 l 2,30,31
 24.9990234375 683.573242188 24.9990234375 683.573242188 36.158203125 695.463867188 c 0,32,33
 47.25390625 707.134765625 47.25390625 707.134765625 63.962890625 707.340820312 c 0,17,18
EndSplineSet
EndChar

StartChar: quotesingle
Encoding: 39 39 98
Width: 153
Flags: W
LayerCount: 2
Fore
SplineSet
63.9619140625 707.340820312 m 0,0,1
 80.0400390625 707.13671875 80.0400390625 707.13671875 91.7314453125 696.051757812 c 128,-1,2
 103.620117188 684.869140625 103.620117188 684.869140625 103.428710938 668.064453125 c 2,3,-1
 103.42578125 532.6015625 l 2,4,5
 103.619140625 516.375 103.619140625 516.375 91.94140625 504.380859375 c 0,6,7
 80.0361328125 492.791992188 80.0361328125 492.791992188 64.21484375 492.893554688 c 0,8,9
 48.5810546875 492.791992188 48.5810546875 492.791992188 36.486328125 504.380859375 c 0,10,11
 25 516.373046875 25 516.373046875 25 532.108398438 c 2,12,-1
 25.0029296875 667.713867188 l 2,13,14
 24.9990234375 683.573242188 24.9990234375 683.573242188 36.158203125 695.463867188 c 0,15,16
 47.25390625 707.134765625 47.25390625 707.134765625 63.9619140625 707.340820312 c 0,0,1
EndSplineSet
EndChar

StartChar: parenleft
Encoding: 40 40 99
Width: 230
VWidth: 0
Flags: W
LayerCount: 2
Fore
SplineSet
143.538085938 700.091796875 m 0,0,1
 159.1640625 699.84375 159.1640625 699.84375 169.971679688 688.86328125 c 128,-1,2
 180.778320312 677.881835938 180.778320312 677.881835938 180.778320312 662.573242188 c 0,3,4
 180.778320312 647.908203125 180.778320312 647.908203125 170.8828125 637.182617188 c 0,5,6
 143.1171875 606.22265625 143.1171875 606.22265625 129.3125 569.408203125 c 0,7,8
 100.03125 491.333007812 100.03125 491.333007812 100.03125 352.232421875 c 0,9,10
 100.03125 212.926757812 100.03125 212.926757812 129.418945312 132.541992188 c 0,11,12
 143.568359375 93.8388671875 143.568359375 93.8388671875 171.4453125 61.2900390625 c 0,13,14
 180.780273438 50.7080078125 180.780273438 50.7080078125 180.780273438 36.525390625 c 0,15,16
 180.780273438 20.990234375 180.780273438 20.990234375 169.7890625 9.9990234375 c 128,-1,17
 158.796875 -0.9931640625 158.796875 -0.9931640625 143.26171875 -0.9931640625 c 0,18,19
 125.662109375 -0.9931640625 125.662109375 -0.9931640625 114.458007812 12.4833984375 c 0,20,21
 77.7548828125 55.341796875 77.7548828125 55.341796875 58.9501953125 106.778320312 c 0,22,23
 25 199.642578125 25 199.642578125 25 352.232421875 c 128,-1,24
 25 504.935546875 25 504.935546875 59.0595703125 595.755859375 c 0,25,26
 77.830078125 645.807617188 77.830078125 645.807617188 115.022460938 687.278320312 c 0,27,28
 126.189453125 700.091796875 126.189453125 700.091796875 143.538085938 700.091796875 c 0,0,1
EndSplineSet
EndChar

StartChar: parenright
Encoding: 41 41 100
Width: 230
VWidth: 0
Flags: W
LayerCount: 2
Fore
SplineSet
62.2421875 700.091796875 m 0,0,1
 79.5908203125 700.091796875 79.5908203125 700.091796875 90.7578125 687.278320312 c 0,2,3
 127.950195312 645.807617188 127.950195312 645.807617188 146.720703125 595.755859375 c 0,4,5
 180.780273438 504.935546875 180.780273438 504.935546875 180.780273438 352.232421875 c 128,-1,6
 180.780273438 199.642578125 180.780273438 199.642578125 146.830078125 106.778320312 c 0,7,8
 128.025390625 55.341796875 128.025390625 55.341796875 91.322265625 12.4833984375 c 0,9,10
 80.1181640625 -0.9931640625 80.1181640625 -0.9931640625 62.5185546875 -0.9931640625 c 0,11,12
 46.9833984375 -0.9931640625 46.9833984375 -0.9931640625 35.9921875 9.998046875 c 128,-1,13
 25 20.990234375 25 20.990234375 25 36.525390625 c 0,14,15
 25 50.7080078125 25 50.7080078125 34.3349609375 61.2900390625 c 0,16,17
 62.2119140625 93.8388671875 62.2119140625 93.8388671875 76.361328125 132.541992188 c 0,18,19
 105.749023438 212.926757812 105.749023438 212.926757812 105.749023438 352.232421875 c 0,20,21
 105.749023438 491.333007812 105.749023438 491.333007812 76.4677734375 569.409179688 c 0,22,23
 62.6630859375 606.22265625 62.6630859375 606.22265625 34.8974609375 637.182617188 c 0,24,25
 25.001953125 647.908203125 25.001953125 647.908203125 25.001953125 662.573242188 c 0,26,27
 25.001953125 677.881835938 25.001953125 677.881835938 35.8095703125 688.86328125 c 128,-1,28
 46.6162109375 699.84375 46.6162109375 699.84375 62.2421875 700.091796875 c 0,0,1
EndSplineSet
EndChar

StartChar: at
Encoding: 64 64 101
Width: 617
VWidth: 0
Flags: W
LayerCount: 2
Fore
SplineSet
196.104492188 699.072265625 m 2,0,-1
 399.333007812 699.072265625 l 2,1,2
 470.038085938 699.072265625 470.038085938 699.072265625 517.874023438 650.916015625 c 128,-1,3
 565.680664062 602.787109375 565.680664062 602.787109375 565.680664062 535.061523438 c 2,4,-1
 565.737304688 238.984375 l 2,5,6
 564.603515625 186.798828125 564.603515625 186.798828125 538.452148438 157.23828125 c 0,7,8
 499.424804688 113.122070312 499.424804688 113.122070312 407.521484375 113.122070312 c 0,9,10
 340.196289062 113.122070312 340.196289062 113.122070312 313.008789062 113.801757812 c 0,11,12
 285.28515625 114.49609375 285.28515625 114.49609375 252.991210938 119.536132812 c 0,13,14
 219.59375 124.749023438 219.59375 124.749023438 198.295898438 136.411132812 c 0,15,16
 163.724609375 155.344726562 163.724609375 155.344726562 152.501953125 195.303710938 c 0,17,18
 145.467773438 220.353515625 145.467773438 220.353515625 145.467773438 272.154296875 c 0,19,20
 145.467773438 330.096679688 145.467773438 330.096679688 187.43359375 362.202148438 c 0,21,22
 221.405273438 388.192382812 221.405273438 388.192382812 272.057617188 388.255859375 c 2,23,-1
 375.5625 388.3671875 l 1,24,-1
 375.610351562 433.983398438 l 2,25,26
 375.625 448.232421875 375.625 448.232421875 372.063476562 460.493164062 c 128,-1,27
 368.471679688 472.860351562 368.471679688 472.860351562 366.01953125 476.903320312 c 2,28,-1
 362.986328125 481.421875 l 2,29,30
 360.68359375 483.516601562 360.68359375 483.516601562 357.41796875 486.557617188 c 0,31,32
 353.921875 489.8125 353.921875 489.8125 353.1796875 490.409179688 c 128,-1,33
 352.303710938 491.115234375 352.303710938 491.115234375 349.748046875 493.017578125 c 2,34,-1
 347.704101562 494.318359375 l 2,35,36
 345.182617188 495.196289062 345.182617188 495.196289062 342.629882812 496.05078125 c 0,37,38
 339.83984375 496.984375 339.83984375 496.984375 335.890625 497.888671875 c 0,39,40
 307.560546875 504.374023438 307.560546875 504.374023438 217.051757812 502.438476562 c 0,41,42
 201.735351562 502.438476562 201.735351562 502.438476562 191.103515625 513.071289062 c 128,-1,43
 180.469726562 523.703125 180.469726562 523.703125 180.469726562 538.731445312 c 128,-1,44
 180.469726562 553.663085938 180.469726562 553.663085938 191.0234375 564.291992188 c 128,-1,45
 201.578125 574.920898438 201.578125 574.920898438 216.436523438 575.024414062 c 0,46,47
 242.965820312 575.591796875 242.965820312 575.591796875 262.76953125 575.557617188 c 0,48,49
 322.326171875 575.455078125 322.326171875 575.455078125 352.086914062 568.642578125 c 0,50,51
 382.37890625 561.708007812 382.37890625 561.708007812 411.765625 535.168945312 c 0,52,53
 448.263671875 502.185546875 448.263671875 502.185546875 448.19140625 433.907226562 c 2,54,-1
 447.932617188 188.901367188 l 1,55,56
 473.97265625 193.893554688 473.97265625 193.893554688 484.090820312 205.331054688 c 0,57,58
 492.600585938 214.950195312 492.600585938 214.950195312 493.153320312 239.9140625 c 2,59,-1
 493.096679688 535.05859375 l 2,60,61
 493.096679688 574.709960938 493.096679688 574.709960938 467.509765625 600.626953125 c 128,-1,62
 441.9765625 626.489257812 441.9765625 626.489257812 399.333007812 626.489257812 c 2,63,-1
 196.104492188 626.489257812 l 2,64,65
 153.20703125 626.489257812 153.20703125 626.489257812 125.1328125 601.534179688 c 0,66,67
 97.5830078125 577.044921875 97.5830078125 577.044921875 97.5830078125 535.401367188 c 2,68,-1
 97.5830078125 170.388671875 l 2,69,70
 97.5830078125 120.5078125 97.5830078125 120.5078125 126.91015625 94.8056640625 c 0,71,72
 153.418945312 71.57421875 153.418945312 71.57421875 195.763671875 71.57421875 c 2,73,-1
 531.547851562 71.5771484375 l 2,74,75
 546.575195312 71.5771484375 546.575195312 71.5771484375 557.208984375 60.9443359375 c 128,-1,76
 567.841796875 50.310546875 567.841796875 50.310546875 567.841796875 35.2822265625 c 128,-1,77
 567.841796875 20.25390625 567.841796875 20.25390625 557.208984375 9.6220703125 c 128,-1,78
 546.577148438 -1.0087890625 546.577148438 -1.0087890625 531.19921875 -1.0087890625 c 2,79,-1
 195.763671875 -1.0087890625 l 2,80,81
 126.115234375 -1.0087890625 126.115234375 -1.0087890625 79.0712890625 40.2197265625 c 0,82,83
 25 87.6083984375 25 87.6083984375 25 170.388671875 c 2,84,-1
 25 535.401367188 l 2,85,86
 25 606.537109375 25 606.537109375 76.0654296875 652.994140625 c 0,87,88
 126.715820312 699.072265625 126.715820312 699.072265625 196.104492188 699.072265625 c 2,0,-1
375.486328125 315.783203125 m 1,89,-1
 272.142578125 315.672851562 l 2,90,91
 246.020507812 315.639648438 246.020507812 315.639648438 231.536132812 304.557617188 c 0,92,93
 218.05078125 294.240234375 218.05078125 294.240234375 218.05078125 272.154296875 c 0,94,95
 218.05078125 230.3515625 218.05078125 230.3515625 222.381835938 214.928710938 c 0,96,97
 225.354492188 204.34765625 225.354492188 204.34765625 233.159179688 200.073242188 c 0,98,99
 256.307617188 187.396484375 256.307617188 187.396484375 375.34765625 185.897460938 c 1,100,-1
 375.486328125 315.783203125 l 1,89,-1
EndSplineSet
EndChar

StartChar: bar
Encoding: 124 124 102
Width: 153
Flags: W
LayerCount: 2
Fore
SplineSet
63.9619140625 698.340820312 m 0,0,1
 80.0400390625 698.13671875 80.0400390625 698.13671875 91.7314453125 687.051757812 c 128,-1,2
 103.620117188 675.869140625 103.620117188 675.869140625 103.428710938 659.064453125 c 2,3,-1
 103.42578125 -58.3984375 l 2,4,5
 103.619140625 -74.625 103.619140625 -74.625 91.94140625 -86.619140625 c 0,6,7
 80.0361328125 -98.2080078125 80.0361328125 -98.2080078125 64.21484375 -98.1064453125 c 0,8,9
 48.5810546875 -98.2080078125 48.5810546875 -98.2080078125 36.486328125 -86.619140625 c 0,10,11
 25 -74.626953125 25 -74.626953125 25 -58.8916015625 c 2,12,-1
 25.0029296875 658.713867188 l 2,13,14
 24.9990234375 674.573242188 24.9990234375 674.573242188 36.158203125 686.463867188 c 0,15,16
 47.25390625 698.134765625 47.25390625 698.134765625 63.9619140625 698.340820312 c 0,0,1
EndSplineSet
EndChar

StartChar: grave
Encoding: 96 96 103
Width: 249
Flags: W
LayerCount: 2
Fore
SplineSet
36.2841796875 675.752929688 m 0,0,1
 47.7890625 686.969726562 47.7890625 686.969726562 63.89453125 687.396484375 c 0,2,3
 80.2080078125 687.896484375 80.2080078125 687.896484375 91.9560546875 675.87890625 c 2,4,-1
 187.740234375 580.08984375 l 2,5,6
 199.350585938 568.752929688 199.350585938 568.752929688 199.575195312 552.014648438 c 0,7,8
 199.350585938 535.401367188 199.350585938 535.401367188 188.092773438 524.286132812 c 0,9,10
 177.108398438 513.158203125 177.108398438 513.158203125 160.361328125 512.801757812 c 0,11,12
 143.760742188 513.158203125 143.760742188 513.158203125 132.633789062 524.286132812 c 2,13,-1
 36.748046875 620.174804688 l 2,14,15
 25.53125 631.38671875 25.53125 631.38671875 25.013671875 647.685546875 c 0,16,17
 24.607421875 663.784179688 24.607421875 663.784179688 36.2841796875 675.752929688 c 0,0,1
EndSplineSet
EndChar

StartChar: uni02CA
Encoding: 714 714 104
Width: 249
Flags: W
LayerCount: 2
Fore
SplineSet
188.291015625 675.752929688 m 4,0,1
 199.967773438 663.784179688 199.967773438 663.784179688 199.561523438 647.685546875 c 4,2,3
 199.043945312 631.38671875 199.043945312 631.38671875 187.827148438 620.174804688 c 6,4,-1
 91.94140625 524.286132812 l 6,5,6
 80.814453125 513.158203125 80.814453125 513.158203125 64.2138671875 512.801757812 c 4,7,8
 47.466796875 513.158203125 47.466796875 513.158203125 36.482421875 524.286132812 c 4,9,10
 25.224609375 535.401367188 25.224609375 535.401367188 25 552.014648438 c 4,11,12
 25.224609375 568.752929688 25.224609375 568.752929688 36.8349609375 580.08984375 c 6,13,-1
 132.619140625 675.87890625 l 6,14,15
 144.3671875 687.896484375 144.3671875 687.896484375 160.680664062 687.396484375 c 4,16,17
 176.786132812 686.969726562 176.786132812 686.969726562 188.291015625 675.752929688 c 4,0,1
EndSplineSet
EndChar

StartChar: dieresis
Encoding: 168 168 105
Width: 317
VWidth: 0
Flags: W
LayerCount: 2
Fore
SplineSet
25 658.674804688 m 128,-1,1
 25 675.587890625 25 675.587890625 36.9599609375 687.547851562 c 128,-1,2
 48.919921875 699.5078125 48.919921875 699.5078125 65.8330078125 699.5078125 c 128,-1,3
 82.74609375 699.5078125 82.74609375 699.5078125 94.7060546875 687.547851562 c 128,-1,4
 106.666015625 675.587890625 106.666015625 675.587890625 106.666015625 658.674804688 c 128,-1,5
 106.666015625 641.76171875 106.666015625 641.76171875 94.7060546875 629.801757812 c 128,-1,6
 82.74609375 617.841796875 82.74609375 617.841796875 65.8330078125 617.841796875 c 128,-1,7
 48.919921875 617.841796875 48.919921875 617.841796875 36.9599609375 629.801757812 c 128,-1,0
 25 641.76171875 25 641.76171875 25 658.674804688 c 128,-1,1
185.436523438 658.674804688 m 0,8,9
 185.41796875 676 185.41796875 676 197.396484375 687.547851562 c 0,10,11
 209.41796875 700 209.41796875 700 226.26953125 699.5078125 c 0,12,13
 243.41796875 700 243.41796875 700 255.142578125 687.547851562 c 0,14,15
 267.41796875 676 267.41796875 676 267.1015625 658.674804688 c 0,16,17
 267.41796875 642 267.41796875 642 255.142578125 629.801757812 c 0,18,19
 243.41796875 618 243.41796875 618 226.26953125 617.841796875 c 0,20,21
 209.41796875 618 209.41796875 618 197.396484375 629.801757812 c 0,22,23
 185.41796875 642 185.41796875 642 185.436523438 658.674804688 c 0,8,9
EndSplineSet
EndChar

StartChar: asciicircum
Encoding: 94 94 106
Width: 330
VWidth: 0
Flags: W
LayerCount: 2
Fore
SplineSet
153.295898438 699.5 m 4,0,1
 167.4453125 699.09765625 167.4453125 699.09765625 177.618164062 690.022460938 c 6,2,-1
 267.674804688 609.677734375 l 6,3,4
 280.509765625 598.541992188 280.509765625 598.541992188 280.509765625 581.499023438 c 4,5,6
 280.509765625 566.034179688 280.509765625 566.034179688 269.567382812 555.090820312 c 132,-1,7
 258.624023438 544.1484375 258.624023438 544.1484375 243.16015625 544.1484375 c 4,8,9
 228.623046875 544.1484375 228.623046875 544.1484375 217.94921875 553.940429688 c 6,10,-1
 152.755859375 612.103515625 l 5,11,-1
 87.560546875 553.940429688 l 6,12,13
 76.88671875 544.1484375 76.88671875 544.1484375 62.3505859375 544.1484375 c 4,14,15
 46.8857421875 544.1484375 46.8857421875 544.1484375 35.9423828125 555.090820312 c 132,-1,16
 25 566.034179688 25 566.034179688 25 581.499023438 c 4,17,18
 25 598.541992188 25 598.541992188 37.8349609375 609.677734375 c 6,19,-1
 127.892578125 690.0234375 l 6,20,21
 138.518554688 699.5 138.518554688 699.5 153.295898438 699.5 c 4,0,1
EndSplineSet
EndChar

StartChar: circumflex
Encoding: 710 710 107
Width: 330
VWidth: 0
Flags: W
LayerCount: 2
Fore
SplineSet
153.295898438 699.5 m 4,0,1
 167.4453125 699.09765625 167.4453125 699.09765625 177.618164062 690.022460938 c 6,2,-1
 267.674804688 609.677734375 l 6,3,4
 280.509765625 598.541992188 280.509765625 598.541992188 280.509765625 581.499023438 c 4,5,6
 280.509765625 566.034179688 280.509765625 566.034179688 269.567382812 555.090820312 c 132,-1,7
 258.624023438 544.1484375 258.624023438 544.1484375 243.16015625 544.1484375 c 4,8,9
 228.623046875 544.1484375 228.623046875 544.1484375 217.94921875 553.940429688 c 6,10,-1
 152.755859375 612.103515625 l 5,11,-1
 87.560546875 553.940429688 l 6,12,13
 76.88671875 544.1484375 76.88671875 544.1484375 62.3505859375 544.1484375 c 4,14,15
 46.8857421875 544.1484375 46.8857421875 544.1484375 35.9423828125 555.090820312 c 132,-1,16
 25 566.034179688 25 566.034179688 25 581.499023438 c 4,17,18
 25 598.541992188 25 598.541992188 37.8349609375 609.677734375 c 6,19,-1
 127.892578125 690.0234375 l 6,20,21
 138.518554688 699.5 138.518554688 699.5 153.295898438 699.5 c 4,0,1
EndSplineSet
EndChar

StartChar: acute
Encoding: 180 180 108
Width: 249
Flags: W
LayerCount: 2
Fore
SplineSet
188.291015625 675.752929688 m 0,0,1
 199.967773438 663.784179688 199.967773438 663.784179688 199.561523438 647.685546875 c 0,2,3
 199.043945312 631.38671875 199.043945312 631.38671875 187.827148438 620.174804688 c 2,4,-1
 91.94140625 524.286132812 l 2,5,6
 80.814453125 513.158203125 80.814453125 513.158203125 64.2138671875 512.801757812 c 0,7,8
 47.466796875 513.158203125 47.466796875 513.158203125 36.482421875 524.286132812 c 0,9,10
 25.224609375 535.401367188 25.224609375 535.401367188 25 552.014648438 c 0,11,12
 25.224609375 568.752929688 25.224609375 568.752929688 36.8349609375 580.08984375 c 2,13,-1
 132.619140625 675.87890625 l 2,14,15
 144.3671875 687.896484375 144.3671875 687.896484375 160.680664062 687.396484375 c 0,16,17
 176.786132812 686.969726562 176.786132812 686.969726562 188.291015625 675.752929688 c 0,0,1
EndSplineSet
EndChar

